<svg xmlns="http://www.w3.org/2000/svg" width="28" height="28" viewBox="0 0 28 28">
	<defs>
		<style type="text/css">
			.st0{fill:#DFDFDF;}
		</style>
	</defs>
	<path id="Color_Fill_1" class="st0" d="M25.9,12.9c-1.8,0-2.1-0.7-3.5-1c-1.1-0.2-2.3-0.1-3.4,0.3c-0.4,0.2-0.7,0.1,4.6,7.4
		c1,1.3,4.4,3.8,4.4,5.5c0,1.3-0.8,2.5-2,2.9c-1.8,0.8-5.4-2.8-7-4.3c-2-1.8-1.9-2.2-2.8-1.9c-0.8,0.3-1.6,0.7-2.3,1.1
		c-3.3,2.3-4.8,6.4-8,4.6c-0.4-0.3-0.8-0.8-1-1.3c-0.2-0.7-0.1-1.4,0.1-2c1.2-2.1,2.5-4,4.1-5.8c-1.4,0-2.9-0.2-4.3-0.4
		c-2.8-0.9-6.1-2.3-4.5-5.5c0.5-0.8,1.4-1.2,2.3-1.1c1.6,0.1,1.5,0.8,3.6,0.8c1.1,0,2.1-0.6,2.8-1.4c-0.2,0-0.3,0-0.5,0
		c-3,0-5.4-2.5-5.4-5.5c0-3,2.5-5.4,5.5-5.4s5.4,2.5,5.4,5.5c0,0.4,0,0.8-0.1,1.2h0c0.7-0.7,4.5-1.4,6.3-1.1c3.4,0.5,7,2.6,7.7,4.1
		C28.3,10.5,27.7,12.9,25.9,12.9z M8.6,2.1c-1.8,0-3.2,1.5-3.2,3.3c0,1.8,1.5,3.2,3.3,3.2c1.8,0,3.2-1.5,3.2-3.3
		C11.8,3.6,10.4,2.1,8.6,2.1C8.6,2.1,8.6,2.1,8.6,2.1z M25.9,10.1C23,7.7,19.1,7,15.6,8.1c-2.3,0.8-4,4.1-6.7,5.6
		c-2.6,1.4-5.8-0.1-6.1-0.1c-0.3-0.1-1.1,0.2-0.5,1c2,1.3,4.4,2,6.8,1.9c3.2-0.2,4.9-2.3,5.6-1.1c2.6,4,6,7.5,9.9,10.3
		c0.9,0.6,2.2-0.3-0.3-2.3c-2.3-1.9-8.6-10.2-8.2-11.8s4.7-2.3,6.3-1.9c1,0.3,2,0.7,3,1.1C25.9,11,26,10.2,25.9,10.1z"/>
</svg>
