<svg xmlns="http://www.w3.org/2000/svg" width="28" height="28" viewBox="0 0 28 28">
  <defs>
    <style>
      .cls-1 {
        fill: #fff;
        fill-rule: evenodd;
      }
    </style>
  </defs>
  <path id="Color_Fill_1" data-name="Color Fill 1" class="cls-1" d="M784.867,1477.88c-1.814,0-2.1-.69-3.513-1a6.605,6.605,0,0,0-3.388.25c-0.434.17-.667,0.14,4.642,7.38,0.968,1.32,4.431,3.75,4.392,5.5a3,3,0,0,1-2.008,2.88c-1.806.8-5.423-2.8-7.026-4.26-2.025-1.83-1.9-2.22-2.761-1.87a10.677,10.677,0,0,0-2.258,1.12c-3.269,2.29-4.823,6.37-8.03,4.63a3.261,3.261,0,0,1-1-1.25,2.935,2.935,0,0,1,.126-2,30.444,30.444,0,0,1,4.14-5.75,29.752,29.752,0,0,1-4.266-.38c-2.817-.91-6.053-2.28-4.517-5.5a2.406,2.406,0,0,1,2.258-1.13c1.605,0.09,1.483.75,3.639,0.76a3.873,3.873,0,0,0,2.836-1.41,4.4,4.4,0,0,1-.515.03,5.441,5.441,0,1,1,5.326-4.25h0.007c0.688-.67,4.545-1.4,6.274-1.13,3.388,0.54,7.024,2.64,7.653,4.13C787.25,1475.52,786.68,1477.88,784.867,1477.88Zm-17.315-10.75a3.25,3.25,0,1,0,3.262,3.25A3.253,3.253,0,0,0,767.552,1467.13Zm17.315,8a10.8,10.8,0,0,0-10.289-2c-2.314.83-3.987,4.13-6.65,5.63-2.564,1.44-5.818-.06-6.148-0.13-0.347-.07-1.088.21-0.5,1a11.3,11.3,0,0,0,6.776,1.88c3.163-.17,4.933-2.31,5.646-1.13a38.187,38.187,0,0,0,9.912,10.26c0.935,0.57,2.2-.25-0.251-2.26-2.3-1.88-8.56-10.19-8.156-11.75s4.739-2.27,6.274-1.88a31.628,31.628,0,0,1,3.012,1.13C784.872,1476.02,785,1475.23,784.867,1475.13Z" transform="translate(-759 -1465)"/>
</svg>
