<svg xmlns="http://www.w3.org/2000/svg" width="110" height="20" viewBox="0 0 110 20">
  <defs>
    <style>
      .cls-1 {
        fill: #fff;
        fill-rule: evenodd;
      }
    </style>
  </defs>
  <path class="cls-1" d="M749.657,2629.55a1.218,1.218,0,0,1-.6.19H744.7l2.781-6.7,1.975,4.89,0.029,0.06,0.138,0.34c0.049,0.11.088,0.21,0.123,0.31a1.665,1.665,0,0,1,.115.53A0.489,0.489,0,0,1,749.657,2629.55Zm5.446,5.64a6.148,6.148,0,0,1-1.209-2.15l-5.564-13.82h-0.424l-4.53,11.02-0.195.47-0.9,2.18a7.579,7.579,0,0,1-1.33,2.38,2.679,2.679,0,0,1-1.289.47v0.46H744.7v-0.46a2.955,2.955,0,0,1-1.509-.36,0.872,0.872,0,0,1-.35-0.67,4.134,4.134,0,0,1,.41-1.45l0.269-.64a5.253,5.253,0,0,1,.881-1.46,2.251,2.251,0,0,1,1.266-.49l0.429-.02h4.415l0.966,2.39a5.2,5.2,0,0,1,.471,1.68,0.855,0.855,0,0,1-.333.69,2.23,2.23,0,0,1-1.293.33v0.46h6.308v-0.46A2.428,2.428,0,0,1,755.1,2635.19Zm-42.118-5.64a1.214,1.214,0,0,1-.6.19h-4.362l2.782-6.7,1.977,4.89,0.025,0.06,0.141,0.34c0.047,0.11.087,0.21,0.121,0.31a1.665,1.665,0,0,1,.115.53A0.486,0.486,0,0,1,712.985,2629.55Zm5.446,5.64a6.164,6.164,0,0,1-1.209-2.15l-5.563-13.82h-0.424l-4.531,11.02-0.195.47-0.895,2.18a7.632,7.632,0,0,1-1.333,2.38,2.67,2.67,0,0,1-1.288.47v0.46h5.035v-0.46a2.952,2.952,0,0,1-1.507-.36,0.866,0.866,0,0,1-.35-0.67,4.142,4.142,0,0,1,.408-1.45l0.269-.64a5.225,5.225,0,0,1,.883-1.46,2.234,2.234,0,0,1,1.266-.49l0.428-.02h4.416l0.964,2.39a5.189,5.189,0,0,1,.47,1.68,0.852,0.852,0,0,1-.33.69,2.243,2.243,0,0,1-1.3.33v0.46h6.309v-0.46A2.426,2.426,0,0,1,718.431,2635.19Zm87.923,1.15a7.143,7.143,0,0,1-6.146-3.06,9.034,9.034,0,0,1-1.624-5.35,9.9,9.9,0,0,1,1.063-4.55,7.953,7.953,0,0,1,2.95-3.23,7.759,7.759,0,0,1,4.1-1.15,7.369,7.369,0,0,1,3.413.88,1.542,1.542,0,0,0,.657.26,0.715,0.715,0,0,0,.482-0.19,1.789,1.789,0,0,0,.385-0.86l0.02-.09h0.6l0.379,5.79h-0.549l-0.02-.08a7,7,0,0,0-2.026-3.54,4.785,4.785,0,0,0-3.147-1.08,4.97,4.97,0,0,0-2.784.81,5.407,5.407,0,0,0-1.953,2.59,12.059,12.059,0,0,0-.72,4.47,9.717,9.717,0,0,0,.681,3.8,5.216,5.216,0,0,0,2.026,2.45,5.727,5.727,0,0,0,3.083.85,5.258,5.258,0,0,0,2.666-.67,9.126,9.126,0,0,0,2.55-2.68l0.061-.08,0.508,0.35-0.047.09a8.587,8.587,0,0,1-2.8,3.24,6.952,6.952,0,0,1-3.8,1.03h0Zm-76.738-16c-1.476,0-1.694.4-1.8,3.3-0.264,7.51-1.7,9.63-2.655,11.03l-0.143.21h5.8c1.288-.06,2.091-0.45,2.113-2.24l0-10.42a1.929,1.929,0,0,0-.42-1.41,2.257,2.257,0,0,0-1.682-.48h-0.439c-0.142.01-.283,0.01-0.417,0.01h-0.36Zm-8.307,14.54h0.1s1.332,0.03,1.812.03h0.047c0.352-.01,1.647-1.6,2.285-3.77a23.093,23.093,0,0,0,1.036-8.05c-0.033-2.83-.4-3.09-2.259-3.16h-0.1v-0.69l13.788-.01v0.7h-0.106c-1.712,0-2.319.34-2.318,2.27l0,10.83c0,0.88.29,1.83,0.927,1.83,0.535,0,1.464.02,1.464,0.02h0.1l0.187,4.12h-0.66l-0.007-.05-0.041-.1a4.433,4.433,0,0,0-.316-1.39,2.3,2.3,0,0,0-.922-0.99,3.278,3.278,0,0,0-1.548-.32h-9.944a5.051,5.051,0,0,0-1.554.17,2.086,2.086,0,0,0-1.006.85,1.86,1.86,0,0,0-.18.33,4.2,4.2,0,0,0-.282,1.35l-0.008.1h-0.029l0,0.06h-0.665l0.2-4.13h0Zm69.987-5.33a1.215,1.215,0,0,1-.6.19h-4.359l2.781-6.7,1.975,4.89,0.029,0.06,0.135,0.34c0.05,0.11.091,0.21,0.127,0.31a1.716,1.716,0,0,1,.114.53A0.488,0.488,0,0,1,791.3,2629.55Zm5.445,5.64a6.2,6.2,0,0,1-1.205-2.15l-5.567-13.82h-0.422l-4.529,11.02-0.2.47-0.9,2.18a7.594,7.594,0,0,1-1.332,2.38,2.669,2.669,0,0,1-1.287.47v0.46h5.036v-0.46a2.943,2.943,0,0,1-1.507-.36,0.868,0.868,0,0,1-.356-0.67,4.185,4.185,0,0,1,.411-1.45l0.27-.64a5.171,5.171,0,0,1,.886-1.46,2.224,2.224,0,0,1,1.264-.49l0.427-.02h4.419l0.964,2.39a5.189,5.189,0,0,1,.467,1.68,0.857,0.857,0,0,1-.329.69,2.251,2.251,0,0,1-1.3.33v0.46h6.312v-0.46a2.435,2.435,0,0,1-1.531-.55h0Zm-28.566,1.01-6.32-14.29v11.35a3.5,3.5,0,0,0,.329,1.94,1.728,1.728,0,0,0,1.41.53h0.566v0.47h-5.69v-0.47h0.585a1.62,1.62,0,0,0,1.468-.65,3.808,3.808,0,0,0,.267-1.82v-11.08a4.12,4.12,0,0,0-.237-1.64,1.432,1.432,0,0,0-.623-0.6,3.144,3.144,0,0,0-1.46-.25v-0.47H763.1l5.942,13.29,5.829-13.29h4.624v0.47h-0.568a1.66,1.66,0,0,0-1.485.65,4.182,4.182,0,0,0-.251,1.84v11.08a3.549,3.549,0,0,0,.326,1.94,1.763,1.763,0,0,0,1.41.53h0.568v0.47h-6.932v-0.47h0.568a1.6,1.6,0,0,0,1.467-.65,3.734,3.734,0,0,0,.273-1.82v-11.35l-6.307,14.29h-0.388Z" transform="translate(-703 -2619)"/>
</svg>
