<svg xmlns="http://www.w3.org/2000/svg" width="114" height="28" viewBox="0 0 114 28">
  <defs>
    <style>
      .cls-1 {
        fill: #fff;
        fill-rule: evenodd;
      }
    </style>
  </defs>
  <path class="cls-1" d="M792.642,1549.49v-10.38h2.76v3.93h0.2l2.522-3.93h3.159l-2.943,4.58,3.384,5.38v0.42h-3.009l-2.274-3.98h-1.076v3.96l-2.722.02h0Zm-86.353-6.25,1.214,2.71h-1.22l-0.95,2.24h3.037l0.619,1.3h2.616v-0.39l-4.731-10.05H705.72L701,1549.1v0.39h2.622l2.667-6.25h0Zm17.532-4.13h0.961v10.38h-2.76v-4.62l-2.253,2.31h-0.3l-2.209-2.31v4.62H714.5v-10.38h0.994l4.124,4.49Zm11.55,2.4h-3.9v1.46h3.576v2.35h-3.576v1.82h4.03v2.35H728.8v-10.35h6.575v2.37Zm7.833,7.98h-3.969v-10.35H743.2c6.862,0.03,6.862,10.31,0,10.35h0Zm-1.281-2.41H743.2c3.356,0,3.356-5.53,0-5.53h-1.281v5.53h0Zm14.917,0.06v2.32H751.5v-2.32h1.336v-5.69h-1.231v-2.31h5.151v2.31H755.5v5.69h1.341Zm10.175,1.04h-4.152l-0.613,1.31h-2.633v-0.39l4.737-10.1h1.159l4.748,10.09v0.39h-2.633l-0.613-1.3h0Zm-2.093-4.98-1.186,2.72h2.407l-1.22-2.72h0Zm6.395-1.69v-2.37h7.822v2.37h-2.572v7.98h-2.661v-7.98h-2.589Zm17.781,0h-3.892v1.46h3.572v2.35H785.2v1.82h4.029v2.35h-6.707v-10.35h6.569Zm23.264,7.98H815v-0.39l-4.742-10.1H809.1l-4.753,10.1v0.39H807l0.623-1.31h3.048l-0.955-2.25h-1.226l1.219-2.72,2.656,6.28h0Zm-18.506,7.65a0.619,0.619,0,0,1,1.237-.01,0.62,0.62,0,0,1-.613.62h-0.006a0.614,0.614,0,0,1-.618-0.6v-0.01Zm0.618,0.51a0.5,0.5,0,1,0,.023-1,0.5,0.5,0,0,0-.519.49h0a0.486,0.486,0,0,0,.475.5h0.021v0.01h0Zm-0.127-.15h-0.1v-0.7h0.27c0.166,0,.248.06,0.248,0.19a0.177,0.177,0,0,1-.172.19h-0.01l0.2,0.31h-0.122l-0.188-.3h-0.122v0.31Zm0.127-.39c0.089,0,.171,0,0.171-0.12s-0.077-.1-0.154-0.1h-0.144v0.22h0.127Zm-17.809,9.84h-2.86v-4.01h-1.854v4.01H769V1556.6h2.949v3.85h1.854v-3.85h2.86v10.35Zm13.106,0.05a5.285,5.285,0,1,0-4.825-7.58,3.034,3.034,0,0,0-2.793-2.82h-4.881v10.35h4.549a3.15,3.15,0,0,0,3.142-2.91,5.361,5.361,0,0,0,4.807,2.96h0Zm-8.342-4.21a0.884,0.884,0,0,1,0,1.75h-1.446v-1.75h1.446Zm0-3.88a0.878,0.878,0,0,1,0,1.74h-1.446v-1.74h1.446Zm1.927,2.79a2.284,2.284,0,0,0,1.1-.66,4.763,4.763,0,0,0,0,1.45,2.015,2.015,0,0,0-1.1-.79h0Zm3.732,0a2.674,2.674,0,1,0,.006,0h-0.006Zm2.677,2.07a2.075,2.075,0,1,0-2.092-2.09v0.02a2.087,2.087,0,0,0,2.1,2.06Zm-64.071-1.76h-4.108v3.03h-0.657v-6.58h0.657v2.9h4.108v-2.9h0.657v6.58h-0.657v-3.03Zm5.581-3.64a3.283,3.283,0,0,1,3.359,3.21c0,0.06,0,.13,0,0.2a3.357,3.357,0,0,1-6.712.14c0-.05,0-0.09,0-0.14a3.284,3.284,0,0,1,3.149-3.41h0.207Zm0,6.12a2.616,2.616,0,0,0,2.669-2.55c0-.06,0-0.11,0-0.16A2.667,2.667,0,1,0,731.275,1564.49Zm4.93-6.03h0.679l2.655,3.46,2.545-3.46h0.629v6.58h-0.667v-5.54l-2.523,3.37h-0.094l-2.572-3.35v5.52h-0.652v-6.58h0Zm8.612,0h3.864v0.65h-3.2v2.28h2.915v0.65h-2.92v2.36h3.313v0.64h-3.97v-6.58h0Zm11.333-.09a3.289,3.289,0,0,1,3.372,3.19c0,0.08,0,.15,0,0.22a3.357,3.357,0,0,1-6.713.01v-0.01a3.284,3.284,0,0,1,3.149-3.41h0.2Zm0,6.12a2.61,2.61,0,0,0,2.67-2.55c0-.05,0-0.1,0-0.16A2.667,2.667,0,1,0,756.15,1564.49Zm4.925-6.03h3.864v0.65h-3.213v2.47h2.932v0.65h-2.932v2.81h-0.651v-6.58Z" transform="translate(-701 -1539)"/>
</svg>
