<svg xmlns="http://www.w3.org/2000/svg" width="114" height="90" viewBox="0 0 114 90">
  <defs>
    <style>
      .cls-1 {
        fill: #fff;
        fill-rule: evenodd;
      }
    </style>
  </defs>
  <path class="cls-1" d="M775.656,1074.5a14.27,14.27,0,0,1,6.791-12,14.509,14.509,0,0,0-11.513-6.24c-4.828-.54-9.5,2.93-11.99,2.93s-6.314-2.88-10.4-2.77a15.394,15.394,0,0,0-12.893,7.89c-5.57,9.71-1.432,23.95,3.927,31.74,2.652,3.84,5.783,8.11,9.868,7.95,3.979-.16,5.464-2.56,10.292-2.56,4.775,0,6.155,2.56,10.346,2.45,4.3-.05,7-3.84,9.55-7.73a31.525,31.525,0,0,0,4.351-8.96,13.875,13.875,0,0,1-8.33-12.7h0Zm-7.852-23.42a14.124,14.124,0,0,0,3.183-10.08,14.411,14.411,0,0,0-9.231,4.8c-1.963,2.35-3.767,6.14-3.29,9.71C761.968,1055.78,765.576,1053.75,767.8,1051.08Zm-58.626,77.03h-1.651l-0.912-2.91h-3.146l-0.865,2.91H701l3.114-9.9h1.934Zm-2.831-4.13-0.818-2.59c-0.094-.25-0.251-0.88-0.487-1.86H705.01c-0.094.42-.251,1.04-0.456,1.86l-0.8,2.59h2.6Zm10.836,0.47a4.081,4.081,0,0,1-.975,2.87,2.807,2.807,0,0,1-2.155.95,2.158,2.158,0,0,1-2-1.01V1131h-1.541v-7.7c0-.75-0.016-1.54-0.063-2.34h1.368l0.095,1.12h0.031a2.583,2.583,0,0,1,2.359-1.28,2.612,2.612,0,0,1,2.06.99,4.153,4.153,0,0,1,.818,2.66h0Zm-1.573.06a3.064,3.064,0,0,0-.456-1.72,1.615,1.615,0,0,0-2.39-.32,1.756,1.756,0,0,0-.614,1.03,2.582,2.582,0,0,0-.078.48v1.19a1.952,1.952,0,0,0,.472,1.32,1.565,1.565,0,0,0,1.211.53,1.591,1.591,0,0,0,1.368-.69A3.041,3.041,0,0,0,715.61,1124.51Zm9.625-.06a4.081,4.081,0,0,1-.975,2.87,2.8,2.8,0,0,1-2.154.95,2.159,2.159,0,0,1-2-1.01V1131h-1.557v-7.7c0-.75-0.015-1.54-0.063-2.34h1.369l0.094,1.12h0.031a2.584,2.584,0,0,1,2.359-1.28,2.615,2.615,0,0,1,2.061.99A4.165,4.165,0,0,1,725.235,1124.45Zm-1.588.06a3.064,3.064,0,0,0-.456-1.72,1.616,1.616,0,0,0-2.391-.32,1.755,1.755,0,0,0-.613,1.03,2.137,2.137,0,0,0-.079.48v1.19a1.957,1.957,0,0,0,.472,1.32,1.568,1.568,0,0,0,1.211.53,1.591,1.591,0,0,0,1.368-.69A3.034,3.034,0,0,0,723.647,1124.51Zm10.568,0.82a2.671,2.671,0,0,1-.865,2.06,3.8,3.8,0,0,1-2.642.86,4.7,4.7,0,0,1-2.516-.61l0.362-1.31a4.262,4.262,0,0,0,2.249.61,2.05,2.05,0,0,0,1.368-.41,1.3,1.3,0,0,0,.487-1.07,1.387,1.387,0,0,0-.409-1.01,3.789,3.789,0,0,0-1.336-.78c-1.7-.64-2.548-1.59-2.548-2.84a2.489,2.489,0,0,1,.9-1.99,3.5,3.5,0,0,1,2.375-.77,4.793,4.793,0,0,1,2.2.46l-0.393,1.29a3.7,3.7,0,0,0-1.856-.45,1.862,1.862,0,0,0-1.29.42,1.208,1.208,0,0,0-.393.9,1.191,1.191,0,0,0,.44.96,5.052,5.052,0,0,0,1.416.77,4.634,4.634,0,0,1,1.84,1.21A2.35,2.35,0,0,1,734.215,1125.33Zm5.143-3.17h-1.714v3.47c0,0.89.3,1.32,0.912,1.32a2.012,2.012,0,0,0,.692-0.08l0.047,1.21a3.61,3.61,0,0,1-1.211.17,1.8,1.8,0,0,1-1.431-.58,2.832,2.832,0,0,1-.519-1.92v-3.6h-1.022v-1.19h1.022v-1.3l1.525-.47v1.79h1.715Zm7.706,2.32a3.984,3.984,0,0,1-.928,2.7,3.274,3.274,0,0,1-2.563,1.09,3.1,3.1,0,0,1-2.454-1.05,3.814,3.814,0,0,1-.912-2.63,3.9,3.9,0,0,1,.944-2.71,3.225,3.225,0,0,1,2.532-1.07,3.165,3.165,0,0,1,2.469,1.05A3.754,3.754,0,0,1,747.064,1124.48Zm-1.6.03a3.361,3.361,0,0,0-.409-1.69,1.545,1.545,0,0,0-1.4-.85,1.575,1.575,0,0,0-1.431.85,3.291,3.291,0,0,0-.409,1.72,3.361,3.361,0,0,0,.409,1.69,1.582,1.582,0,0,0,2.815-.02A3.27,3.27,0,0,0,745.46,1124.51Zm6.652-2.15a2.015,2.015,0,0,0-.487-0.05,1.424,1.424,0,0,0-1.258.63,2.411,2.411,0,0,0-.393,1.41v3.74h-1.557v-4.88c0-.76-0.016-1.5-0.048-2.25h1.353l0.063,1.36h0.047a2.387,2.387,0,0,1,.771-1.12,1.929,1.929,0,0,1,1.116-.39,2.408,2.408,0,0,1,.393.04v1.51Zm6.952,1.84a3.762,3.762,0,0,1-.063.73h-4.655a2.069,2.069,0,0,0,.676,1.62,2.233,2.233,0,0,0,1.525.5,4.978,4.978,0,0,0,1.888-.34l0.236,1.09a5.814,5.814,0,0,1-2.344.44,3.3,3.3,0,0,1-2.548-.98,3.7,3.7,0,0,1-.927-2.62,4.059,4.059,0,0,1,.865-2.68,2.9,2.9,0,0,1,2.437-1.15,2.571,2.571,0,0,1,2.281,1.15,3.789,3.789,0,0,1,.629,2.24h0Zm-1.479-.41a2.17,2.17,0,0,0-.3-1.22,1.329,1.329,0,0,0-1.243-.66,1.476,1.476,0,0,0-1.242.64,2.425,2.425,0,0,0-.456,1.24h3.239Zm20.732-4.69a1.075,1.075,0,0,1-1.135,1.09,1.1,1.1,0,1,1,.013-2.19A1.07,1.07,0,0,1,778.317,1119.1Zm-2.173,8.96v-7.01h2.1v7.01h-2.1Zm5.661-7.83h-2.5v-1.83h7.171v1.83h-2.547v7.83h-2.119v-7.83Zm11.351,5.58c0,0.91.028,1.66,0.055,2.25h-1.827l-0.1-.99h-0.042a2.4,2.4,0,0,1-2.119,1.14c-1.37,0-2.381-.88-2.381-3.05v-4.11h2.119v3.77c0,1.02.318,1.63,1.052,1.63a1.129,1.129,0,0,0,1.052-.76,1.278,1.278,0,0,0,.068-0.47v-4.17h2.119v4.76h0Zm1.688-2.53c0-.87-0.027-1.61-0.055-2.23h1.828l0.1,0.96h0.043a2.467,2.467,0,0,1,2.09-1.12c1.384,0,2.422.95,2.422,3.01v4.16h-2.1v-3.89c0-.9-0.3-1.52-1.066-1.52a1.132,1.132,0,0,0-1.065.82,1.572,1.572,0,0,0-.083.54v4.04h-2.1v-4.77h0Zm9.732,1.97a1.663,1.663,0,0,0,1.91,1.33,5.672,5.672,0,0,0,1.869-.29l0.277,1.48a6.412,6.412,0,0,1-2.451.44,3.312,3.312,0,0,1-3.613-3.58,3.461,3.461,0,0,1,3.419-3.74c2.188,0,3.018,1.76,3.018,3.5a5.66,5.66,0,0,1-.068.86h-4.361Zm2.478-1.49a1.255,1.255,0,0,0-1.191-1.42,1.412,1.412,0,0,0-1.3,1.42h2.493Zm3.2,2.39a4.058,4.058,0,0,0,1.814.53c0.637,0,.9-0.23.9-0.59s-0.208-.53-1-0.8c-1.4-.49-1.939-1.27-1.924-2.09,0-1.32,1.079-2.31,2.755-2.31a4.48,4.48,0,0,1,1.91.4l-0.374,1.51a3.26,3.26,0,0,0-1.467-.4,0.65,0.65,0,0,0-.8.57c0,0.33.263,0.5,1.094,0.8,1.287,0.46,1.827,1.13,1.841,2.16,0,1.31-1,2.28-2.935,2.28a4.607,4.607,0,0,1-2.187-.5l0.373-1.56h0Zm-37.758,2.12c-0.414-.43-0.774-0.81-1.079-1.13s-0.557-.58-0.758-0.8a4.95,4.95,0,0,0,1.162-3.27h-1.355a4.523,4.523,0,0,1-.047.63,5.051,5.051,0,0,1-.131.62,4.867,4.867,0,0,1-.2.57,3.752,3.752,0,0,1-.257.49c-0.37-.39-0.734-0.77-1.092-1.15s-0.714-.77-1.066-1.15a7.069,7.069,0,0,0,.972-0.57,3.062,3.062,0,0,0,.642-0.6,2.1,2.1,0,0,0,.354-0.67,2.758,2.758,0,0,0,.11-0.8,1.975,1.975,0,0,0-.668-1.5,2.338,2.338,0,0,0-.772-0.43,2.9,2.9,0,0,0-1-.16,3.092,3.092,0,0,0-1.072.18,2.577,2.577,0,0,0-.845.48,2.275,2.275,0,0,0-.551.74,2.23,2.23,0,0,0-.2.94,3.84,3.84,0,0,0,1.008,2.26c-1.46.76-2.19,1.71-2.19,2.83a2.607,2.607,0,0,0,.223,1.09,2.526,2.526,0,0,0,.635.84,3.011,3.011,0,0,0,.992.54,4.378,4.378,0,0,0,1.3.19,4.842,4.842,0,0,0,.849-0.08,4.41,4.41,0,0,0,.811-0.22,3.965,3.965,0,0,0,.742-0.35,3.665,3.665,0,0,0,.638-0.46l0.875,0.94h1.97Zm-5.551-5.98a2.8,2.8,0,0,1-.875-1.62,1.209,1.209,0,0,1,.09-0.48,1.132,1.132,0,0,1,.254-0.38,1.115,1.115,0,0,1,.394-0.25,1.644,1.644,0,0,1,.511-0.08,1.07,1.07,0,0,1,.4.08,1.081,1.081,0,0,1,.327.24,1.038,1.038,0,0,1,.224.34,1.05,1.05,0,0,1,.084.42,2.1,2.1,0,0,1-1.41,1.73h0Zm-0.233,4.93a2.085,2.085,0,0,1-.672-0.11,1.617,1.617,0,0,1-.537-0.31,1.452,1.452,0,0,1-.358-0.5,1.524,1.524,0,0,1-.13-0.65,1.711,1.711,0,0,1,.324-1.03,3.132,3.132,0,0,1,1.059-.83c1.108,1.22,1.923,2.11,2.444,2.65a3.086,3.086,0,0,1-2.13.78h0Z" transform="translate(-701 -1041)"/>
</svg>
