<svg xmlns="http://www.w3.org/2000/svg" width="18" height="22" viewBox="0 0 18 22">
  <defs>
    <style>
      .cls-1 {
        fill: #4a40fd;
        fill-rule: evenodd;
      }
    </style>
  </defs>
  <path id="Rounded_Rectangle_6" data-name="Rounded Rectangle 6" class="cls-1" d="M860,2138h-2v2a2,2,0,0,1-2,2H846a2,2,0,0,1-2-2v-14a2,2,0,0,1,2-2h2v-2a2,2,0,0,1,2-2h10a2,2,0,0,1,2,2v14A2,2,0,0,1,860,2138Zm-12-2v-10h-1a1,1,0,0,0-1,1v12a1,1,0,0,0,1,1h8a1,1,0,0,0,1-1v-1h-6A2,2,0,0,1,848,2136Zm12-13a1,1,0,0,0-1-1h-8a1,1,0,0,0-1,1v12a1,1,0,0,0,1,1h8a1,1,0,0,0,1-1v-12Z" transform="translate(-844 -2120)"/>
</svg>
