<svg xmlns="http://www.w3.org/2000/svg" width="114" height="18" viewBox="0 0 114 18">
  <defs>
    <style>
      .cls-1 {
        fill: #fff;
        fill-rule: evenodd;
      }
    </style>
  </defs>
  <path class="cls-1" d="M813.994,1255h-3.943l-5.929-8.73V1255h-4.367l-0.03-6.51a8.357,8.357,0,0,1-14.121,4V1255H775.5v-17.94h4.418v13.59h4.295a10.215,10.215,0,0,1-1.173-4.6,8.77,8.77,0,0,1,8.491-8.99,8.673,8.673,0,0,1,8.19,6.58l0.03-6.55,3.945-.03,5.962,8.35v-8.35H814Zm-22.459-13.52a4.575,4.575,0,1,0,4.367,4.57A4.477,4.477,0,0,0,791.535,1241.48ZM770.58,1255v-7.08h-5.149V1255h-4.365v-17.94H765.4l0.033,6.7h5.119l0.03-6.69,4.336-.01V1255H770.58Zm4.336-17.94h0ZM757.092,1255h-4.336v-13.75h-3.372v-4.16l11.078-.03v4.19h-3.37V1255Zm-12.677-2.7h-5a8.427,8.427,0,0,1-6.081,2.7,8.759,8.759,0,0,1-8.492-8.95,8.932,8.932,0,0,1,15.626-6.03l-2.167,3.49a5.878,5.878,0,0,0-4.246-1.88,6.463,6.463,0,0,0-.738.07,4.372,4.372,0,0,0-.016,8.73,4.106,4.106,0,0,0,3.464-1.94l7.256-11.43h4.759V1255h-4.337Zm0-7.46-2.377,3.52h2.407Zm-24.815,5.81h5.12l0.009,4.35h-9.884v-6.13a8.7,8.7,0,0,1-7.317,6.13H700v-17.93l7.5,0.02a8.7,8.7,0,0,1,7.347,6.16v-6.16l9.875-.02,0.009,4.41H719.6v2.28h4.645l0.008,4.38H719.6v2.51h0Zm-9.543-7.27a2.677,2.677,0,0,0-2.529-2.13h-2.769v9.62h2.769a2.694,2.694,0,0,0,2.529-2.09,9.2,9.2,0,0,0,.422-2.73A8.812,8.812,0,0,0,710.057,1243.38Z" transform="translate(-700 -1237)"/>
</svg>
