<svg xmlns="http://www.w3.org/2000/svg" width="112" height="35.97" viewBox="0 0 112 35.97">
  <defs>
    <style>
      .cls-1 {
        fill: #00c2fc;
      }

      .cls-1, .cls-2, .cls-3, .cls-4, .cls-5 {
        fill-rule: evenodd;
      }

      .cls-2 {
        fill: #06c92e;
      }

      .cls-3 {
        fill: #fabc22;
      }

      .cls-4 {
        fill: #f72a16;
      }

      .cls-5 {
        fill: #fff;
      }
    </style>
  </defs>
  <path id="Shape_14_copy_4" data-name="Shape 14 copy 4" class="cls-1" d="M941.36,2464.28a20.942,20.942,0,0,1-1.539,3.39,2.039,2.039,0,0,1-2.162,1,23.114,23.114,0,0,1-3.486-1,24.363,24.363,0,0,1-3.316-1.47,2.054,2.054,0,0,1-1.026-2.16,21.121,21.121,0,0,1,.972-3.6,21.453,21.453,0,0,1,1.539-3.39,2.04,2.04,0,0,1,2.163-1,26.427,26.427,0,0,1,6.8,2.47,2.069,2.069,0,0,1,1.025,2.16A20.789,20.789,0,0,1,941.36,2464.28Z" transform="translate(-858 -2456.03)"/>
  <path id="Shape_14_copy_3" data-name="Shape 14 copy 3" class="cls-2" d="M926.773,2460.42a21.208,21.208,0,0,1,.987,3.59,2.06,2.06,0,0,1-1.014,2.16,24,24,0,0,1-3.307,1.48,23.533,23.533,0,0,1-3.473,1.02,2.023,2.023,0,0,1-2.164-.99,20.361,20.361,0,0,1-1.552-3.38,20.65,20.65,0,0,1-.988-3.59,2.062,2.062,0,0,1,1.014-2.16,24,24,0,0,1,3.305-1.48,24.9,24.9,0,0,1,3.476-1.02,2.051,2.051,0,0,1,2.163.99A21.346,21.346,0,0,1,926.773,2460.42Z" transform="translate(-858 -2456.03)"/>
  <path id="Shape_14_copy_2" data-name="Shape 14 copy 2" class="cls-3" d="M912.219,2464.28a20.942,20.942,0,0,1-1.539,3.39,2.039,2.039,0,0,1-2.162,1,23.108,23.108,0,0,1-3.485-1,24.387,24.387,0,0,1-3.317-1.47,2.055,2.055,0,0,1-1.026-2.16,21.144,21.144,0,0,1,.973-3.6,21.362,21.362,0,0,1,1.539-3.39,2.039,2.039,0,0,1,2.162-1,26.452,26.452,0,0,1,6.8,2.47,2.07,2.07,0,0,1,1.025,2.16A20.811,20.811,0,0,1,912.219,2464.28Z" transform="translate(-858 -2456.03)"/>
  <path id="Shape_14_copy" data-name="Shape 14 copy" class="cls-4" d="M897.632,2460.42a21.231,21.231,0,0,1,.988,3.59,2.062,2.062,0,0,1-1.015,2.16,24,24,0,0,1-3.307,1.48,23.533,23.533,0,0,1-3.473,1.02,2.024,2.024,0,0,1-2.164-.99,20.444,20.444,0,0,1-1.552-3.38,20.742,20.742,0,0,1-.988-3.59,2.062,2.062,0,0,1,1.015-2.16,23.98,23.98,0,0,1,3.3-1.48,24.87,24.87,0,0,1,3.477-1.02,2.051,2.051,0,0,1,2.162.99A21.166,21.166,0,0,1,897.632,2460.42Z" transform="translate(-858 -2456.03)"/>
  <path class="cls-5" d="M969.65,2485.1a4.808,4.808,0,0,1-.979,1.59,4.617,4.617,0,0,1-1.519,1.08,5.071,5.071,0,0,1-1.985.38,5.467,5.467,0,0,1-.907-0.07,3.571,3.571,0,0,1-.773-0.21v3.36H963.5a0.746,0.746,0,0,1-.215.55,0.721,0.721,0,0,1-.539.23h-1.474a0.721,0.721,0,0,1-.539-0.23,0.746,0.746,0,0,1-.215-0.55v-11.78a0.746,0.746,0,0,1,.215-0.55,0.721,0.721,0,0,1,.539-0.23h1.581a0.625,0.625,0,0,1,.468.2,0.65,0.65,0,0,1,.188.48,3.416,3.416,0,0,1,1.015-.65,3.974,3.974,0,0,1,3.118.08,3.472,3.472,0,0,1,1.266.98,5.045,5.045,0,0,1,.809,1.5,6.006,6.006,0,0,1,.287,1.89A5.379,5.379,0,0,1,969.65,2485.1Zm-3.288-3.26a1.583,1.583,0,0,0-1.312-.55,2.083,2.083,0,0,0-1.554.82v2.82a2.338,2.338,0,0,0,.629.28,3.809,3.809,0,0,0,.773.07,1.7,1.7,0,0,0,1.446-.61,2.344,2.344,0,0,0,.467-1.47A2.124,2.124,0,0,0,966.362,2481.84Zm-8.822,6.06h-1.473a0.711,0.711,0,0,1-.539-0.22,0.759,0.759,0,0,1-.216-0.55v-4.05l-2.856,4.32a1.93,1.93,0,0,1-.369.37,0.9,0.9,0,0,1-.485.14h-1.716a0.713,0.713,0,0,1-.539-0.22,0.762,0.762,0,0,1-.215-0.55v-7.68a0.786,0.786,0,0,1,.215-0.56,0.751,0.751,0,0,1,.539-0.22h1.474a0.751,0.751,0,0,1,.539.22,0.786,0.786,0,0,1,.215.56v4.05l2.857-4.32a1.475,1.475,0,0,1,.359-0.37,0.856,0.856,0,0,1,.476-0.15h1.734a0.718,0.718,0,0,1,.539.23,0.743,0.743,0,0,1,.216.55v7.68a0.759,0.759,0,0,1-.216.55A0.71,0.71,0,0,1,957.54,2487.9Zm-11.364,0H944.7a0.713,0.713,0,0,1-.539-0.22,0.759,0.759,0,0,1-.216-0.55v-3.76l-1.706,1.97a0.664,0.664,0,0,1-.521.25,0.712,0.712,0,0,1-.521-0.22l-1.779-1.98v3.74h0.009a0.759,0.759,0,0,1-.216.55,0.71,0.71,0,0,1-.539.22H937.2a0.711,0.711,0,0,1-.539-0.22,0.759,0.759,0,0,1-.216-0.55v-7.68a0.743,0.743,0,0,1,.216-0.55,0.72,0.72,0,0,1,.539-0.23h1.419a1.169,1.169,0,0,1,.917.48l2.29,2.67,2.112-2.66a1.975,1.975,0,0,1,.395-0.36,0.93,0.93,0,0,1,.5-0.13h1.338a0.718,0.718,0,0,1,.539.23,0.743,0.743,0,0,1,.216.55v7.68a0.759,0.759,0,0,1-.216.55A0.71,0.71,0,0,1,946.176,2487.9Zm-16.691,0h-1.473a0.711,0.711,0,0,1-.539-0.22,0.759,0.759,0,0,1-.216-0.55v-4.05l-2.856,4.32a1.93,1.93,0,0,1-.369.37,0.9,0.9,0,0,1-.485.14h-1.715a0.71,0.71,0,0,1-.539-0.22,0.759,0.759,0,0,1-.216-0.55v-7.68a0.782,0.782,0,0,1,.216-0.56,0.748,0.748,0,0,1,.539-0.22h1.473a0.751,0.751,0,0,1,.539.22,0.782,0.782,0,0,1,.215.56v4.05l2.857-4.32a1.475,1.475,0,0,1,.359-0.37,0.857,0.857,0,0,1,.477-0.15h1.733a0.718,0.718,0,0,1,.539.23,0.743,0.743,0,0,1,.216.55v7.68a0.759,0.759,0,0,1-.216.55A0.71,0.71,0,0,1,929.485,2487.9Zm-3.755-10.1a4.043,4.043,0,0,1-2.407-.56,1.655,1.655,0,0,1-.728-1.36,1.331,1.331,0,0,1,.3-0.9,1.129,1.129,0,0,1,.9-0.35,1.068,1.068,0,0,1,.755.22,1.261,1.261,0,0,1,.341.55,1.318,1.318,0,0,0,.278.47,0.754,0.754,0,0,0,.557.17,0.643,0.643,0,0,0,.5-0.17,1.6,1.6,0,0,0,.261-0.47,1.136,1.136,0,0,1,.341-0.55,1.071,1.071,0,0,1,.746-0.22,1.162,1.162,0,0,1,.907.35,1.292,1.292,0,0,1,.306.9,1.637,1.637,0,0,1-.773,1.36A3.89,3.89,0,0,1,925.73,2477.8Zm-7.626,10.1H916.63a0.713,0.713,0,0,1-.539-0.22,0.758,0.758,0,0,1-.215-0.55v-4.05l-2.857,4.32a1.955,1.955,0,0,1-.368.37,0.9,0.9,0,0,1-.485.14H910.45a0.71,0.71,0,0,1-.539-0.22,0.759,0.759,0,0,1-.216-0.55v-7.68a0.782,0.782,0,0,1,.216-0.56,0.748,0.748,0,0,1,.539-0.22h1.473a0.75,0.75,0,0,1,.539.22,0.782,0.782,0,0,1,.216.56v4.05l2.856-4.32a1.461,1.461,0,0,1,.36-0.37,0.851,0.851,0,0,1,.476-0.15H918.1a0.718,0.718,0,0,1,.538.23,0.743,0.743,0,0,1,.216.55v7.68a0.759,0.759,0,0,1-.216.55A0.709,0.709,0,0,1,918.1,2487.9Zm-10.7.12c-0.107,0-.206.02-0.3,0.02a2.773,2.773,0,0,1-.3.01,3.923,3.923,0,0,1-.745-0.08,3.143,3.143,0,0,1-.782-0.3,3.2,3.2,0,0,1-.781-0.61,6.284,6.284,0,0,1-.791-1l-1.689-2.56v3.63a0.762,0.762,0,0,1-.215.55,0.713,0.713,0,0,1-.539.22H899.8a0.713,0.713,0,0,1-.539-0.22,0.762,0.762,0,0,1-.215-0.55v-7.68a0.746,0.746,0,0,1,.215-0.55,0.721,0.721,0,0,1,.539-0.23h1.474a0.721,0.721,0,0,1,.539.23,0.746,0.746,0,0,1,.215.55v3.24l2.318-3.51a1.207,1.207,0,0,1,.413-0.37,1.126,1.126,0,0,1,.53-0.15h1.4a0.729,0.729,0,0,1,.557.25,0.858,0.858,0,0,1,.215.56,0.806,0.806,0,0,1-.161.47l-2.112,2.87,0.98,1.38a2.1,2.1,0,0,0,1.078.89,1,1,0,0,1,.61.3,1.184,1.184,0,0,1,.153.68v1.25a0.7,0.7,0,0,1-.179.46A0.759,0.759,0,0,1,907.4,2488.02Zm-12.082-.11a5.622,5.622,0,0,1-1.518.23,5.7,5.7,0,0,1-2.067-.36,4.564,4.564,0,0,1-1.581-.98,4.352,4.352,0,0,1-1-1.55,5.426,5.426,0,0,1-.35-1.98,5.2,5.2,0,0,1,.341-1.89,4.57,4.57,0,0,1,2.48-2.6,5.044,5.044,0,0,1,1.931-.37,7.224,7.224,0,0,1,1.617.16,4.574,4.574,0,0,1,1.518.7,0.858,0.858,0,0,1,.44.73,0.677,0.677,0,0,1-.116.38l-0.575.99a0.822,0.822,0,0,1-1.123.3,2.945,2.945,0,0,0-1.375-.37,1.9,1.9,0,0,0-1.32.5,1.9,1.9,0,0,0-.449.63,1.941,1.941,0,0,0-.171.85,1.973,1.973,0,0,0,.18.85,1.993,1.993,0,0,0,.458.62,1.692,1.692,0,0,0,.629.39,1.938,1.938,0,0,0,.709.13,2.578,2.578,0,0,0,1.4-.45,0.964,0.964,0,0,1,.557-0.19,0.724,0.724,0,0,1,.619.34l0.62,0.84a0.793,0.793,0,0,1,.162.49,0.772,0.772,0,0,1-.323.65A4.723,4.723,0,0,1,895.322,2487.91Zm-8.022-6.16h-1.833v5.38a0.759,0.759,0,0,1-.216.55,0.71,0.71,0,0,1-.539.22h-1.491a0.713,0.713,0,0,1-.539-0.22,0.758,0.758,0,0,1-.215-0.55v-5.38h-1.833a0.711,0.711,0,0,1-.539-0.22,0.766,0.766,0,0,1-.216-0.56v-1.51a0.782,0.782,0,0,1,.216-0.56,0.75,0.75,0,0,1,.539-0.22H887.3a0.751,0.751,0,0,1,.539.22,0.786,0.786,0,0,1,.215.56v1.51a0.769,0.769,0,0,1-.215.56A0.713,0.713,0,0,1,887.3,2481.75Zm-8.534,2.37a0.626,0.626,0,0,1-.432.19h-5.39a1.642,1.642,0,0,0,.791.96,2.768,2.768,0,0,0,1.311.31,4.619,4.619,0,0,0,.881-0.07,3.67,3.67,0,0,0,.736-0.2,1.159,1.159,0,0,1,.441-0.09,0.74,0.74,0,0,1,.7.44l0.324,0.66a0.806,0.806,0,0,1,.081.36,0.735,0.735,0,0,1-.36.68,5.409,5.409,0,0,1-1.581.64,8.256,8.256,0,0,1-1.536.14,5.537,5.537,0,0,1-2.012-.35,4.2,4.2,0,0,1-1.527-.99,4.3,4.3,0,0,1-.98-1.54,5.426,5.426,0,0,1-.35-1.98,5.024,5.024,0,0,1,.35-1.89,4.717,4.717,0,0,1,.98-1.55,4.34,4.34,0,0,1,1.527-1.05,5.175,5.175,0,0,1,2.012-.37,4.548,4.548,0,0,1,1.644.3,4,4,0,0,1,1.383.89,4.457,4.457,0,0,1,.962,1.37,4.3,4.3,0,0,1,.359,1.79,5.3,5.3,0,0,1-.063.92A0.8,0.8,0,0,1,878.766,2484.12Zm-2.686-1.86a1.25,1.25,0,0,0-.369-0.87,1.393,1.393,0,0,0-1.087-.4,1.737,1.737,0,0,0-1.159.34,2.046,2.046,0,0,0-.619.94h3.234v-0.01Zm-7.789,7.7h-1.276a0.721,0.721,0,0,1-.539-0.23,0.746,0.746,0,0,1-.215-0.55v-1.28H860.79v1.28a0.743,0.743,0,0,1-.216.55,0.718,0.718,0,0,1-.539.23H858.76a0.718,0.718,0,0,1-.539-0.23,0.743,0.743,0,0,1-.216-0.55v-3.36a0.766,0.766,0,0,1,.216-0.56,0.71,0.71,0,0,1,.539-0.22h0.395a4.09,4.09,0,0,0,.458-0.84,7.587,7.587,0,0,0,.341-1.08c0.09-.39.171-0.8,0.234-1.21s0.1-.83.126-1.24l0.081-1.21a0.814,0.814,0,0,1,.251-0.56,0.788,0.788,0,0,1,.548-0.22H866.8a0.751,0.751,0,0,1,.539.22,0.786,0.786,0,0,1,.215.56v5.58h0.737a0.711,0.711,0,0,1,.539.22,0.766,0.766,0,0,1,.216.56v3.36a0.743,0.743,0,0,1-.216.55A0.72,0.72,0,0,1,868.291,2489.96Zm-3.728-8.41h-1.339l-0.036.37a10.543,10.543,0,0,1-.377,1.93,4.941,4.941,0,0,1-.521,1.19h2.273v-3.49Z" transform="translate(-858 -2456.03)"/>
</svg>
