<svg xmlns="http://www.w3.org/2000/svg" width="20" height="16" viewBox="0 0 20 16">
  <defs>
    <style>
      .cls-1 {
        fill: #4a40fd;
        fill-rule: evenodd;
      }
    </style>
  </defs>
  <path id="Forma_1" data-name="Forma 1" class="cls-1" d="M1894.63,3187h-15.26a2.313,2.313,0,0,0-2.37,2.25v11.5a2.313,2.313,0,0,0,2.37,2.25h15.26a2.32,2.32,0,0,0,2.37-2.25v-11.5A2.32,2.32,0,0,0,1894.63,3187Zm0,14.01h-15.26a0.331,0.331,0,0,1-.36-0.26v-10.11l6.9,5.75a0.775,0.775,0,0,0,.51.18h1.16a0.775,0.775,0,0,0,.51-0.18l6.9-5.75v10.11A0.331,0.331,0,0,1,1894.63,3201.01Zm-7.63-6.41-6.71-5.61h13.42Z" transform="translate(-1877 -3187)"/>
</svg>
