<svg xmlns="http://www.w3.org/2000/svg" width="22" height="18" viewBox="0 0 22 18">
  <defs>
    <style>
      .cls-1 {
        fill: #4a40fd;
        fill-rule: evenodd;
      }
    </style>
  </defs>
  <path id="Rounded_Rectangle_6_copy_3" data-name="Rounded Rectangle 6 copy 3" class="cls-1" d="M1790,3676a2.006,2.006,0,0,1-2,2h-18a2,2,0,0,1-2-2v-14a1.993,1.993,0,0,1,2-2h18a1.993,1.993,0,0,1,2,2v14Zm-3-14h-16v1h1v1h1v1h1v1h1v1h1v1h1v1h1v1h2v-1h1v-1h1v-1h1v-1h1v-1h1v-1h1v-1h1v-1h0Zm1,2v1h-1v1h-1v1h-1v1h-1v1h-1v1h-1v1h-1v1h-4v-1h-1v-1h-1v-1h-1v-1h-1v-1h-1v-1h-1v-1h-1v-1h0v11a1,1,0,0,0,1,1h16a1,1,0,0,0,1-1v-11h0Z" transform="translate(-1768 -3660)"/>
</svg>
