<svg id="En" xmlns="http://www.w3.org/2000/svg" width="32" height="32" viewBox="0 0 32 32">
  <defs>
    <style>
      .cls-1 {
        fill: #00166b;
      }

      .cls-1, .cls-2 {
        fill-rule: evenodd;
      }

      .cls-2 {
        fill: red;
      }
    </style>
  </defs>
  <path id="Color_Fill_2" data-name="Color Fill 2" class="cls-1" d="M959,170l-8.527-4.936a16.008,16.008,0,0,1,7-5.064H959v10Zm-8.657,14.762L959,180v10h-1.525A16.012,16.012,0,0,1,950.343,184.762ZM967,180l8.527,4.936a16.019,16.019,0,0,1-7,5.064H967V180Zm0-11v-9h1.524a16.008,16.008,0,0,1,6.69,4.677Z" transform="translate(-947 -159)"/>
  <path id="Color_Fill_1" data-name="Color Fill 1" class="cls-2" d="M977.862,169.1l-3.6,1.891H968l8.511-4.532A15.978,15.978,0,0,1,977.862,169.1Zm-1.082,14-7.768-4.09h5.382l3.5,1.788A15.89,15.89,0,0,1,976.78,183.1Zm-27.455.173a15.824,15.824,0,0,1-1.232-2.5l3.346-1.792,5.56,0.025Zm-0.5-15.675,7.166,3.389h-5.382l-2.7-1.257A15.877,15.877,0,0,1,948.822,167.6ZM963,159a16.094,16.094,0,0,1,2,.138V173l13.891,0.193a15.033,15.033,0,0,1,0,3.614L965,177v13.862a14.562,14.562,0,0,1-4,0V177H947.138a14.562,14.562,0,0,1,0-4H961V159.138A16.094,16.094,0,0,1,963,159Z" transform="translate(-947 -159)"/>
</svg>
