<svg xmlns="http://www.w3.org/2000/svg" width="36" height="30" viewBox="0 0 36 30">
  <defs>
    <style>
      .cls-1 {
        fill-rule: evenodd;
      }
    </style>
  </defs>
  <path id="Rounded_Rectangle_18" data-name="Rounded Rectangle 18" class="cls-1" d="M256,2215h-2v1a3,3,0,0,1-3,3h-2v1a3,3,0,0,1-3,3H226a3,3,0,0,1-3-3v-16a3,3,0,0,1,3-3h2v-1a3,3,0,0,1,3-3h2v-1a3,3,0,0,1,3-3h20a3,3,0,0,1,3,3v16A3,3,0,0,1,256,2215Zm-28,1v-13h-2a1,1,0,0,0-1,1v16a1,1,0,0,0,1,1h20a1,1,0,0,0,1-1v-1H231A3,3,0,0,1,228,2216Zm5-4v-13h-2a1,1,0,0,0-1,1v16a1,1,0,0,0,1,1h20a1,1,0,0,0,1-1v-1H236A3,3,0,0,1,233,2212Zm24-12h-5a1,1,0,0,0-1,1v6a1,1,0,0,0,1,1h5v-8Zm0,10h-5a3,3,0,0,1-3-3v-6a3,3,0,0,1,3-3h5v-2a1,1,0,0,0-1-1H236a1,1,0,0,0-1,1v16a1,1,0,0,0,1,1h20a1,1,0,0,0,1-1v-2Zm-5-8h1v4h-1v-4Z" transform="translate(-223 -2193)"/>
</svg>
