<svg id="Group_15_copy" data-name="Group 15 copy" xmlns="http://www.w3.org/2000/svg" width="36" height="30" viewBox="0 0 36 30">
  <defs>
    <style>
      .cls-1, .cls-2 {
        fill-rule: evenodd;
      }

      .cls-2 {
        fill: #85d2b0;
      }
    </style>
  </defs>
  <path id="Rounded_Rectangle_18" data-name="Rounded Rectangle 18" class="cls-1" d="M256,3098h-2v1a3,3,0,0,1-3,3h-2v1a3,3,0,0,1-3,3H226a3,3,0,0,1-3-3v-16a3,3,0,0,1,3-3h2v-1a3,3,0,0,1,3-3h2v-1a3,3,0,0,1,3-3h20a3,3,0,0,1,3,3v16A3,3,0,0,1,256,3098Zm1-15h-5a1,1,0,0,0-1,1v6a1,1,0,0,0,1,1h5v-8Zm-5,2h1v4h-1v-4Z" transform="translate(-223 -3076)"/>
  <path id="Rounded_Rectangle_19_copy_2" data-name="Rounded Rectangle 19 copy 2" class="cls-2" d="M252,3093h5v2a1,1,0,0,1-1,1H236a1,1,0,0,1-1-1v-16a1,1,0,0,1,1-1h20a1,1,0,0,1,1,1v2h-5a3,3,0,0,0-3,3v6A3,3,0,0,0,252,3093Zm0,5v1a1,1,0,0,1-1,1H231a1,1,0,0,1-1-1v-16a1,1,0,0,1,1-1h2v13a3,3,0,0,0,3,3h16Zm-5,4v1a1,1,0,0,1-1,1H226a1,1,0,0,1-1-1v-16a1,1,0,0,1,1-1h2v13a3,3,0,0,0,3,3h16Z" transform="translate(-223 -3076)"/>
</svg>
