<svg xmlns="http://www.w3.org/2000/svg" width="36" height="30" viewBox="0 0 36 30">
  <defs>
    <style>
      .cls-1 {
        fill: #fff;
        fill-rule: evenodd;
      }
    </style>
  </defs>
  <path id="Rounded_Rectangle_18_copy_9" data-name="Rounded Rectangle 18 copy 9" class="cls-1" d="M279,1456h-2v1a3,3,0,0,1-3,3h-2v1a3,3,0,0,1-3,3H249a3,3,0,0,1-3-3v-16a3,3,0,0,1,3-3h2v-1a3,3,0,0,1,3-3h2v-1a3,3,0,0,1,3-3h20a3,3,0,0,1,3,3v16A3,3,0,0,1,279,1456Zm-28,1v-13h-2a1,1,0,0,0-1,1v16a1,1,0,0,0,1,1h20a1,1,0,0,0,1-1v-1H254A3,3,0,0,1,251,1457Zm5-4v-13h-2a1,1,0,0,0-1,1v16a1,1,0,0,0,1,1h20a1,1,0,0,0,1-1v-1H259A3,3,0,0,1,256,1453Zm24-12h-5a1,1,0,0,0-1,1v6a1,1,0,0,0,1,1h5v-8Zm-5,2h1v4h-1v-4Z" transform="translate(-246 -1434)"/>
</svg>
