<svg xmlns="http://www.w3.org/2000/svg" width="50" height="50" viewBox="0 0 50 50">
  <defs>
    <style>
      .cls-1 {
        fill: #bfbfbf;
      }

      .cls-2 {
        fill: #edefef;
        fill-rule: evenodd;
      }
    </style>
  </defs>
  <circle id="Ellipse_1_copy_5" data-name="Ellipse 1 copy 5" class="cls-1" cx="25" cy="25" r="25"/>
  <path id="Forma_1" data-name="Forma 1" class="cls-2" d="M1945.38,540.406L1935.97,531l-11.01-11h-0.86l-0.17.446A8.7,8.7,0,0,0,1923,524a5.116,5.116,0,0,0,1.73,3.066l8.59,8.584,1.14-1.133,7.94,8.874a2.126,2.126,0,0,0,2.98,0A2.1,2.1,0,0,0,1945.38,540.406Zm-16.04-6.744-6.72,6.722a2.109,2.109,0,0,0,2.98,2.984l6.73-6.722ZM1944.99,524l-3.82,3.813-0.99-.994,3.81-3.814-0.99-1-3.82,3.814-1-1,3.82-3.813-0.99-.995-4.98,4.974a3.552,3.552,0,0,0-1.03,2.275,1.982,1.982,0,0,1-.14.635l3.23,3.231a2.077,2.077,0,0,1,.64-0.144,3.524,3.524,0,0,0,2.28-1.023l4.97-4.974Z" transform="translate(-1908 -507)"/>
</svg>
