<svg xmlns="http://www.w3.org/2000/svg" width="50" height="50" viewBox="0 0 50 50">
  <defs>
    <style>
      .cls-1 {
        fill: #90c7fd;
      }

      .cls-2 {
        fill: #fff;
        fill-rule: evenodd;
      }
    </style>
  </defs>
  <circle id="Ellipse_1_copy_2" data-name="Ellipse 1 copy 2" class="cls-1" cx="25" cy="25" r="25"/>
  <path id="Forma_1" data-name="Forma 1" class="cls-2" d="M233,164c0,1.892-1.552,3-3.463,3S226,165.892,226,164v-7l-2-1v11H209V143.889A2.961,2.961,0,0,1,212.03,141H221a3.028,3.028,0,0,1,3,3v10s4,0.893,4,3v7c0,0.754.775,0.943,1.537,0.943S231,164.754,231,164l-0.078-10.315a3.429,3.429,0,1,1-2.618-6.335l-2.923-2.893L226.849,143l5.16,5.094-0.02.021A3.427,3.427,0,0,1,233,150.545V164Zm-12-20h-9v7h9v-7Zm8.5,5a1.5,1.5,0,1,0,1.5,1.5A1.5,1.5,0,0,0,229.5,149Z" transform="translate(-193 -130)"/>
</svg>
