<svg xmlns="http://www.w3.org/2000/svg" width="50" height="50" viewBox="0 0 50 50">
  <defs>
    <style>
      .cls-1 {
        fill: #4c1cbc;
      }

      .cls-2 {
        fill: #fff;
        fill-rule: evenodd;
      }
    </style>
  </defs>
  <circle id="Ellipse_1_copy_4" data-name="Ellipse 1 copy 4" class="cls-1" cx="25" cy="25" r="25"/>
  <path id="Forma_1" data-name="Forma 1" class="cls-2" d="M1845.49,540.157a2.816,2.816,0,0,1-1.79,1.745,3.875,3.875,0,0,1-2.4-.265,17.642,17.642,0,0,1-4.79-3.452c-1.16-1.138-3.33-1.707-5.49-1.707s-4.34.569-5.5,1.707a17.642,17.642,0,0,1-4.79,3.452,3.6,3.6,0,0,1-2.39.265,2.841,2.841,0,0,1-1.8-1.707,10.414,10.414,0,0,1-.52-4.324,28.327,28.327,0,0,1,.82-5.5,19.6,19.6,0,0,1,1.68-4.628c2.62-4.7,5.46-3.945,8.87-3.072a23.934,23.934,0,0,0,3.44.683h0.37a23.934,23.934,0,0,0,3.44-.683c3.41-.91,6.25-1.631,8.87,3.034a21.542,21.542,0,0,1,1.68,4.628,28.327,28.327,0,0,1,.82,5.5A10.221,10.221,0,0,1,1845.49,540.157Zm-17.17-11.314a2.442,2.442,0,0,0-1.45-.691,2.338,2.338,0,0,0-.65-1.421l-0.04-.041a2.28,2.28,0,0,0-1.66-.69,2.411,2.411,0,0,0-1.66.69,2.378,2.378,0,0,0-.68,1.462,2.426,2.426,0,0,0-1.46.65l-0.04.041a2.327,2.327,0,0,0-.69,1.665,2.424,2.424,0,0,0,.69,1.665,2.262,2.262,0,0,0,1.5.69,2.178,2.178,0,0,0,.68,1.462,2.31,2.31,0,0,0,1.66.691,2.375,2.375,0,0,0,1.66-.691,2.494,2.494,0,0,0,.69-1.462,2.142,2.142,0,0,0,1.45-.69,2.287,2.287,0,0,0,.69-1.665A2.38,2.38,0,0,0,1828.32,528.843Zm6.17,0.166a1.5,1.5,0,1,0,1.49,1.5A1.5,1.5,0,0,0,1834.49,529.009ZM1837.5,526a1.5,1.5,0,1,0,1.51,1.5A1.508,1.508,0,0,0,1837.5,526Zm0,6.013a1.5,1.5,0,1,0,1.51,1.5A1.508,1.508,0,0,0,1837.5,532.015Zm3.01-3.006a1.5,1.5,0,1,0,1.49,1.5A1.49,1.49,0,0,0,1840.51,529.009Zm-13.8,2.352h-0.57a0.774,0.774,0,0,0-.77.771v0.528a0.832,0.832,0,0,1-.24.609,0.872,0.872,0,0,1-1.21,0,0.8,0.8,0,0,1-.25-0.609v-0.568a0.768,0.768,0,0,0-.77-0.772h-0.56a0.835,0.835,0,0,1-.61-1.421l0.04-.041a0.975,0.975,0,0,1,.57-0.2h0.56a0.767,0.767,0,0,0,.77-0.772v-0.568a0.843,0.843,0,0,1,.85-0.853,0.813,0.813,0,0,1,.61.244l0.04,0.04a0.982,0.982,0,0,1,.2.569v0.568a0.774,0.774,0,0,0,.77.772h0.57a0.806,0.806,0,0,1,.6.244,0.867,0.867,0,0,1,0,1.218A0.81,0.81,0,0,1,1826.71,531.361Z" transform="translate(-1806 -507)"/>
</svg>
