<svg id="Capa_1" enable-background="new 0 0 512 512" height="512" viewBox="0 0 512 512" width="512" xmlns="http://www.w3.org/2000/svg"><g><path d="m51.348 123.938c-12.923 32.72-19.718 68.626-19.718 104.739 0 40.821 11.723 81.113 34.84 119.781 18.172 30.394 43.393 59.811 74.973 87.443 53.291 46.652 105.905 71.972 108.128 73.029l6.429 3.07 6.44-3.07c2.213-1.057 54.817-26.376 108.098-73.029 31.57-27.633 56.8-57.05 74.973-87.443 23.117-38.658 34.85-78.96 34.86-119.771.02-36.113-6.784-72.011-19.718-104.751z" fill="#935e3a"/><path d="m256 123.941v388.059l6.44-3.07c2.213-1.057 54.817-26.376 108.098-73.029 31.57-27.633 56.8-57.05 74.973-87.443 23.117-38.658 34.85-78.96 34.86-119.771.02-36.113-6.784-72.011-19.718-104.751z" fill="#724d2f"/><path d="m270.953 69.918h-29.905v-5.123c-.001-35.728 29.066-64.795 64.794-64.795v29.905c-19.238 0-34.89 15.651-34.89 34.89v5.123z" fill="#724d2f"/><g fill="#f8bd2d"><path d="m460.65 123.94c-12.38 17.76-32.96 29.41-56.23 29.41-2.56 0-5.12-.13-7.66-.42-12.36 19.83-34.01 32.09-58.06 32.09-10.61 0-21.06-2.48-30.48-7.15-13.72 13.71-32.4 21.6-52.22 21.6s-38.5-7.89-52.22-21.6c-9.43 4.67-19.87 7.15-30.48 7.15-24.05 0-45.7-12.26-58.06-32.09-2.54.29-5.1.42-7.66.42-23.27 0-43.85-11.65-56.23-29.41 2.21-5.64 4.62-11.19 7.21-16.63.08-.18.16-.35.24-.53l.36-.78 2.4-5.13 5.19-2.26c4.11-1.79 101.47-43.64 189.25-43.64 96.23 0 185.93 42.05 189.7 43.85l4.87 2.31 2.62 5.64c.09.18.17.36.25.54 2.59 5.44 5 10.99 7.21 16.63z"/><path d="m134.385 297.437h29.905v29.905h-29.905z"/><path d="m117.438 227.774h29.905v29.905h-29.905z"/><path d="m188.836 247.716h29.905v29.905h-29.905z"/></g><path d="m460.65 123.94c-12.38 17.76-32.96 29.41-56.23 29.41-2.56 0-5.12-.13-7.66-.42-12.36 19.83-34.01 32.09-58.06 32.09-10.61 0-21.06-2.48-30.48-7.15-13.72 13.71-32.4 21.6-52.22 21.6v-144.5c96.23 0 185.93 42.05 189.7 43.85l4.87 2.31 2.62 5.64c.09.18.17.36.25.54 2.59 5.44 5 10.99 7.21 16.63z" fill="#fd9d28"/></g></svg>