<svg xmlns="http://www.w3.org/2000/svg" width="86" height="42" viewBox="0 0 86 42">
  <defs>
    <style>
      .cls-1 {
        fill: #fff;
        fill-rule: evenodd;
      }
    </style>
  </defs>
  <path class="cls-1" d="M792.863,1695.83h3.476a3.991,3.991,0,1,1,0,7.98h-3.476v5.93a4.47,4.47,0,0,1-8.937,0v-14.68a10.8,10.8,0,0,1,10.923-10.7h3.079a3.986,3.986,0,1,1,0,7.97h-2.88a2.161,2.161,0,0,0-2.185,2.14v1.36Zm-18.173,0h3.476a3.991,3.991,0,1,1,0,7.98H774.69v16.62a4.469,4.469,0,0,1-8.937,0v-25.37a10.8,10.8,0,0,1,10.923-10.7h3.079a3.986,3.986,0,1,1,0,7.97h-2.88a2.161,2.161,0,0,0-2.185,2.14v1.36Zm-49.752,18.83v5.79a4.47,4.47,0,0,1-8.938,0v-33.06a4.47,4.47,0,0,1,8.938-.01v8.55h5.76v-8.55a4.469,4.469,0,0,1,8.937,0v33.05a4.469,4.469,0,0,1-8.937,0v-14.58a2.154,2.154,0,0,0-2.185-2.14h-3.575v10.95Zm27.508-21.06h0.4a10.8,10.8,0,0,1,10.924,10.69v9.82a10.81,10.81,0,0,1-10.924,10.7h-0.4a10.81,10.81,0,0,1-10.924-10.7v-9.82A10.8,10.8,0,0,1,752.446,1693.6Zm0.2,7.77a2.254,2.254,0,0,0-2.284,2.24v11.18a2.284,2.284,0,0,0,4.568,0v-11.18A2.254,2.254,0,0,0,752.644,1701.37Zm35.751,13.91a4.861,4.861,0,1,1-4.966,4.86A4.917,4.917,0,0,1,788.4,1715.28Z" transform="translate(-716 -1683)"/>
</svg>
