<svg xmlns="http://www.w3.org/2000/svg" width="22" height="19.97" viewBox="0 0 22 19.97">
  <defs>
    <style>
      .cls-1 {
        fill: #4a40fd;
        fill-rule: evenodd;
      }
    </style>
  </defs>
  <path class="cls-1" d="M1944.93,2287.89l-1.6,7.35c-0.45,1.62.07,2.76-1.62,2.76H1932c-2.07,0-3-.93-3-3v-9c0-.93.84-1.42,1.46-2.11l5.98-5.64a0.742,0.742,0,0,1,.74-0.23l1.1,0.28a2.245,2.245,0,0,1,1.42,3.27l-1.56,1.82a0.765,0.765,0,0,0,.01.74,1.658,1.658,0,0,0,.85.87h4c1.53,0,2,.74,2,2.27A2.564,2.564,0,0,1,1944.93,2287.89ZM1923,2296.5v-11a1.5,1.5,0,0,1,1.5-1.5h2.5v14h-2.5A1.5,1.5,0,0,1,1923,2296.5Z" transform="translate(-1923 -2278.03)"/>
</svg>
