<svg xmlns="http://www.w3.org/2000/svg" width="80" height="94" viewBox="0 0 80 94">
  <defs>
    <style>
      .cls-1, .cls-2, .cls-3, .cls-4, .cls-5 {
        fill-rule: evenodd;
      }

      .cls-2 {
        fill: #cfcfcf;
      }

      .cls-3 {
        fill: #f2eada;
      }

      .cls-4 {
        fill: #39363d;
      }

      .cls-5 {
        fill: #ff4c00;
      }
    </style>
  </defs>
  <path class="cls-1" d="M945.562,934.928h-4.386a1.445,1.445,0,0,1-1.439-1.452v-14.49a1.445,1.445,0,0,1,1.439-1.452h4.386A1.445,1.445,0,0,1,947,918.986v14.49A1.445,1.445,0,0,1,945.562,934.928Zm-13.871-42.783a23.918,23.918,0,0,0-33.4,0,8.342,8.342,0,0,1-3.564,2.046l-3.529.979a27.649,27.649,0,0,1,47.584,0l-3.528-.979A8.342,8.342,0,0,1,931.691,892.145Zm-38.274,75.37-0.144,1.6h0.1l0.983-1.666,4.312-5.516h1.964v11.736h-3.114v-5.352l0.12-1.666h-0.072l-1.03,1.713-4.264,5.3H890.3V961.929h3.115v5.586Zm-4.593-32.587h-4.386A1.445,1.445,0,0,1,883,933.476v-14.49a1.445,1.445,0,0,1,1.438-1.452h4.386a1.444,1.444,0,0,1,1.438,1.452v14.49A1.444,1.444,0,0,1,888.824,934.928ZM887.8,973.665h-3.282V960.1h-3.569q-0.1,2.231-.216,4.061t-0.323,3.3a17.762,17.762,0,0,1-.539,2.593,7.584,7.584,0,0,1-.863,1.948,3.688,3.688,0,0,1-.754.893,3.99,3.99,0,0,1-.874.563,3.785,3.785,0,0,1-.9.293,4.525,4.525,0,0,1-.826.082,4.357,4.357,0,0,1-.923-0.082A3.713,3.713,0,0,1,874,973.5l0.359-2.77a1.891,1.891,0,0,0,.288.071,1.841,1.841,0,0,0,.287.023,1.643,1.643,0,0,0,.754-0.188,1.578,1.578,0,0,0,.636-0.634,4.892,4.892,0,0,0,.623-1.513,20.964,20.964,0,0,0,.466-2.547q0.2-1.55.324-3.7t0.168-5.011H887.8v16.43Zm24.613-9.037h-3.33v9.036h-3.21v-9.036h-3.425v-2.7h9.965v2.7Z" transform="translate(-874 -880)"/>
  <path id="Shape_4_copy_6" data-name="Shape 4 copy 6" class="cls-2" d="M908,943s-1.5,2.02-6.844,2c-5.8-.022-7.149-2.018-7.156-2V904h2v15a10.241,10.241,0,0,0,5,1,15.081,15.081,0,0,0,5-1V904h2v39Z" transform="translate(-874 -880)"/>
  <path id="Shape_4_copy_4" data-name="Shape 4 copy 4" class="cls-3" d="M924,919V905h10v14H924Zm-14-14h10v14H910V905Zm-14,0h10v14H896V905Z" transform="translate(-874 -880)"/>
  <path id="Shape_4_copy" data-name="Shape 4 copy" class="cls-4" d="M942.838,937.674h-4.386a1.445,1.445,0,0,1-1.438-1.452v-20.9a1.445,1.445,0,0,1,1.438-1.452h3.99c0-2.437,0-4.912,0-4.948a27.441,27.441,0,0,0-54.879.084l0,4.864h3.99a1.445,1.445,0,0,1,1.438,1.452v20.9a1.445,1.445,0,0,1-1.438,1.452h-4.386a1.445,1.445,0,0,1-1.439-1.452v-20.9c0-.036.008-0.07,0.011-0.106,0-2.768,0-6.137,0-6.243a29.263,29.263,0,0,1,58.523-.089c0,0.126,0,3.578,0,6.33,0,0.036.011,0.071,0.011,0.108v20.9A1.445,1.445,0,0,1,942.838,937.674ZM910,904v15a10.241,10.241,0,0,0,5,1,15.081,15.081,0,0,0,5-1V904h2v39s-1.657,2.023-7,2c-5.8-.022-6.993-2.02-7-2V904h2Z" transform="translate(-874 -880)"/>
  <path id="Shape_3_copy" data-name="Shape 3 copy" class="cls-5" d="M919.342,959.769c-0.319,0-.623.012-0.91,0.036s-0.519.051-.7,0.082v5.328a2.449,2.449,0,0,0,.288.047c0.127,0.016.264,0.027,0.407,0.035s0.283,0.012.419,0.012h0.3a7.052,7.052,0,0,0,1.282-.117,3.2,3.2,0,0,0,1.138-.434,2.284,2.284,0,0,0,.8-0.881,3.157,3.157,0,0,0,.3-1.478,2.558,2.558,0,0,0-.287-1.28,2.329,2.329,0,0,0-.755-0.809,2.958,2.958,0,0,0-1.066-.423,6.281,6.281,0,0,0-1.222-.118m-2.67-2.663Q917.88,957,919.079,957a16.072,16.072,0,0,1,2.5.2,6.317,6.317,0,0,1,2.264.8,4.678,4.678,0,0,1,1.64,1.666,5.4,5.4,0,0,1,.635,2.782,5.646,5.646,0,0,1-.551,2.617,5.008,5.008,0,0,1-1.461,1.749,5.932,5.932,0,0,1-2.071.986,9.42,9.42,0,0,1-2.407.3h-0.385c-0.176,0-.359,0-0.551-0.012s-0.379-.019-0.563-0.035a3.824,3.824,0,0,1-.395-0.047v5.657h-3.282V957.4Q915.461,957.212,916.672,957.106Zm15.7,6.887a2.185,2.185,0,0,0-1.835.736,3.318,3.318,0,0,0-.715,1.9l4.473,0.041a2.951,2.951,0,0,0-.339-1.95,1.829,1.829,0,0,0-1.584-.727m2.485,9.613a8.673,8.673,0,0,1-2.623.388,5.142,5.142,0,0,1-4.24-1.655,7.019,7.019,0,0,1-1.341-4.542,6.415,6.415,0,0,1,1.509-4.647,5.646,5.646,0,0,1,4.24-1.55,6.742,6.742,0,0,1,1.773.235,4.167,4.167,0,0,1,1.533.774,3.816,3.816,0,0,1,1.078,1.456,5.615,5.615,0,0,1,.408,2.277,10.029,10.029,0,0,1-.061,1.056q-0.058.563-.179,1.174h-7.22a3.417,3.417,0,0,0,.833,2.229,3,3,0,0,0,2.28.751,5.649,5.649,0,0,0,1.754-.293,12.474,12.474,0,0,0,1.275-.5l0.934,1.894A6.149,6.149,0,0,1,934.853,973.606Zm12.46-9.409a10.539,10.539,0,0,0-1.7-.19c-2.138,0-3.526,1.2-3.526,3.846,0,2.483,1.059,3.709,3.291,3.709,0.728,0,2.131-.191,2.131-0.191l0.429,2.122a10.866,10.866,0,0,1-3.124.46c-4.346,0-5.944-3.108-5.944-6.261,0-3.176,1.879-6.031,6.2-6.031a11.539,11.539,0,0,1,2.7.322l-0.457,2.214m4.92,1.078A1.732,1.732,0,1,1,954,963.543,1.75,1.75,0,0,1,952.233,965.275ZM954,972.107a1.768,1.768,0,1,1-1.767-1.732A1.751,1.751,0,0,1,954,972.107M929,945c-5.8-.022-6.992-2.02-7-2V904h2v15a10.241,10.241,0,0,0,5,1,15.081,15.081,0,0,0,5-1V904h2v39S934.343,945.023,929,945Zm-32-13V917h8v15l-4-3Z" transform="translate(-874 -880)"/>
</svg>
