<svg xmlns="http://www.w3.org/2000/svg" width="90" height="70" viewBox="0 0 90 70">
  <defs>
    <style>
      .cls-1 {
        fill: #fff;
        fill-rule: evenodd;
      }
    </style>
  </defs>
  <path id="Lush" class="cls-1" d="M954.744,2170.19H954.16a3.312,3.312,0,0,0-1.922.41,11.625,11.625,0,0,0-1.913,2.43l-2.083,3.1H944.8l1.742-2.78a16.672,16.672,0,0,1,1.645-2.31,6.155,6.155,0,0,1,1.538-1.19,4.47,4.47,0,0,1-2.881-1.39,3.883,3.883,0,0,1-.886-2.56,4.126,4.126,0,0,1,.657-2.31,3.2,3.2,0,0,1,1.733-1.35,11.267,11.267,0,0,1,3.217-.34h6.065v14.23h-2.882v-5.94Zm0-5.89H952.5a20.358,20.358,0,0,0-2.254.08,1.476,1.476,0,0,0-.929.53,1.678,1.678,0,0,0-.39,1.16,1.768,1.768,0,0,0,.375,1.19,1.563,1.563,0,0,0,.954.55,16.273,16.273,0,0,0,2.361.11h2.131v-3.62Zm-3.806-17.22H943.71v8.63H937.1v-21.34h6.615v7.47h7.228v-7.47h6.644v21.34h-6.644v-8.63Zm-7.256,29.05h-3.135l-1.246-3.23h-5.7l-1.178,3.23h-3.057l5.559-14.23h3.047Zm-9.2-5.63h3.894l-1.967-5.28Zm-11.741-29.14a28.128,28.128,0,0,1,6.214,1.88,6.573,6.573,0,0,1,2.73,2.37,5.965,5.965,0,0,1,.854,3.16,6.715,6.715,0,0,1-1.139,3.78,7.048,7.048,0,0,1-3.183,2.63,12.836,12.836,0,0,1-5.154.9q-5.462,0-7.564-2.1a8.254,8.254,0,0,1-2.38-5.33l6.293-.39a4.755,4.755,0,0,0,.833,2.33,3.513,3.513,0,0,0,2.92,1.3,3.25,3.25,0,0,0,2.183-.67,1.9,1.9,0,0,0,.036-3.02,8.434,8.434,0,0,0-3.387-1.24q-4.352-.975-6.206-2.59a5.208,5.208,0,0,1-1.869-4.12,5.6,5.6,0,0,1,.956-3.11,6.391,6.391,0,0,1,2.877-2.3,13.425,13.425,0,0,1,5.264-.84,10.825,10.825,0,0,1,6.257,1.52,6.578,6.578,0,0,1,2.562,4.85l-6.235.36a3.354,3.354,0,0,0-1.044-2.1,3.4,3.4,0,0,0-2.2-.65,2.63,2.63,0,0,0-1.738.49,1.483,1.483,0,0,0-.584,1.18,1.19,1.19,0,0,0,.482.92A5.548,5.548,0,0,0,922.742,2141.36Zm-6.506,23.89a10.593,10.593,0,0,0,1.027,2.18,1.422,1.422,0,0,0,1.085.52v-6.05h2.813v6.05a1.415,1.415,0,0,0,1.091-.53,10.338,10.338,0,0,0,1.022-2.17,6.159,6.159,0,0,1,1.752-2.84,5.455,5.455,0,0,1,2.95-.6c0.065,0,.2,0,0.418-0.01v2.13l-0.418-.01a2.954,2.954,0,0,0-1.285.21,1.674,1.674,0,0,0-.662.67,14.43,14.43,0,0,0-.75,1.83,6.359,6.359,0,0,1-.569,1.24,2.913,2.913,0,0,1-1.086.93,3.026,3.026,0,0,1,1.592,1.1,14.6,14.6,0,0,1,1.377,2.33l1.947,3.9h-3.387l-1.714-3.68a2.438,2.438,0,0,0-.165-0.3c-0.052-.1-0.169-0.32-0.351-0.67a4.647,4.647,0,0,0-.895-1.3,1.328,1.328,0,0,0-.867-0.28v6.23h-2.813v-6.23a1.386,1.386,0,0,0-.856.27,4.178,4.178,0,0,0-.9,1.31c-0.2.39-.321,0.61-0.36,0.67-0.059.1-.114,0.2-0.166,0.3l-1.713,3.68h-3.388l1.947-3.9a15.106,15.106,0,0,1,1.358-2.3,3.015,3.015,0,0,1,1.621-1.13,2.9,2.9,0,0,1-1.085-.93,6.407,6.407,0,0,1-.58-1.24,15.153,15.153,0,0,0-.735-1.81,1.605,1.605,0,0,0-.662-0.68,2.994,2.994,0,0,0-1.348-.22c-0.078,0-.2,0-0.37.01v-2.13c0.214,0.01.354,0.01,0.419,0.01a5.421,5.421,0,0,1,2.979.61A6.36,6.36,0,0,1,916.236,2165.25Zm-8.789-11.65a7.407,7.407,0,0,1-2.65,1.77,13.5,13.5,0,0,1-4.629.71,28.287,28.287,0,0,1-3.41-.22,8.854,8.854,0,0,1-3.088-.87,7.632,7.632,0,0,1-2.271-1.84,6.67,6.67,0,0,1-1.409-2.46,12.651,12.651,0,0,1-.613-3.6v-12.72h6.6v13.02a3.732,3.732,0,0,0,.971,2.73,4.19,4.19,0,0,0,5.374.01,3.694,3.694,0,0,0,.971-2.74v-13.02h6.6v12.72a10.655,10.655,0,0,1-.592,3.57A7.722,7.722,0,0,1,907.447,2153.6Zm-37.257-19.23h6.615v16.09h10.323v5.25H870.19v-21.34Zm5.487,27.28a5.944,5.944,0,0,1,4.254,1.55,5.6,5.6,0,0,1,1.46,2.62l-2.852.68a2.943,2.943,0,0,0-3.008-2.39,3.246,3.246,0,0,0-2.575,1.14,5.536,5.536,0,0,0-.988,3.68,5.947,5.947,0,0,0,.974,3.84,3.177,3.177,0,0,0,2.531,1.15,2.92,2.92,0,0,0,1.976-.73,4.249,4.249,0,0,0,1.187-2.29l2.794,0.88a6.236,6.236,0,0,1-2.137,3.46,6.735,6.735,0,0,1-8.464-.81,7.381,7.381,0,0,1-1.83-5.29,7.764,7.764,0,0,1,1.84-5.52A6.321,6.321,0,0,1,875.677,2161.65Zm-3.788,23.77a1.333,1.333,0,0,0,.9-0.34,6.859,6.859,0,0,0,.722-1.52,4.147,4.147,0,0,1,1.238-1.98,3.864,3.864,0,0,1,1.988-.38c0.045,0,.141-0.01.288-0.01v1.46l-0.281-.01a1.983,1.983,0,0,0-.89.15,1.171,1.171,0,0,0-.455.46,10.513,10.513,0,0,0-.516,1.26,4.537,4.537,0,0,1-.391.85,1.978,1.978,0,0,1-.746.64,2.076,2.076,0,0,1,1.094.76,9.909,9.909,0,0,1,.947,1.6l1.338,2.68h-2.329l-1.171-2.53c-0.018-.04-0.056-0.1-0.114-0.21-0.022-.03-0.105-0.19-0.247-0.46a2.933,2.933,0,0,0-.626-0.9,1.26,1.26,0,0,0-.746-0.18v4.28h-1.981v-9.78h1.981v4.16Zm1.964,11.74a1.857,1.857,0,0,1,.985.67,2.12,2.12,0,0,1,.4,1.33,2.17,2.17,0,0,1-.229,1.05,1.923,1.923,0,0,1-.58.68,2,2,0,0,1-.716.32,7.444,7.444,0,0,1-1.432.1h-0.9v2.57H870v-6.82h2.215A7.981,7.981,0,0,1,873.853,2197.16Zm-2.477,1.05v1.94h0.756a3.6,3.6,0,0,0,1.092-.11,0.9,0.9,0,0,0,.431-0.33,0.914,0.914,0,0,0,.156-0.53,0.89,0.89,0,0,0-.219-0.62,0.957,0.957,0,0,0-.555-0.3,6.641,6.641,0,0,0-.994-0.05h-0.667Zm6.192-1.15,1.6,3.54,1.362-3.54h1.442l-2.309,5.18a5.026,5.026,0,0,1-.77,1.28,1.27,1.27,0,0,1-1.012.44,4.056,4.056,0,0,1-.956-0.08v-1.02c0.2,0.01.373,0.02,0.532,0.02a1.116,1.116,0,0,0,.688-0.17,1.769,1.769,0,0,0,.4-0.76l-2.514-4.89h1.544Zm6.84,1.63a5.842,5.842,0,0,0,.059,1.05,0.754,0.754,0,0,0,.347.45,1.617,1.617,0,0,0,.849.19,2.716,2.716,0,0,0,.788-0.1,1.81,1.81,0,0,0,.6-0.28v-2.94h1.381v6.82h-1.381v-2.74a5.738,5.738,0,0,1-.825.28,3.685,3.685,0,0,1-.8.09,2.912,2.912,0,0,1-1.709-.48,1.9,1.9,0,0,1-.688-1.67v-2.3h1.38v1.63Zm2.331-16.26a5.983,5.983,0,0,1,.01,7.44,4.586,4.586,0,0,1-3.453,1.34,4.654,4.654,0,0,1-3.481-1.33,5.051,5.051,0,0,1-1.291-3.67,6.178,6.178,0,0,1,.448-2.51,4.5,4.5,0,0,1,.914-1.34,3.736,3.736,0,0,1,1.268-.88,5.363,5.363,0,0,1,2.115-.39A4.63,4.63,0,0,1,886.739,2182.43Zm-1.486,1.17a2.506,2.506,0,0,0-1.964-.82,2.542,2.542,0,0,0-1.974.83,3.712,3.712,0,0,0-.75,2.53,3.655,3.655,0,0,0,.77,2.52,2.649,2.649,0,0,0,3.9.01,3.75,3.75,0,0,0,.76-2.56A3.69,3.69,0,0,0,885.253,2183.6Zm-1.54-21.7h5.705a15.777,15.777,0,0,1,2.526.14,3.634,3.634,0,0,1,2.584,1.77,3.233,3.233,0,0,1,.438,1.67,3.271,3.271,0,0,1-.54,1.83,3.353,3.353,0,0,1-1.465,1.26,3.729,3.729,0,0,1,2,1.29,3.408,3.408,0,0,1,.7,2.14,4.224,4.224,0,0,1-.452,1.89,3.862,3.862,0,0,1-1.237,1.47,4.1,4.1,0,0,1-1.932.67c-0.48.05-1.639,0.09-3.475,0.1h-4.858V2161.9Zm2.882,11.83h2.667a12.694,12.694,0,0,0,1.976-.09,1.74,1.74,0,0,0,1.046-.56,1.769,1.769,0,0,0,.4-1.21,1.858,1.858,0,0,0-.311-1.09,1.771,1.771,0,0,0-.9-0.65,9.68,9.68,0,0,0-2.555-.2H886.6v3.8Zm0-6.17h1.888c1.123,0,1.82-.02,2.093-0.05a1.925,1.925,0,0,0,1.163-.51,1.491,1.491,0,0,0,.424-1.11,1.589,1.589,0,0,0-.365-1.08,1.691,1.691,0,0,0-1.086-.5c-0.285-.03-1.106-0.04-2.463-0.04H886.6v3.29Zm7.372,13.53a4.074,4.074,0,0,1,2.924,1.06,3.875,3.875,0,0,1,1,1.8l-1.961.47a2.025,2.025,0,0,0-2.068-1.64,2.236,2.236,0,0,0-1.77.78,3.812,3.812,0,0,0-.679,2.53,4.091,4.091,0,0,0,.669,2.64,2.162,2.162,0,0,0,1.74.79,2.006,2.006,0,0,0,1.359-.5,2.932,2.932,0,0,0,.816-1.58l1.921,0.61a4.292,4.292,0,0,1-1.469,2.38,4.19,4.19,0,0,1-2.607.78,4.251,4.251,0,0,1-3.212-1.33,5.112,5.112,0,0,1-1.258-3.65,5.337,5.337,0,0,1,1.265-3.79A4.344,4.344,0,0,1,893.967,2181.09Zm-2.252,18.65h2.7v-2.68H895.8v6.82H894.42v-2.98h-2.7v2.98h-1.381v-6.82h1.381v2.68Zm6.66-1.91a2.726,2.726,0,0,1,.884-0.62,3.759,3.759,0,0,1,1.474-.27,3.232,3.232,0,0,1,2.419.94,4.164,4.164,0,0,1,.007,5.18,3.167,3.167,0,0,1-2.407.94,3.22,3.22,0,0,1-2.426-.93,3.521,3.521,0,0,1-.9-2.56,4.349,4.349,0,0,1,.312-1.75A3.215,3.215,0,0,1,898.375,2197.83Zm1.01,4.39a1.848,1.848,0,0,0,2.717.01,2.612,2.612,0,0,0,.53-1.78,2.555,2.555,0,0,0-.516-1.75,1.732,1.732,0,0,0-1.369-.58,1.76,1.76,0,0,0-1.376.59A3.176,3.176,0,0,0,899.385,2202.22Zm9.986-5.86a1.6,1.6,0,0,1-2.019,0,1.491,1.491,0,0,1-.446-1h0.639a0.714,0.714,0,0,0,.233.5,1.085,1.085,0,0,0,1.166,0,0.711,0.711,0,0,0,.234-0.5h0.639A1.5,1.5,0,0,1,909.371,2196.36Zm0.205-5.32h-1.84v-7.7l-1.948,7.7h-1.907l-1.941-7.7v7.7H900.1v-9.78h2.965l1.78,6.67,1.76-6.67h2.971v9.78Zm-0.422-17.31v2.4H898.3V2161.9h10.582v2.4h-7.7v3.16h7.164v2.4h-7.164v3.87h7.972Zm-2.229,27.87,2.77-4.54h1.376v6.82h-1.292v-4.45l-2.766,4.45h-1.38v-6.82h1.292v4.54Zm13.127-18.69h-5.293v2.17h4.925v1.65h-4.925v2.66h5.481v1.65h-7.462v-9.78h7.274v1.65Zm-0.105,14.25a1.851,1.851,0,0,1,.984.67,2.115,2.115,0,0,1,.4,1.33,2.17,2.17,0,0,1-.229,1.05,1.923,1.923,0,0,1-.58.68,2,2,0,0,1-.716.32,7.444,7.444,0,0,1-1.432.1h-0.9v2.57h-1.38v-6.82h2.215A7.981,7.981,0,0,1,919.947,2197.16Zm-2.477,1.05v1.94h0.756a3.589,3.589,0,0,0,1.091-.11,0.9,0.9,0,0,0,.432-0.33,0.914,0.914,0,0,0,.156-0.53,0.89,0.89,0,0,0-.219-0.62,0.957,0.957,0,0,0-.555-0.3,6.641,6.641,0,0,0-.994-0.05H917.47Zm8.058-1.15,2.738,6.82h-1.5l-0.6-1.55h-2.734l-0.564,1.55H921.4l2.664-6.82h1.46Zm0.2,4.12-0.943-2.53-0.923,2.53h1.866Zm-2.007-10.14v-8.13h-2.911v-1.65h7.8v1.65h-2.9v8.13h-1.981Zm10.9,7.17h-3.732v1.58h1.848a3.808,3.808,0,0,1,1.268.18,1.906,1.906,0,0,1,.861.69,2,2,0,0,1,.357,1.18,1.93,1.93,0,0,1-.359,1.18,1.886,1.886,0,0,1-.819.68,3.725,3.725,0,0,1-1.308.18H929.5v-6.82h5.112v1.15Zm-3.732,4.53h1.344a4.426,4.426,0,0,0,.905-0.07,0.833,0.833,0,0,0,.455-0.28,0.808,0.808,0,0,0,.193-0.55,0.75,0.75,0,0,0-.338-0.69,2.192,2.192,0,0,0-1.154-.22h-1.4v1.81Zm5.659-18.09-3.969,6.39h-1.981v-9.78h1.854v6.51l3.975-6.51H938.4v9.78h-1.854v-6.39Zm0.946,13.18a2.726,2.726,0,0,1,.884-0.62,3.759,3.759,0,0,1,1.474-.27,3.229,3.229,0,0,1,2.418.94,4.16,4.16,0,0,1,.007,5.18,3.163,3.163,0,0,1-2.406.94,3.22,3.22,0,0,1-2.426-.93,3.521,3.521,0,0,1-.9-2.56,4.349,4.349,0,0,1,.312-1.75A3.215,3.215,0,0,1,937.489,2197.83Zm1.01,4.39a1.848,1.848,0,0,0,2.717.01,2.612,2.612,0,0,0,.529-1.78,2.56,2.56,0,0,0-.515-1.75,1.732,1.732,0,0,0-1.369-.58,1.76,1.76,0,0,0-1.376.59A3.171,3.171,0,0,0,938.5,2202.22Zm4.618-11.18h-1.981v-9.78h1.981v4.16a1.328,1.328,0,0,0,.9-0.34,6.892,6.892,0,0,0,.723-1.52,4.139,4.139,0,0,1,1.238-1.98,3.864,3.864,0,0,1,1.988-.38c0.044,0,.14-0.01.288-0.01v1.46l-0.281-.01a1.991,1.991,0,0,0-.891.15,1.177,1.177,0,0,0-.455.46,10.563,10.563,0,0,0-.515,1.26,4.537,4.537,0,0,1-.391.85,1.982,1.982,0,0,1-.747.64,2.075,2.075,0,0,1,1.1.76,9.983,9.983,0,0,1,.947,1.6l1.338,2.68h-2.329l-1.171-2.53c-0.018-.04-0.056-0.1-0.114-0.21-0.022-.03-0.105-0.19-0.248-0.46a2.918,2.918,0,0,0-.625-0.9,1.261,1.261,0,0,0-.747-0.18v4.28Zm6.555,7.17h-2.024v5.67h-1.381v-5.67h-2.029v-1.15h5.434v1.15Zm2.787,1.58h1.847a3.6,3.6,0,0,1,1.252.19,1.89,1.89,0,0,1,.875.71,2.02,2.02,0,0,1,.35,1.17,1.958,1.958,0,0,1-.364,1.19,1.769,1.769,0,0,1-.809.67,3.972,3.972,0,0,1-1.3.16h-3.228v-6.82h1.381v2.73Zm0,2.95h1.348a4.316,4.316,0,0,0,.9-0.07,0.854,0.854,0,0,0,.452-0.28,0.8,0.8,0,0,0,.2-0.55,0.776,0.776,0,0,0-.324-0.68,2.164,2.164,0,0,0-1.168-.23h-1.4v1.81Zm-0.391-13.92-0.81,2.22h-2.1l3.821-9.78h2.1l3.929,9.78h-2.155l-0.857-2.22h-3.922Zm1.934-5.28-1.325,3.63h2.677Zm4.959,20.34H957.58v-6.82h1.381v6.82Z" transform="translate(-869 -2134)"/>
</svg>
