<svg xmlns="http://www.w3.org/2000/svg" width="26" height="30" viewBox="0 0 26 30">
  <defs>
    <style>
      .cls-1 {
        fill: #fff;
        fill-rule: evenodd;
      }
    </style>
  </defs>
  <path id="Forma_1" data-name="Forma 1" class="cls-1" d="M2222.83,3211h-11.67a3.173,3.173,0,0,1-3.16-3.19V3200h2v3h14v-16h-14v2h-2v-4.81a3.173,3.173,0,0,1,3.16-3.19h11.67a3.182,3.182,0,0,1,3.17,3.19v23.62A3.182,3.182,0,0,1,2222.83,3211Zm-12.83-6,0.11,2.9a1.074,1.074,0,0,0,1.05,1.1h11.67a1.076,1.076,0,0,0,1.06-1.1l0.11-2.9h-14Zm14.01-21a1.039,1.039,0,0,0-1.07-1h-11.85a1.042,1.042,0,0,0-1.08,1v1h14v-1Zm-8.01,22.03h1.99L2218,3208h-2v-1.97Zm3.26-15.95a0.338,0.338,0,0,1,.12.06,1.039,1.039,0,0,1,.34.26,1.1,1.1,0,0,1,.14.21,0.611,0.611,0,0,1,.07.14c0.01,0.02.03,0.05,0.04,0.07a1.492,1.492,0,0,1,.02.21c0,0.04.02,0.06,0.02,0.09v6.75a1.144,1.144,0,0,1-1.17,1.13h-11.68a1.14,1.14,0,0,1-1.16-1.12v-6.75c0-.03.02-0.06,0.02-0.09a1.492,1.492,0,0,1,.02-0.21c0.01-.03.03-0.05,0.04-0.08s0.04-.09.06-0.14a1.366,1.366,0,0,1,.15-0.21l0.11-.11a1.135,1.135,0,0,1,.23-0.15l0.12-.06a1.15,1.15,0,0,1,.41-0.08h11.68A1.162,1.162,0,0,1,2219.26,3190.08ZM2210,3192l3,2,3-2h-6Zm8,1-4.4,2.46a1.173,1.173,0,0,1-1.2,0L2208,3193v4h10v-4Zm-16.01-1H2205v2h-3.01v-2Zm3.01,5h-5v-2h5v2Z" transform="translate(-2200 -3181)"/>
</svg>
