<svg xmlns="http://www.w3.org/2000/svg" width="112" height="22" viewBox="0 0 112 22">
  <defs>
    <style>
      .cls-1 {
        fill-rule: evenodd;
      }
    </style>
  </defs>
  <path class="cls-1" d="M928.965,2328.89a9.227,9.227,0,0,1-3.465-1.39,7.408,7.408,0,0,1-2.121-2.51,7.876,7.876,0,0,1-.679-3.31,7.188,7.188,0,0,1,6.545-7.63,14.764,14.764,0,0,1,3.388,0,7.809,7.809,0,0,1,4.858,2.54,6.864,6.864,0,0,1,1.526,4.65,8.214,8.214,0,0,1-.4,2.74,7.342,7.342,0,0,1-5.964,4.93,16.855,16.855,0,0,1-3.689-.02h0Zm2.94-1.07a4.839,4.839,0,0,0,2.079-1.05,7.533,7.533,0,0,0,1.96-6.2,6.243,6.243,0,0,0-1.834-4.42,5.107,5.107,0,0,0-4.116-1.01c-2.107.36-3.542,1.99-4.1,4.67a8.449,8.449,0,0,0,1.246,6.38,4.71,4.71,0,0,0,2.912,1.68,7.255,7.255,0,0,0,1.855-.05h0Zm-33.215.94c-0.679-.86-9.94-9.86-10.234-9.96-0.154-.05.007,7.78,0.2,9.58l0.042,0.42h-1.9v-0.21c0-.13.049-0.96,0.105-1.86,0.07-1.19.105-3.15,0.105-7.1v-5.47h1.036l0.616,0.66c0.966,1.03,2.765,2.86,4.1,4.17,2.184,2.13,4.844,4.66,5.229,4.97l0.371,0.31-0.042-2.15c-0.119-5.38-.189-7.76-0.224-7.86s0.077-.1.917-0.1h0.966l-0.049.97c-0.021.53-.063,3.86-0.091,7.39l-0.042,6.42h-0.476a0.583,0.583,0,0,1-.623-0.18h0ZM859,2321.48v-7.32h3.157a25.081,25.081,0,0,1,3.654.1,3.676,3.676,0,0,1,3.108,4.03,4,4,0,0,1-2.317,3.42,6.1,6.1,0,0,1-3.241.59h-1.484l0.028,0.24c0.014,0.12.049,1.47,0.07,2.99s0.063,2.88.084,3.02l0.042,0.25H859v-7.32Zm5.075-.37a2.543,2.543,0,0,0,1.295-.93,3.261,3.261,0,0,0,.665-2.11,2.634,2.634,0,0,0-1.421-2.6,2.522,2.522,0,0,0-1.26-.22c-0.476,0-1,0-1.176.03l-0.308.04v2.92c0,2.73.007,2.93,0.126,2.95a6.926,6.926,0,0,0,.91.04A3.159,3.159,0,0,0,864.075,2321.11Zm5.075,7.63a1.742,1.742,0,0,1,.168-0.4c0.091-.18.406-0.84,0.693-1.48s0.756-1.65,1.029-2.25c1.057-2.27,1.12-2.42,2.24-4.87,1.127-2.48,2.38-5.52,2.38-5.76a4.95,4.95,0,0,1,.742-0.02l0.742,0.02,0.455,1.2c0.833,2.2,1.848,4.62,2.968,7.08,0.105,0.25.63,1.4,1.155,2.56s1.092,2.4,1.253,2.76,0.364,0.77.448,0.94l0.147,0.28h-3.4l-0.476-1.24c-0.266-.68-0.672-1.73-0.91-2.31l-0.427-1.08h-2.7c-2.52,0-2.709.01-2.744,0.12-0.021.06-.2,0.5-0.392,0.96-0.413.99-1.078,2.76-1.211,3.23l-0.084.32h-1.036a3.556,3.556,0,0,1-1.036-.06h0Zm8.337-5.92,0.189-.05-0.385-.98c-0.21-.55-0.5-1.3-0.658-1.67s-0.427-1.08-.609-1.56c-0.329-.84-0.343-0.86-0.427-0.68-0.049.1-.294,0.67-0.546,1.25s-0.553,1.3-.686,1.6a16.254,16.254,0,0,0-.833,2.08,25.937,25.937,0,0,0,3.955.01h0Zm27.8,2.84c0.028-1.74.042-5.04,0.028-7.33l-0.035-4.17h3.528a41.9,41.9,0,0,1,4.319.1,6.926,6.926,0,0,1,4.69,2.31,6.645,6.645,0,0,1,1.519,4.53c-0.007,3.28-1.4,5.65-4.053,6.92a8.6,8.6,0,0,1-1.932.65,41.567,41.567,0,0,1-4.235.11l-3.885.03,0.056-3.15h0Zm7.063,1.79a5.158,5.158,0,0,0,2-1.13c1.337-1.21,1.932-2.82,1.932-5.18-0.014-3.71-2.163-5.83-5.929-5.83-0.357,0-.98.02-1.386,0.04l-0.735.05-0.049.62c-0.1,1.28-.049,11.39.056,11.5,0.007,0,.448.03,0.987,0.06a11.208,11.208,0,0,0,3.129-.13h0Zm30.618-.23c0.07-2.01.07-12.7,0-12.91l-0.049-.15h3.388c3.794,0,4.109.02,4.991,0.43a3.569,3.569,0,0,1,1.512,1.38,3.852,3.852,0,0,1,.3,2.55,3.92,3.92,0,0,1-2.891,2.84,5.909,5.909,0,0,0-.686.24c-0.028.03,0.518,0.81,1.953,2.8,0.6,0.83,2.163,2.86,2.835,3.69l0.553,0.68-1.827.02c-1,.01-1.862,0-1.9-0.01a4.549,4.549,0,0,1-.49-0.68c-0.875-1.39-2.884-4.28-4.221-6.09a0.424,0.424,0,0,0-.364-0.16c-0.231,0-.245.02-0.231,0.19,0.014,0.11.035,1.67,0.056,3.48l0.028,3.28h-3.01l0.056-1.58h0Zm5.11-6.42a2.6,2.6,0,0,0,1.939-1.52,2.257,2.257,0,0,0,.245-1.21,2.343,2.343,0,0,0-.875-2.28,3.954,3.954,0,0,0-2.772-.51l-0.819.05v5.5l0.441,0.02a6.981,6.981,0,0,0,1.841-.05h0Zm8.6,7.79c0.056-.13.343-0.75,0.637-1.39s0.63-1.35.735-1.6,0.3-.67.441-0.95c0.224-.49.483-1.03,1.1-2.39,0.147-.32.35-0.76,0.455-0.98,0.168-.37.371-0.82,1.155-2.56,0.609-1.36,1.323-3.05,1.666-3.99l0.28-.75,0.735-.02,0.735-.02,0.119,0.37c0.133,0.38.469,1.27,1.022,2.64,0.315,0.8.511,1.27,1.148,2.76,0.4,0.94,1.218,2.79,1.5,3.4,0.07,0.15.294,0.66,0.511,1.13,0.735,1.62,1.162,2.56,1.617,3.53,0.252,0.54.462,0.99,0.462,1.01s-0.756.02-1.673,0.02h-1.673l-0.28-.69c-0.154-.39-0.413-1.04-0.574-1.45s-0.455-1.14-.651-1.62l-0.35-.87-2.695.01-2.688.02-0.511,1.24c-0.28.68-.672,1.71-0.882,2.3l-0.371,1.06H956.58Zm8.218-5.75a1.33,1.33,0,0,0,.224-0.06c0-.05-1.687-4.37-1.9-4.86l-0.1-.24-0.273.64c-0.147.35-.371,0.88-0.5,1.18s-0.483,1.16-.8,1.9a8.465,8.465,0,0,0-.525,1.39A24.021,24.021,0,0,0,964.9,2322.84Zm-35.819-9.74c-0.147-.46-0.14-0.5.056-0.54a18.915,18.915,0,0,1,3.045-.05,3.959,3.959,0,0,1,.644.1,1.426,1.426,0,0,1-.084.36l-0.112.33H929.14l-0.063-.2h0Zm-0.217-1.14a0.521,0.521,0,0,1,.392-0.87,0.543,0.543,0,0,1,.406.87,0.583,0.583,0,0,1-.8,0h0Zm3.227-.03a0.434,0.434,0,0,1,.028-0.66,0.509,0.509,0,0,1,.77-0.01,0.491,0.491,0,0,1-.385.85A0.434,0.434,0,0,1,932.087,2311.93Zm-1.442.03a0.5,0.5,0,0,1-.14-0.84,0.483,0.483,0,0,1,.707-0.01,0.493,0.493,0,0,1-.007.78A0.422,0.422,0,0,1,930.645,2311.96Zm-2.513-1.91c-0.742-2.34-.882-2.8-0.868-2.81,0.035-.03,2.3,3.28,2.3,3.35a0.971,0.971,0,0,1-.483.12,4.167,4.167,0,0,0-.6.08C928.4,2310.82,928.328,2310.67,928.132,2310.05Zm4.893,0.69a3.421,3.421,0,0,0-.539-0.05,0.646,0.646,0,0,1-.294-0.06,2.78,2.78,0,0,1,.385-0.66c0.231-.35.735-1.09,1.127-1.66a12.444,12.444,0,0,1,.728-1.02,16,16,0,0,1-.637,2.2c-0.133.41-.273,0.88-0.315,1.04a0.526,0.526,0,0,1-.126.28c-0.028-.01-0.175-0.03-0.329-0.07h0Zm-2.765-.24c0.014-.32.616-3.59,0.651-3.5s0.609,3.46.609,3.57a2.625,2.625,0,0,1-.63.04C930.337,2310.61,930.26,2310.6,930.26,2310.5Z" transform="translate(-859 -2307)"/>
</svg>
