<svg xmlns="http://www.w3.org/2000/svg" width="106" height="28" viewBox="0 0 106 28">
  <defs>
    <style>
      .cls-1 {
        fill: #6a2045;
      }

      .cls-1, .cls-2 {
        fill-rule: evenodd;
      }

      .cls-2 {
        fill: #d62687;
      }
    </style>
  </defs>
  <path class="cls-1" d="M966.994,2020.03c0,0.13-.122.13-0.243,0.13a4.715,4.715,0,0,1-2.426-.56,3.2,3.2,0,0,1-1.031-1.71c-0.3.37-.546,0.61-0.789,0.92a4.184,4.184,0,0,1-5.7.24,3.34,3.34,0,0,1,.849-5.5,7.645,7.645,0,0,1,4.549-.43c0.546,0.12.243,0.61,0.3,0.98,0,0.36-.3.12-0.424,0.12a4.728,4.728,0,0,0-2.123-.12,2.528,2.528,0,0,0-1.577,3.97,2.378,2.378,0,0,0,3.214.19,3.862,3.862,0,0,0,1.395-2.45,7.31,7.31,0,0,0,.061-3.24c-0.3-1.72-1.274-2.76-3.457-2.94a3.735,3.735,0,0,0-1.82.24,2.446,2.446,0,0,0-1.516,1.66,0.4,0.4,0,0,0,.364.06,0.841,0.841,0,0,1,.606.79,0.68,0.68,0,0,1-.485.74,0.859,0.859,0,0,1-.971-0.37,1.389,1.389,0,0,1-.06-1.1,4.233,4.233,0,0,1,3.457-3.18,5.083,5.083,0,0,1,6.066,5.14c0.06,1.22,0,2.44.06,3.67a2.9,2.9,0,0,0,1.517,2.51C966.933,2019.85,967.054,2019.85,966.994,2020.03Zm-12.435.55a4.4,4.4,0,0,0,2.548,2.57c0.242,0.13.364,0.13,0.364-.24a0.739,0.739,0,0,1,.788-0.8,0.864,0.864,0,0,1,.849.8,0.909,0.909,0,0,1-.606,1.04,1.5,1.5,0,0,1-.728,0,6.861,6.861,0,0,1-5.216-4.04,22.654,22.654,0,0,1-.91-2.14,4.722,4.722,0,0,0-3.7-2.76c-0.3-.06-0.243.13-0.243,0.31v3.49a0.73,0.73,0,0,1-.667.92c-1.334.36-1.456,0.3-1.456-1.04v-9.31a0.718,0.718,0,0,1,.667-0.91c1.335-.37,1.456-0.25,1.456,1.04v2.81a0.424,0.424,0,0,1-.364.49l-1.031.12a3.666,3.666,0,0,0,3.276-1.16,5.369,5.369,0,0,0,.97-1.59,2.857,2.857,0,0,1,3.033-1.84c0.121,0,.3-0.06.3,0.13,0.061,0.24-.182.18-0.243,0.24a0.965,0.965,0,0,0-.485.49,5.27,5.27,0,0,0-.364.86,6.609,6.609,0,0,1-2.669,3.73,5.118,5.118,0,0,1,3.64,4.16C954.013,2018.81,954.256,2019.73,954.559,2020.58Zm-11.16-11.87a1.072,1.072,0,0,0-.546.61,11.291,11.291,0,0,0-.486,1.29,5.616,5.616,0,0,1-2.547,3.24,7.99,7.99,0,0,1,1.759,1.35,7.051,7.051,0,0,1,1.88,4.22c0.061,0.37-.06.55-0.485,0.49l-0.849-.12a1.1,1.1,0,0,1-.91-0.92,4.733,4.733,0,0,0-3.336-3.79c-0.364-.13-0.425,0-0.425.36v3.49a0.744,0.744,0,0,1-.606.8l-1.153.18a0.362,0.362,0,0,1-.424-0.43v-4.1c0-.43-0.122-0.43-0.425-0.3a4.8,4.8,0,0,0-3.336,3.91,0.876,0.876,0,0,1-.606.74l-1.153.18c-0.364.06-.425-0.12-0.425-0.43a6.723,6.723,0,0,1,3.579-5.57c0.607-.3,1.153-0.49,1.7-0.79a2.891,2.891,0,0,0-1.578.43,0.533,0.533,0,0,1-.606-0.07,5.609,5.609,0,0,1-1.82-2.44c-0.242-.55-0.485-1.17-0.728-1.72a0.936,0.936,0,0,0-.667-0.67,0.16,0.16,0,0,1-.182-0.18c0-.19.182-0.13,0.243-0.13a2.812,2.812,0,0,1,3.033,1.72,7,7,0,0,0,.97,1.59,5.635,5.635,0,0,0,1.638.98c0.3,0.12.364,0.06,0.364-.25v-3.06a0.753,0.753,0,0,1,.606-0.85l1.092-.19a0.362,0.362,0,0,1,.425.43v3.98a3.7,3.7,0,0,0,2.608-2.02,4.6,4.6,0,0,1,.425-0.74,2.767,2.767,0,0,1,2.911-1.59c0.121,0,.3-0.06.3,0.13C943.7,2008.71,943.459,2008.65,943.4,2008.71Zm-22.686,16.4a3.935,3.935,0,0,1-2.85-3.24,2.044,2.044,0,0,1,0-.86,0.811,0.811,0,0,1,.909-0.67,0.779,0.779,0,0,1,.728.73,0.917,0.917,0,0,1-.667.92,0.224,0.224,0,0,1-.182.06,2.571,2.571,0,0,0,2.366,1.96,3.367,3.367,0,0,0,4-2.51,7.267,7.267,0,0,0,.364-2.94,4.024,4.024,0,0,1-1.153,1.11,0.867,0.867,0,0,1-1.213,0c-0.364-.31-0.788-0.56-1.152-0.92h0.606a2.855,2.855,0,0,0,2.851-3v-6.55a0.655,0.655,0,0,1,.485-0.67,3.852,3.852,0,0,1,1.456-.19,0.2,0.2,0,0,1,.243.25v10.89a6.283,6.283,0,0,1-1.881,4.71A4.645,4.645,0,0,1,920.713,2025.11Zm2.73-5.02a4.153,4.153,0,0,1-4.246-1.28,6.27,6.27,0,0,1-1.334-4.1c-0.061-1.35.06-2.69-.122-4.1a8.756,8.756,0,0,0-.728-2.45c0.122-.12.182,0,0.243,0.06a11.687,11.687,0,0,0,2.184,1.1,8.414,8.414,0,0,1,.485,3v2.82a5.07,5.07,0,0,0,3.093,4.77C923.14,2019.97,923.322,2020.03,923.443,2020.09Zm-6-13.34a3.955,3.955,0,0,1,1.456,1.53,4.546,4.546,0,0,1-2.851-1.9A5.726,5.726,0,0,1,917.438,2006.75Zm-6.854,2.76a2.72,2.72,0,0,0-2.487,2.08,7.821,7.821,0,0,0,.061,5.26,2.788,2.788,0,0,0,2.547,1.78,2.969,2.969,0,0,0,2.548-1.78,8,8,0,0,0,0-5.57,4.884,4.884,0,0,0-1.4-1.77,4.851,4.851,0,0,1,4.246,5.63,5.5,5.5,0,0,1-1.456,3.55,4.794,4.794,0,0,1-7.036-.06,0.063,0.063,0,0,1-.061-0.07,0.518,0.518,0,0,0-.061.43v4.65a0.87,0.87,0,0,1-.788,1.04c-1.213.31-1.274,0.25-1.274-.98v-10.64a4.766,4.766,0,0,1,1.516-3.74c1.941-1.71,6.369-1.83,8.31,1.23a2.632,2.632,0,0,1,.3.61,6.11,6.11,0,0,0-2.73-1.59A6.648,6.648,0,0,0,910.584,2009.51Zm-9.28,14.44c-0.364.06-.425-0.12-0.425-0.43v-2.81c0-.37-0.061-0.55-0.485-0.55h-6.672c-0.364,0-.425.12-0.425,0.42v2.94c0,0.37-.121.43-0.425,0.43H892.63c-1.335-.12-1.456-0.25-1.456-1.59v-3.31c0-.36.121-0.49,0.425-0.49a0.732,0.732,0,0,0,.849-0.49,6.5,6.5,0,0,0,1.031-3.79,8.027,8.027,0,0,1,.061-1.71,4.791,4.791,0,0,1,4.124-4.17,8.337,8.337,0,0,1,2.73,0c1.213,0.43,1.455.74,1.334,2.02a4.807,4.807,0,0,0-1.88-.85,3.783,3.783,0,0,0-4.064,2.45,6.274,6.274,0,0,0-.364,2.57,6.582,6.582,0,0,1-.849,3.55l-0.182.36a3.294,3.294,0,0,0,.485.06h4.367c0.364,0,.485-0.06.485-0.49v-7.89c0-.55,0-0.55.546-0.37,0.182,0.06.3,0.12,0.486,0.19a1.748,1.748,0,0,1,1.152,1.83l-0.061,6.24c0,0.37.061,0.56,0.486,0.49,0.667,0,.728.07,0.728,0.74v3.67a0.744,0.744,0,0,1-.607.8Zm-12.738-12.24a3.2,3.2,0,0,0-1.577-2.08,4.726,4.726,0,0,1,4.124,5.26,9.654,9.654,0,0,1-.606,2.27c-1.092,2.44-3.276,3.3-5.884,2.87a4.928,4.928,0,0,1-4.185-4.89,11.118,11.118,0,0,1,.243-3.19,5,5,0,0,1,5.944-3.85,4.619,4.619,0,0,1,4,3.18c-1.456-1.47-3.275-2.45-5.216-1.9a4.224,4.224,0,0,0-.668.25,2.547,2.547,0,0,0-1.516,1.65,7.676,7.676,0,0,0-.061,5.57,2.685,2.685,0,0,0,2.669,1.84,2.78,2.78,0,0,0,2.548-1.96,9.333,9.333,0,0,0,.3-4.29C888.626,2012.2,888.626,2011.95,888.566,2011.71Zm-6.672-6.06c-1.456-.37-2.912-0.8-4.307-1.22-0.243-.06-0.364-0.06-0.364.24a84.479,84.479,0,0,0,.425,11.08,15.26,15.26,0,0,0,.728,3.3,2.3,2.3,0,0,0,1.819,1.72,0.461,0.461,0,0,1,.364.49,0.435,0.435,0,0,1-.485.43,3.242,3.242,0,0,1-2.608-.92,3.931,3.931,0,0,1-.849-1.35,20.058,20.058,0,0,1-1.335-6c-0.242-3.06-.364-6.06-0.364-9.12,0-.42-0.06-0.55-0.485-0.55a4.166,4.166,0,0,1-1.213-.12c-0.485-.06-0.546.12-0.546,0.55,0,1.84,0,3.73-.061,5.57a34.507,34.507,0,0,1-1.516,9.92,9.672,9.672,0,0,1-3.336,5.01,6.105,6.105,0,0,1-4.185,1.29,2.915,2.915,0,0,1-1.941-.92,2.335,2.335,0,0,1,.97-3.79,1.3,1.3,0,0,1,.849,0,0.727,0.727,0,0,1,.486.73,0.755,0.755,0,0,1-.425.74,0.711,0.711,0,0,1-.849-0.13c-0.3-.36-0.425-0.12-0.546.13a1.148,1.148,0,0,0,.606,1.65,3.141,3.141,0,0,0,3.458-.68,8.624,8.624,0,0,0,2.244-3.79,32.35,32.35,0,0,0,1.577-8.02c0.243-2.57.182-5.2,0.182-7.83,0-.25.061-0.43-0.3-0.43-3.458.49-6.126,2.02-7.764,5.2a1.019,1.019,0,0,0-.182.55,0.424,0.424,0,0,1-.485.43c-0.364-.06-0.364-0.3-0.364-0.61a6.592,6.592,0,0,1,1.273-3.49,9.875,9.875,0,0,1,6.369-4.04,18.992,18.992,0,0,1,9.766.8,54.483,54.483,0,0,0,5.338,1.59,7.813,7.813,0,0,0,2.365,0,3.049,3.049,0,0,0,1.881-4.77,2.5,2.5,0,0,0-.971-0.68,0.926,0.926,0,0,1-.425.86,0.74,0.74,0,0,1-.909-0.12,0.851,0.851,0,0,1-.243-0.8,0.711,0.711,0,0,1,.728-0.55,2.988,2.988,0,0,1,2.365,1.16,3.963,3.963,0,0,1-1.88,6.43A8.193,8.193,0,0,1,881.894,2005.65Z" transform="translate(-861 -1998)"/>
  <path id="Shape_11_copy" data-name="Shape 11 copy" class="cls-2" d="M921.563,2009.63c-0.728-.06-1.4-0.31-2.123-0.31a1.848,1.848,0,0,1-.971-0.3,5.172,5.172,0,0,1-1.456-.86c-0.364-.43-0.728-0.92-1.091-1.35a0.291,0.291,0,0,0-.3-0.12,0.665,0.665,0,0,1-.91-0.49,0.422,0.422,0,0,0-.242-0.3,5.264,5.264,0,0,0-3.64-.43,1.838,1.838,0,0,0-.97.61,2.524,2.524,0,0,0-.425-1.53c-0.182-.25-0.06-0.31.182-0.37a4.484,4.484,0,0,1,2.184,0,8.786,8.786,0,0,1,2.79,1.29,4.608,4.608,0,0,1-.667-1.1,5.278,5.278,0,0,1-.485-2.88,1.6,1.6,0,0,1,1.516-1.59,1.858,1.858,0,0,1,1.941,1.16,0.161,0.161,0,0,1-.1.04,2.115,2.115,0,0,1,.1,1.31,7.27,7.27,0,0,1-.485,1.89c0.121,0.31.182,0,.242-0.06a7.946,7.946,0,0,1,1.881-1.34,3.191,3.191,0,0,1,2.365-.25,1.641,1.641,0,0,1,1.213,1.53,1.8,1.8,0,0,1-.727,1.84,0.052,0.052,0,0,0-.025-0.02,0.414,0.414,0,0,0,.025.08c0-.06-0.91.49-1.4,0.61a8.369,8.369,0,0,1-2.122,0,0.377,0.377,0,0,0-.425.06,2.609,2.609,0,0,1-1.1-.2,4.284,4.284,0,0,0,1.952,1.43,1.9,1.9,0,0,1,.607.3,8.1,8.1,0,0,0,3.032.12c0.364-.06.546,0,0.546,0.43C922.472,2009.75,922.472,2009.69,921.563,2009.63Zm-6.309-8.57a1.348,1.348,0,0,0-.485.06,1.7,1.7,0,0,0-.546,1.35,6.771,6.771,0,0,0,.667,2.69c0.109,0.33.27,0.35,0.477,0.18h0.069a0.228,0.228,0,0,1-.017-0.04c0.006-.01.011-0.01,0.017-0.02a7.1,7.1,0,0,0,.425-2.57A2.321,2.321,0,0,0,915.254,2001.06Zm3.64,4.65a3.069,3.069,0,0,0,1.941-1.16,0.455,0.455,0,0,0-.364-0.55,2.038,2.038,0,0,0-1.213-.25,7.5,7.5,0,0,0-3.276,1.78,0.234,0.234,0,0,0,0,.37A11.425,11.425,0,0,0,918.894,2005.71Z" transform="translate(-861 -1998)"/>
</svg>
