<?xml version="1.0" encoding="utf-8"?>
<!-- Generator: Adobe Illustrator 20.1.0, SVG Export Plug-In . SVG Version: 6.00 Build 0)  -->
<svg version="1.1" id="Слой_1" xmlns="http://www.w3.org/2000/svg" xmlns:xlink="http://www.w3.org/1999/xlink" x="0px" y="0px"
	 viewBox="0 0 512 512" style="enable-background:new 0 0 512 512;" xml:space="preserve">
<style type="text/css">
	.st0{fill:#4A40FD;}
</style>
<path id="qr" class="st0" d="M0,0v170h170V0H0z M130,130H40V40h90V130z M65,65h40v40H65V65z M342,0v170h170V0H342z M472,130h-90V40
	h90V130z M407,65h40v40h-40V65z M0,342v170h170V342H0z M130,472H40v-90h90V472z M65,407h40v40H65V407z M40,197h40v40H40V197z
	 M120,277v-40H80v40h39v40h40v-40H120z M280,77h40v40h-40V77z M200,40h40v77h-40V40z M240,0h40v40h-40V0z M240,117v40h-40v40h80v-80
	H240z M280,355v-39h-40v-79h-40v80h40v39h40v39h80v-40H280z M280,197h40v80h-40V197z M472,236v-39h-73v40h-39v40h40v39h112v-80H472z
	 M472,276h-72v-39h72V276z M472,355h40v80h-40V355z M320,277h40v40h-40V277z M360,395h40v40h-40V395z M400,355h40v40h-40V355z
	 M400,435v77h40v-37h32v-40H400z M200,356h40v76h-40V356z M320,472v-40h-80v80h40v-40h39v40h40v-40H320z M120,197h80v40h-80V197z
	 M0,237h40v80H0V237z"/>
</svg>
