<svg xmlns="http://www.w3.org/2000/svg" width="512" height="512" viewBox="0 0 512 512">
  <path id="qr" d="M0,0V170H170V0H0ZM130,130H40V40h90v90ZM65,65h40v40H65V65ZM342,0V170H512V0H342ZM472,130H382V40h90v90ZM407,65h40v40H407V65ZM0,342V512H170V342H0ZM130,472H40V382h90v90ZM65,407h40v40H65V407ZM40,197H80v40H40V197Zm80,80V237H80v40h39v40h40V277H120ZM280,77h40v40H280V77ZM200,40h40v77H200V40ZM240,0h40V40H240V0Zm0,117v40H200v40h80V117H240Zm40,238V316H240V237H200v80h40v39h40v39h80V355H280Zm0-158h40v80H280V197Zm192,39V197H399v40H360v40h40v39H512V236H472Zm0,40H400V237h72v39Zm0,79h40v80H472V355ZM320,277h40v40H320V277Zm40,118h40v40H360V395Zm40-40h40v40H400V355Zm0,80v77h40V475h32V435H400ZM200,356h40v76H200V356ZM320,472V432H240v80h40V472h39v40h40V472H320ZM120,197h80v40H120V197ZM0,237H40v80H0V237Z"/>
</svg>
