<svg xmlns="http://www.w3.org/2000/svg" width="50" height="50" viewBox="0 0 50 50">
  <defs>
    <style>
      .cls-1 {
        fill: #ff71a9;
      }

      .cls-2 {
        fill: #fff;
        fill-rule: evenodd;
      }
    </style>
  </defs>
  <circle id="Ellipse_1_copy_2" data-name="Ellipse 1 copy 2" class="cls-1" cx="25" cy="25" r="25"/>
  <path id="Forma_1" data-name="Forma 1" class="cls-2" d="M1735.83,547h-11.67a3.177,3.177,0,0,1-3.16-3.188V536h2v3h14V523h-14v2h-2v-4.812a3.177,3.177,0,0,1,3.16-3.188h11.67a3.179,3.179,0,0,1,3.17,3.188v23.624A3.179,3.179,0,0,1,1735.83,547ZM1723,541l0.11,2.9a1.074,1.074,0,0,0,1.05,1.1h11.67a1.076,1.076,0,0,0,1.06-1.1L1737,541h-14Zm14.01-21a1.038,1.038,0,0,0-1.07-1h-11.85a1.038,1.038,0,0,0-1.07,1v1h13.99v-1Zm-8,22.032h1.98L1731,544h-2Zm3.25-15.957q0.06,0.029.12,0.063a1.175,1.175,0,0,1,.23.149c0.04,0.035.07,0.073,0.11,0.112a1.485,1.485,0,0,1,.14.211,0.787,0.787,0,0,1,.07.139c0.01,0.026.03,0.047,0.04,0.076a1.464,1.464,0,0,1,.02.209c0,0.031.02,0.058,0.02,0.091v6.75a1.146,1.146,0,0,1-1.17,1.125h-11.68a1.141,1.141,0,0,1-1.16-1.119v-6.75c0-.033.02-0.06,0.02-0.092a1.464,1.464,0,0,1,.02-0.209c0.01-.028.03-0.049,0.04-0.076,0.02-.048.04-0.094,0.06-0.139a0.984,0.984,0,0,1,.15-0.21,0.9,0.9,0,0,1,.11-0.113,1.217,1.217,0,0,1,.23-0.148q0.06-.034.12-0.063a1.174,1.174,0,0,1,.41-0.081h11.68A1.182,1.182,0,0,1,1732.26,526.075ZM1723,528l3,2,3-2h-6Zm8,1-4.39,2.464a1.22,1.22,0,0,1-1.21,0L1721,529v4h10v-4Zm-15.01-1H1718v2h-2.01v-2Zm2.01,5h-4v-2h4v2Z" transform="translate(-1704 -507)"/>
</svg>
