<svg xmlns="http://www.w3.org/2000/svg" width="110" height="88" viewBox="0 0 110 88">
  <defs>
    <style>
      .cls-1 {
        fill: #cc2229;
      }

      .cls-1, .cls-2 {
        fill-rule: evenodd;
      }

      .cls-2 {
        fill: #fff;
      }
    </style>
  </defs>
  <path id="Shape_2_copy" data-name="Shape 2 copy" class="cls-1" d="M918.868,763.414l-41.387-21.863,38.459,8.795,21.617-9.252Zm2.164,40.663-8.789,11.488-2.229-10.62,3.9,4.51Z" transform="translate(-859 -732)"/>
  <path id="Shape_2_copy_3" data-name="Shape 2 copy 3" class="cls-2" d="M968.805,812.314h0a6.024,6.024,0,0,1-1.685,3.061,5.741,5.741,0,0,1-2.182,1.318,6.653,6.653,0,0,1-1.591.257,3.682,3.682,0,0,1-1.462-.3,2.4,2.4,0,0,1-.344-0.185,2.2,2.2,0,0,1-.3-0.238l-0.9,3.457h-3.152l3.067-11.784h3l-0.175.609a4.726,4.726,0,0,1,2.747-.891,2.944,2.944,0,0,1,2.754,1.313,3.618,3.618,0,0,1,.439,2.159A7.405,7.405,0,0,1,968.805,812.314Zm-3.146-1.44a1.11,1.11,0,0,0-.423-0.734,1.309,1.309,0,0,0-.778-0.227,1.817,1.817,0,0,0-.684.136,2.536,2.536,0,0,0-.662.414,2.416,2.416,0,0,0-.564.729,5,5,0,0,0-.493,1.483c-0.022.128-.039,0.258-0.049,0.388a2.271,2.271,0,0,0,.111.955,0.787,0.787,0,0,0,.389.467,1.519,1.519,0,0,0,.731.158,1.9,1.9,0,0,0,1.431-.612,4.09,4.09,0,0,0,.9-1.75h0a4.012,4.012,0,0,0,.137-0.766A2.091,2.091,0,0,0,965.659,810.874Zm-8,2.285h-6.56c-0.007.043-.013,0.083-0.016,0.12a1.755,1.755,0,0,0,.014.609,1.175,1.175,0,0,0,.129.4,1.308,1.308,0,0,0,.253.324,1.031,1.031,0,0,0,.389.211,1.812,1.812,0,0,0,.517.069,2.33,2.33,0,0,0,1.038-.243,1.31,1.31,0,0,0,.4-0.3,2.978,2.978,0,0,0,.369-0.55h3.189a8.652,8.652,0,0,1-.572.958,4.1,4.1,0,0,1-.6.677,4.05,4.05,0,0,1-.743.59,6.5,6.5,0,0,1-1.016.5,7.32,7.32,0,0,1-2.709.454,5.767,5.767,0,0,1-2.033-.321,3.558,3.558,0,0,1-.749-0.4,2.472,2.472,0,0,1-.909-1.215,3.588,3.588,0,0,1-.174-0.815c-0.01-.116-0.015-0.233-0.015-0.349s0-.267.015-0.4a6.717,6.717,0,0,1,.183-1.11,6.067,6.067,0,0,1,1.307-2.5,5.75,5.75,0,0,1,2.242-1.572,7.287,7.287,0,0,1,1.312-.381,7.386,7.386,0,0,1,1.407-.133,4.87,4.87,0,0,1,2.053.378,2.793,2.793,0,0,1,1.224,1.044,3.349,3.349,0,0,1,.292.715,3.469,3.469,0,0,1,.123.755,5.832,5.832,0,0,1-.2,1.828Zm-2.962-2.916a1.343,1.343,0,0,0-.954-0.352,2.6,2.6,0,0,0-.83.12,1.608,1.608,0,0,0-.621.395,5.049,5.049,0,0,0-.383.454,2.793,2.793,0,0,0-.3.486h3.268a2.8,2.8,0,0,0,.044-0.329A0.906,0.906,0,0,0,954.692,810.243Zm2.962,2.916h0ZM875.86,790.348l24.553-29.209,55.7,28.61-52.519-11Zm39.364-42.812a7.77,7.77,0,1,1,7.566-7.768A7.685,7.685,0,0,1,915.224,747.536Zm-38.21,69.487h-3.145l1.684-6.458h-2.677l-1.684,6.458h-3.145l2.247-8.63h8.967Zm-8.275-5.5c-0.018.116-.032,0.215-0.043,0.293h-3.027a2.2,2.2,0,0,0-.15-1.211,0.847,0.847,0,0,0-.8-0.361,2.219,2.219,0,0,0-.812.157,1.122,1.122,0,0,0-.381.227,3.6,3.6,0,0,0-.372.389,4.147,4.147,0,0,0-.682,1.527,6.139,6.139,0,0,0-.195,1.078,1.683,1.683,0,0,0,.152.964,1.01,1.01,0,0,0,.978.563,1.446,1.446,0,0,0,1.106-.429,3,3,0,0,0,.4-0.526,4.32,4.32,0,0,0,.36-0.766h3.117a10.278,10.278,0,0,1-.5,1.079,8.2,8.2,0,0,1-.55.836,4.691,4.691,0,0,1-.757.747,6.272,6.272,0,0,1-1.012.642,5.125,5.125,0,0,1-1.249.448,6.9,6.9,0,0,1-1.5.15,5.2,5.2,0,0,1-2.088-.371,2.7,2.7,0,0,1-1.252-1.017,3.192,3.192,0,0,1-.469-1.849,6.25,6.25,0,0,1,.185-1.327,6.715,6.715,0,0,1,.358-1.045,8.491,8.491,0,0,1,.534-1.016,5.537,5.537,0,0,1,1.98-1.855,6.431,6.431,0,0,1,3.314-.779,4,4,0,0,1,2.339.564A2.332,2.332,0,0,1,868.7,810a4.22,4.22,0,0,1,.087.561,4.073,4.073,0,0,1-.006.605C868.77,811.284,868.757,811.4,868.739,811.521Zm-0.345,1.905h0Zm11.788-2.965a6.475,6.475,0,0,1,.74-0.811,6.18,6.18,0,0,1,.847-0.644,6.269,6.269,0,0,1,.886-0.435,6.759,6.759,0,0,1,.911-0.289,7.67,7.67,0,0,1,1.752-.213,6.54,6.54,0,0,1,1.661.208,3.437,3.437,0,0,1,1.41.731,2.535,2.535,0,0,1,.512.633,3.062,3.062,0,0,1,.317.822,3.529,3.529,0,0,1,.07,1.086,6.572,6.572,0,0,1-.2,1.15h0a6.259,6.259,0,0,1-1.037,2.237,5.748,5.748,0,0,1-1.594,1.455,6.25,6.25,0,0,1-1.8.734c-0.323.072-.621,0.128-0.9,0.164a6.724,6.724,0,0,1-.863.056,5.879,5.879,0,0,1-1.775-.26,3.355,3.355,0,0,1-1.392-.816A2.71,2.71,0,0,1,879,814.8a3.956,3.956,0,0,1-.047-0.984,6.9,6.9,0,0,1,.19-1.115A6.385,6.385,0,0,1,880.182,810.461Zm2.292,4.333a1.206,1.206,0,0,0,1,.375,1.919,1.919,0,0,0,1.464-.621,4.237,4.237,0,0,0,.905-1.849h0a5.261,5.261,0,0,0,.172-0.947,1.578,1.578,0,0,0-.253-1.132,1.226,1.226,0,0,0-1.011-.379,1.9,1.9,0,0,0-1.454.614,4.3,4.3,0,0,0-.893,1.843,5.393,5.393,0,0,0-.172.961A1.6,1.6,0,0,0,882.474,814.794Zm11.308-6.57-0.175.608a4.729,4.729,0,0,1,2.748-.891,2.943,2.943,0,0,1,2.753,1.313,3.607,3.607,0,0,1,.438,2.159,7.3,7.3,0,0,1-.206,1.22h0a6.03,6.03,0,0,1-1.684,3.061,5.75,5.75,0,0,1-2.183,1.319,6.7,6.7,0,0,1-1.592.256,3.68,3.68,0,0,1-1.461-.3,2.27,2.27,0,0,1-.646-0.421l-0.9,3.455H887.72l3.068-11.783h2.994Zm-1.13,6.112a0.785,0.785,0,0,0,.39.468,1.531,1.531,0,0,0,.731.157,1.9,1.9,0,0,0,1.43-.612,4.06,4.06,0,0,0,.9-1.749h0a4.092,4.092,0,0,0,.137-0.766,2.052,2.052,0,0,0-.044-0.64,1.1,1.1,0,0,0-.423-0.734,1.308,1.308,0,0,0-.777-0.227,1.808,1.808,0,0,0-.686.136,2.465,2.465,0,0,0-.66.413,2.4,2.4,0,0,0-.565.728,5.035,5.035,0,0,0-.542,1.871A2.283,2.283,0,0,0,892.652,814.336Zm7.557-5.943h8.765l-0.565,2.172H905.6l-1.683,6.458h-3.146l1.684-6.458h-2.806Zm11.507,8.306h-4.151l2.293-8.693Zm6.091,0h-4.149l6.453-8.63Zm2.557-3.678a3.367,3.367,0,0,1,1.175-.845,4.955,4.955,0,0,1,1.312-.412c0.231-.045.48-0.086,0.743-0.132s0.541-.08.833-0.111,0.494-.057.605-0.073c0.323-.04.563-0.075,0.717-0.1a1.155,1.155,0,0,0,.422-0.144,0.473,0.473,0,0,0,.166-0.261l0.055-.2c0.014-.075.022-0.125,0.025-0.157q0.046-.657-0.9-0.656a2.874,2.874,0,0,0-.653.058,0.9,0.9,0,0,0-.422.227,1.661,1.661,0,0,0-.307.4,3.3,3.3,0,0,0-.236.6H920.87a5.912,5.912,0,0,1,.351-0.953,4.163,4.163,0,0,1,.457-0.734,3.562,3.562,0,0,1,.69-0.657,5.28,5.28,0,0,1,.984-0.563,5.537,5.537,0,0,1,1.22-.349,8.715,8.715,0,0,1,1.513-.12,7.635,7.635,0,0,1,1.522.133,3.074,3.074,0,0,1,1.045.39,1.864,1.864,0,0,1,.9,1.252,3.252,3.252,0,0,1,.007.624,5.166,5.166,0,0,1-.135.83l-0.991,3.692c-0.055.224-.1,0.411-0.131,0.565a3.2,3.2,0,0,0-.062.388c0,0.034,0,.067,0,0.1a0.349,0.349,0,0,0,.07.2,0.753,0.753,0,0,0,.256.177l-0.133.521h-3.2l-0.023-.572a4.194,4.194,0,0,1-.638.364,4.116,4.116,0,0,1-.715.24,7.18,7.18,0,0,1-1.617.225,4.663,4.663,0,0,1-1.522-.207,1.475,1.475,0,0,1-.83-0.622,2.158,2.158,0,0,1-.307-1.289,3.006,3.006,0,0,1,.075-0.469A3.213,3.213,0,0,1,920.364,813.021Zm2.661,1.681a0.636,0.636,0,0,0,.277.171,1.488,1.488,0,0,0,.45.054,2.027,2.027,0,0,0,1.141-.4,2.629,2.629,0,0,0,.9-1.446h0l0.015-.064-0.244.055c-0.024.006-.155,0.03-0.391,0.079s-0.444.082-.615,0.106a4.278,4.278,0,0,0-.583.121,4.683,4.683,0,0,0-.6.195,0.678,0.678,0,0,0-.291.224,1.037,1.037,0,0,0-.167.394,0.6,0.6,0,0,0-.022.118A0.615,0.615,0,0,0,923.025,814.7Zm7.422-3.3a8.65,8.65,0,0,1,.534-1.017,5.518,5.518,0,0,1,1.98-1.854,6.421,6.421,0,0,1,3.314-.78,4.008,4.008,0,0,1,2.339.563,2.342,2.342,0,0,1,.978,1.367,4.206,4.206,0,0,1,.086.561,4.814,4.814,0,0,1-.045.96c-0.018.118-.033,0.217-0.043,0.3h-3.028a2.187,2.187,0,0,0-.15-1.212,0.845,0.845,0,0,0-.8-0.361,2.226,2.226,0,0,0-.813.158,1.131,1.131,0,0,0-.38.226,3.61,3.61,0,0,0-.372.39,4.109,4.109,0,0,0-.681,1.527,6.135,6.135,0,0,0-.2,1.079,1.689,1.689,0,0,0,.153.963,1.011,1.011,0,0,0,.979.563,1.445,1.445,0,0,0,1.106-.43,2.871,2.871,0,0,0,.4-0.526,4.342,4.342,0,0,0,.36-0.765h3.117a10.339,10.339,0,0,1-.5,1.077,8.181,8.181,0,0,1-.55.839,4.827,4.827,0,0,1-.758.746,6.3,6.3,0,0,1-1.011.642,5.109,5.109,0,0,1-1.249.448,6.979,6.979,0,0,1-1.5.149,5.2,5.2,0,0,1-2.087-.37,2.727,2.727,0,0,1-1.252-1.017,3.182,3.182,0,0,1-.469-1.851c0.006-.146.008-0.229,0.011-0.25A6.5,6.5,0,0,1,930.447,811.4Zm8.842,1.707h0Zm1.18-5.034h8.765l-0.563,2.172h-2.814l-1.683,6.459h-3.146l1.684-6.459h-2.807Z" transform="translate(-859 -732)"/>
</svg>
