<svg xmlns="http://www.w3.org/2000/svg" width="66" height="89.531" viewBox="0 0 66 89.531">
  <defs>
    <style>
      .cls-1 {
        fill: #fff;
        fill-rule: evenodd;
      }
    </style>
  </defs>
  <path class="cls-1" d="M777.164,753.848a8.315,8.315,0,1,1-8.314-8.4A8.4,8.4,0,0,1,777.164,753.848Zm-14.537,0a6.236,6.236,0,1,0,6.248-6.33A6.3,6.3,0,0,0,762.627,753.848ZM749.69,770.166l-4.183-1.764a6.844,6.844,0,0,1,5.164.078,6.955,6.955,0,0,1,3.8,3.865,7.113,7.113,0,0,1,0,5.448,6.994,6.994,0,0,1-9.193,3.814,7.082,7.082,0,0,1-3.615-3.477l4.054,1.687a5.136,5.136,0,0,0,6.766-2.8A5.247,5.247,0,0,0,749.69,770.166Zm8.263,25.839a33.159,33.159,0,0,1-31.812-24.386l12.678,5.318a9.351,9.351,0,0,0,18.54-1.868c0-.155-0.026-0.311-0.026-0.441l11.233-8.146c0.1,0,.18.026,0.284,0.026a12.648,12.648,0,1,0-12.472-12.66v0.182L748.5,765.6c-0.155,0-.336-0.026-0.516-0.026a9.273,9.273,0,0,0-5.268,1.661L725,759.815A33.075,33.075,0,1,1,757.953,796.005Zm-20.716,18.872a4.585,4.585,0,0,0-.674-0.369c-0.259-.119-0.54-0.239-0.84-0.362a4.294,4.294,0,0,1-1.713-1.169,2.555,2.555,0,0,1-.564-1.668,2.657,2.657,0,0,1,.308-1.316,2.612,2.612,0,0,1,.837-0.906,3.758,3.758,0,0,1,1.227-.523,6.288,6.288,0,0,1,1.477-.168,8.826,8.826,0,0,1,1.357.093,5.347,5.347,0,0,1,1.09.283v2.044a3.308,3.308,0,0,0-.537-0.3,4.179,4.179,0,0,0-.6-0.216,4.5,4.5,0,0,0-.612-0.126,4.209,4.209,0,0,0-.577-0.041,3,3,0,0,0-.684.072,1.741,1.741,0,0,0-.519.2,1,1,0,0,0-.328.311,0.736,0.736,0,0,0-.117.407,0.782,0.782,0,0,0,.13.441,1.5,1.5,0,0,0,.369.369,4.039,4.039,0,0,0,.581.342q0.342,0.168.773,0.345a8.518,8.518,0,0,1,1.056.523,3.747,3.747,0,0,1,.8.626,2.423,2.423,0,0,1,.513.8,3.178,3.178,0,0,1-.133,2.42,2.529,2.529,0,0,1-.845.9,3.657,3.657,0,0,1-1.24.5,7.2,7.2,0,0,1-1.494.15,8.239,8.239,0,0,1-1.535-.137,4.612,4.612,0,0,1-1.261-.41V815.8a4.193,4.193,0,0,0,1.292.748,4.137,4.137,0,0,0,1.408.25,3.128,3.128,0,0,0,.728-0.075,1.7,1.7,0,0,0,.52-0.209,0.9,0.9,0,0,0,.311-0.314,0.79,0.79,0,0,0,.1-0.393,0.845,0.845,0,0,0-.165-0.513A1.771,1.771,0,0,0,737.237,814.877Zm12.133-4.519h-2.8v8.005h-2.215v-8.005h-2.782v-1.8h7.793v1.8Zm7.672,0H753.6v2.181H756.8v1.791H753.6v2.242h3.671v1.791h-5.879v-9.8h5.653v1.8Zm7.83-1.8,3.487,9.8h-2.407l-0.7-2.18h-3.486l-0.691,2.18h-2.392l3.568-9.8h2.618Zm-0.123,5.926-1.052-3.295a4.2,4.2,0,0,1-.164-0.881h-0.055a3.75,3.75,0,0,1-.171.854l-1.066,3.322h2.508Zm10.77-.116a8.243,8.243,0,0,1,.348,1.4h0.041a14.036,14.036,0,0,1,.39-1.415l2-5.8h3.151v9.8h-2.18V812.5q0-.95.082-2.1H779.3a10.32,10.32,0,0,1-.308,1.3l-2.3,6.665h-1.8l-2.338-6.6a12.706,12.706,0,0,1-.308-1.368h-0.061q0.088,1.451.089,2.543v5.421h-1.99v-9.8h3.234Z" transform="translate(-725 -729)"/>
</svg>
