<svg xmlns="http://www.w3.org/2000/svg" width="112" height="20" viewBox="0 0 112 20">
  <defs>
    <style>
      .cls-1 {
        fill: #fff;
        fill-rule: evenodd;
      }
    </style>
  </defs>
  <path class="cls-1" d="M923.362,1545h-2.584a0.485,0.485,0,0,0-.452.47v11.66a0.469,0.469,0,0,0,.51.44h2.436a0.48,0.48,0,0,0,.538-0.44v-11.57a0.488,0.488,0,0,0-.448-0.56m-5.8,9.38h-6.1v-8.91a0.408,0.408,0,0,0-.48-0.47h-2.434a0.4,0.4,0,0,0-.481.47v11.66a0.411,0.411,0,0,0,.45.45h9.047a0.386,0.386,0,0,0,.449-0.45v-2.3a0.424,0.424,0,0,0-.449-0.45m52.018-9.38H959.122a0.394,0.394,0,0,0-.45.44v2.24a0.409,0.409,0,0,0,.45.45h3.456v9a0.4,0.4,0,0,0,.48.44h2.5a0.39,0.39,0,0,0,.48-0.44v-9h3.456a0.5,0.5,0,0,0,.511-0.47v-2.22a0.416,0.416,0,0,0-.421-0.44m-30.652,6.18H936.7a0.56,0.56,0,0,0-.543.54v2.72H933.4c-2.255,0-2.706-1.29-2.706-2.87v-0.6c0-1.49.541-2.87,2.706-2.87h5.528a0.457,0.457,0,0,0,.511-0.44v-2.22a0.442,0.442,0,0,0-.511-0.44h-5.71c-3.908,0-6.01,2.15-6.01,5.64v1.53c0,3.26,1.832,5.41,5.769,5.41H938.9c0.481,0,.541-0.36.541-0.72v-5.11a0.488,0.488,0,0,0-.511-0.57m-52.5-6.18h-2.584c-0.361,0-.451.11-0.451,0.5v6.91c0,1.7-.9,2.24-2.436,2.24H880c-1.472,0-2.523-.36-2.523-2.21v-6.94a0.421,0.421,0,0,0-.482-0.5h-2.584a0.42,0.42,0,0,0-.481.5v7.65c0,3.32,2.5,4.75,5.8,4.75h1.292c3.4,0,5.89-1.37,5.89-4.75v-7.74a0.382,0.382,0,0,0-.48-0.41m68.939,0h-2.5a0.459,0.459,0,0,0-.512.47v4.24H946.8v-4.15a0.471,0.471,0,0,0-.421-0.56H943.8a0.478,0.478,0,0,0-.45.47v11.65a0.45,0.45,0,0,0,.48.45h2.494a0.451,0.451,0,0,0,.481-0.45v-4.24h5.558v4.22a0.425,0.425,0,0,0,.482.47h2.5a0.455,0.455,0,0,0,.482-0.47v-11.63a0.45,0.45,0,0,0-.451-0.48m-92.589,4.52c-0.781-.06-1.11-0.27-1.11-0.72a0.738,0.738,0,0,1,.87-0.69h7.244a0.522,0.522,0,0,0,.569-0.51v-1.97a0.647,0.647,0,0,0-.659-0.62h-6.823a5.787,5.787,0,0,0-3.7,1.01,3.168,3.168,0,0,0-1.171,2.66c0,1.97,1.171,3.44,4.3,3.71l3.907,0.33c0.811,0.06,1.112.41,1.112,0.86,0,0.42-.241.81-1.08,0.81H858.96a0.646,0.646,0,0,0-.689.51v2.15a0.551,0.551,0,0,0,.6.54h7.212c3.066,0,4.87-1.59,4.87-3.98,0-2.18-1.411-3.64-5.02-3.88l-3.154-.21h0Zm40.871-4.49h-2.435a0.521,0.521,0,0,0-.48.51v6.84a0.2,0.2,0,0,1-.36.13c-0.121-.18-4.6-5.68-5.23-6.43a2.542,2.542,0,0,0-2.162-1.05h-1.744a0.419,0.419,0,0,0-.451.48v11.62a0.42,0.42,0,0,0,.451.48H893.7a0.426,0.426,0,0,0,.51-0.48v-6.45c0-.18.181-0.27,0.362-0.09,0.151,0.18,4.42,5.44,5.078,6.13a2.117,2.117,0,0,0,2.045.89h1.953a0.451,0.451,0,0,0,.512-0.41V1545.5a0.452,0.452,0,0,0-.512-0.48m17.277,19.45c0.188,0.01.4,0.02,0.633,0.02a0.674,0.674,0,0,0,.806-0.6c0-.32-0.308-0.52-0.837-0.52h-0.6v1.1Zm0.466-1.61c0.545,0,.843-0.19.843-0.57,0-.28-0.231-0.46-0.723-0.46-0.2,0-.4.01-0.585,0.02v1.01h0.465Zm-1.067-1.52c0.4-.01.659-0.03,1.2-0.03,1,0,1.35.37,1.35,0.86a0.879,0.879,0,0,0,.147,1.71c0,0.56-.309,1.12-1.47,1.12-0.293,0-.764-0.01-1.23-0.03v-3.63h0Zm5.355,1.8c0.146,0.01.293,0.01,0.439,0.01a0.745,0.745,0,0,0,.89-0.69,0.665,0.665,0,0,0-.821-0.64c-0.184,0-.4,0-0.508.01v1.31h0Zm1.433,1.83-0.837-1.31a3.078,3.078,0,0,1-.355.02c-0.073,0-.189-0.02-0.242-0.02v1.31h-0.606v-3.63c0.2-.01.56-0.03,1.114-0.03,0.859,0,1.454.32,1.454,1.12a1.176,1.176,0,0,1-.758,1.08l0.968,1.46h-0.738Zm2.655-3.63h0.609v3.63h-0.609v-3.63Zm3.27,3.63v-3.63h0.606v3.13h0.5a7.383,7.383,0,0,0,1.136-.06v0.56h-2.239Zm3.884,0v-3.63h0.606v3.13h0.5a7.383,7.383,0,0,0,1.136-.06v0.56h-2.24Zm3.511-3.63h0.606v3.63h-0.606v-3.63Zm4.649,2.39-0.538-1.53h-0.021l-0.56,1.53h1.119Zm0.162,0.5h-1.459l-0.282.74h-0.644l1.486-3.64h0.418l1.428,3.64h-0.644l-0.3-.74h0Zm5.111,0.74-1.827-2.81H948.5l0.094,0.86v1.95H948v-3.63h0.634l1.745,2.71H950.4l-0.072-.8v-1.91h0.6v3.63m1.786-3.63h3.109v0.56a4.755,4.755,0,0,0-.963-0.06h-0.287v3.13h-0.606v-3.13h-0.288a5.657,5.657,0,0,0-.964.06v-0.56h0Z" transform="translate(-858 -1545)"/>
</svg>
