<svg xmlns="http://www.w3.org/2000/svg" width="102" height="18" viewBox="0 0 102 18">
  <defs>
    <style>
      .cls-1 {
        fill: #f6fbfb;
      }

      .cls-1, .cls-2 {
        fill-rule: evenodd;
      }

      .cls-2 {
        fill: #e41d94;
      }
    </style>
  </defs>
  <path class="cls-1" d="M863,1088c0,5.15,4.066,9,9.438,9a8.364,8.364,0,0,0,5-1.42v-3.37a9.676,9.676,0,0,1-5.027,1.49,5.705,5.705,0,1,1,0-11.4,9.585,9.585,0,0,1,5.027,1.49v-3.37a8.364,8.364,0,0,0-5-1.42c-5.372,0-9.438,3.85-9.438,9m80.954-4.6a6.8,6.8,0,1,0,6.964,6.8,6.887,6.887,0,0,0-6.964-6.8m0,10.81a4.015,4.015,0,1,1,4.006-4.01,3.993,3.993,0,0,1-4.006,4.01M962,1083.66l-5.781,8.47v-8.47h-2.911v13.07h2.957l5.777-8.43v8.43H965v-13.07h-3Zm-71.291,6.19a3.076,3.076,0,0,0,1.425-2.52,3.637,3.637,0,0,0-3.817-3.67h-7.383v13.07h7.678a3.711,3.711,0,0,0,3.872-3.75,3.636,3.636,0,0,0-1.775-3.13m-6.818-3.62h3.969a1.261,1.261,0,1,1,0,2.52h-3.969v-2.52Zm4.157,7.93h-4.157v-2.84h4.157a1.421,1.421,0,1,1,0,2.84m11.633-10.5a4.45,4.45,0,0,0-4.571,4.5,4.389,4.389,0,0,0,3.236,4.29l-3.585,4.28h3.818l3.431-4.1h1.641v4.1h2.957v-13.07h-6.927Zm0.4,2.57h3.566v3.83h-3.566a1.918,1.918,0,1,1,0-3.83m25.781-2.57h-2.958v13.07h2.958v-5.3h5.777v5.3H934.6v-13.07h-2.958v5.2h-5.777v-5.2Zm-16.335,12.31v-2.89a9.051,9.051,0,0,0,4.18,1.13c1.962,0,3.2-.58,3.2-1.62,0-.92-1.081-1.28-2.458-1.28H912.2v-2.57h2.257c1.4,0,2.188-.51,2.188-1.21,0-1.03-1.24-1.35-2.672-1.35a9.235,9.235,0,0,0-4.1,1.01v-2.8a10.183,10.183,0,0,1,4.525-.99c2.863,0,5.19,1.51,5.19,3.6a2.96,2.96,0,0,1-1.617,2.78,3.459,3.459,0,0,1,1.968,3.08c0,2.45-2.363,4.14-5.822,4.14a9.589,9.589,0,0,1-4.583-1.03" transform="translate(-863 -1079)"/>
  <path id="Shape_5_copy" data-name="Shape 5 copy" class="cls-2" d="M958.909,1082.96a3.921,3.921,0,0,0,4.194-3.46l-2.369-.29a1.846,1.846,0,0,1-3.65,0l-2.369.29a3.923,3.923,0,0,0,4.194,3.46" transform="translate(-863 -1079)"/>
</svg>
