<svg xmlns="http://www.w3.org/2000/svg" width="104" height="104" viewBox="0 0 104 104">
  <defs>
    <style>
      .cls-1 {
        fill: #fff;
        fill-rule: evenodd;
      }
    </style>
  </defs>
  <path class="cls-1" d="M962,1447v-1.2H964.8v-2.52H966V1447h-4Zm2.79-97.64H966v3.39h-1.2v-3.39Zm0,5.84H966v3.39h-1.2v-3.39Zm0,5.84H966v3.39h-1.2v-3.39Zm0,5.84H966v3.39h-1.2v-3.39Zm0,5.84H966v3.39h-1.2v-3.39Zm0,5.84H966v3.39h-1.2v-3.39Zm0,5.84H966v3.39h-1.2v-3.39Zm0,5.84H966v3.39h-1.2v-3.39Zm0,5.83H966v3.4h-1.2v-3.4Zm0,5.84H966v3.4h-1.2v-3.4Zm0,5.84H966v3.4h-1.2v-3.4Zm0,5.84H966v3.4h-1.2v-3.4Zm0,5.85H966v3.39h-1.2v-3.39Zm0,5.83H966v3.4h-1.2v-3.4Zm1.2,15.08h-1.2v-3.4H966v3.4Zm-1.2-9.24H966v3.4h-1.2v-3.4Zm0-86.91H962V1343h4v3.72H964.8v-2.52Zm-9.033-1.2h3.372v1.21h-3.372V1343Zm-2.193,78.47a1.528,1.528,0,0,1-1.439-.8l0.645-.38a0.853,0.853,0,0,0,.777.48,0.453,0.453,0,0,0,.536-0.39,0.662,0.662,0,0,0-.574-0.52l-0.2-.09a1.234,1.234,0,0,1-.949-1.19,1.054,1.054,0,0,1,1.156-1.04,1.178,1.178,0,0,1,1.124.63l-0.616.4a0.529,0.529,0,0,0-.508-0.34,0.34,0.34,0,0,0-.377.34,0.564,0.564,0,0,0,.485.48l0.2,0.08a1.308,1.308,0,0,1,1.048,1.24A1.14,1.14,0,0,1,953.569,1421.47Zm-4.51-31.46c0.58,0.48,1.2.97,1.872,1.48a18.24,18.24,0,0,1,1.875,1.61,8.026,8.026,0,0,1,1.439,1.87,4.759,4.759,0,0,1,.569,2.35,6,6,0,0,1-.3,1.81,4.893,4.893,0,0,1-1,1.75,5.524,5.524,0,0,1-1.8,1.3,6.373,6.373,0,0,1-2.69.51c-0.327,0-.724-0.02-1.189-0.05a11.368,11.368,0,0,1-1.459-.23,14.388,14.388,0,0,1-1.554-.46,6.513,6.513,0,0,1-1.477-.73,4.89,4.89,0,0,1-.874.75,3.546,3.546,0,0,1-1.056.51,4.629,4.629,0,0,1-1.439.21,4.7,4.7,0,0,1-1.929-.42,3.852,3.852,0,0,1-1.594-1.28,8.626,8.626,0,0,1-1.454,1.1,5.141,5.141,0,0,1-2.708.6,7.25,7.25,0,0,1-5.661-2.65,9.816,9.816,0,0,1-1.7-3.06,12.106,12.106,0,0,1-.625-4.02,13.092,13.092,0,0,1,.567-3.9,10.458,10.458,0,0,1,1.572-3.16,7.633,7.633,0,0,1,2.4-2.12,6.2,6.2,0,0,1,3.067-.77,5.843,5.843,0,0,1,1.629.2,6.429,6.429,0,0,1,1.269.51,5.452,5.452,0,0,1,.927.65,6.8,6.8,0,0,1,.607.6l2.873-1.59h0.572v15.41a2.06,2.06,0,0,0,.492,1.54,1.885,1.885,0,0,0,2.556-.06,2.275,2.275,0,0,0,.509-1.63v-2.23h0.493a12.577,12.577,0,0,0,2.006,3.69,3.248,3.248,0,0,0,2.538,1.15,2.607,2.607,0,0,0,1.988-.71,2.454,2.454,0,0,0,.66-1.71,3.118,3.118,0,0,0-.565-1.8,9.382,9.382,0,0,0-1.441-1.59c-0.578-.52-1.205-1.03-1.874-1.55a17.68,17.68,0,0,1-1.874-1.67,8.606,8.606,0,0,1-1.438-1.94,5.068,5.068,0,0,1-.567-2.43,5.378,5.378,0,0,1,.3-1.78,4.215,4.215,0,0,1,.947-1.55,4.776,4.776,0,0,1,1.666-1.1,6.674,6.674,0,0,1,2.459-.41,8.519,8.519,0,0,1,2.142.26,7.846,7.846,0,0,1,1.911.76l1.172-.65h0.5v6.1h-0.5a11.7,11.7,0,0,0-1.873-3.75,3.421,3.421,0,0,0-2.745-1.48,2,2,0,0,0-1.117.29,1.962,1.962,0,0,0-.663.68,2.98,2.98,0,0,0-.322.83,3.724,3.724,0,0,0-.092.74,2.854,2.854,0,0,0,.564,1.72A8.31,8.31,0,0,0,949.059,1390.01Zm-13.443,8.21v-12.03a4.949,4.949,0,0,0-1.192-1.18,2.591,2.591,0,0,0-1.531-.49,2.509,2.509,0,0,0-1.648.62,5.12,5.12,0,0,0-1.27,1.77,11.535,11.535,0,0,0-.832,2.7,19.724,19.724,0,0,0,.02,7.01,11.07,11.07,0,0,0,.87,2.67,5.3,5.3,0,0,0,1.231,1.68,2.181,2.181,0,0,0,1.437.59,2.254,2.254,0,0,0,1.686-.8,7.184,7.184,0,0,0,1.269-1.97A2.726,2.726,0,0,1,935.616,1398.22ZM949.98,1343h3.372v1.21H949.98V1343Zm-5.785.01h3.372v1.2H944.2v-1.2Zm-5.782,0h3.372v1.2h-3.372v-1.2Zm-5.782,0H936v1.2h-3.372v-1.2Zm-5.782,0h3.372v1.2h-3.372v-1.2Zm-5.785,0h3.372v1.2h-3.372v-1.2Zm2.288,40.41a4.565,4.565,0,0,0-1.818-.38,3.942,3.942,0,0,0-1.4.25,2.634,2.634,0,0,0-1.138.77,8.5,8.5,0,0,1,3.049,3.22,8.975,8.975,0,0,1,.53,7.52,8.786,8.786,0,0,1-1.648,2.72,7.941,7.941,0,0,1-2.516,1.91,7.013,7.013,0,0,1-3.2.73,7.34,7.34,0,0,1-3.106-.65,0.849,0.849,0,0,0-.264.68,1.286,1.286,0,0,0,.834,1.2,9.323,9.323,0,0,0,2.1.64c0.845,0.16,1.754.32,2.723,0.47a18.085,18.085,0,0,1,2.73.63,5.884,5.884,0,0,1,2.1,1.1,2.387,2.387,0,0,1,.832,1.94,2.772,2.772,0,0,1-.774,2.01,5.879,5.879,0,0,1-1.949,1.29,10.243,10.243,0,0,1-2.578.68,19.16,19.16,0,0,1-2.648.19,17.329,17.329,0,0,1-3.086-.28,10.909,10.909,0,0,1-2.633-.82,5.4,5.4,0,0,1-1.836-1.34,2.841,2.841,0,0,1-.7-1.91,2.39,2.39,0,0,1,.264-1.12,2.881,2.881,0,0,1,1.023-1l4.163,0.64a4.105,4.105,0,0,0-.4,1.76,2.787,2.787,0,0,0,1.572,2.54,3.925,3.925,0,0,0,1.818.4,3.183,3.183,0,0,0,2.042-.63,2.377,2.377,0,0,0,.8-1.99,2.35,2.35,0,0,0-.759-1.87,5.137,5.137,0,0,0-1.874-1.02,15.312,15.312,0,0,0-2.423-.55,24.448,24.448,0,0,1-2.423-.48,6.226,6.226,0,0,1-1.877-.77,1.651,1.651,0,0,1-.754-1.48,1.437,1.437,0,0,1,.587-1.23,5.089,5.089,0,0,1,1.721-.74,8.407,8.407,0,0,1-2.366-3.03,8.946,8.946,0,0,1-.264-7,8.587,8.587,0,0,1,4.164-4.68,7.086,7.086,0,0,1,3.238-.74,6.692,6.692,0,0,1,1.439.16,8.671,8.671,0,0,1,1.324.41,4.943,4.943,0,0,1,2.1-2.87,8.863,8.863,0,0,1,3.277-1.14v3.86Zm-5,5.43a12.021,12.021,0,0,0-.717-2.4,5.318,5.318,0,0,0-1.079-1.68,1.874,1.874,0,0,0-1.344-.63,1.91,1.91,0,0,0-1.382.63,5.3,5.3,0,0,0-1.079,1.68,12.354,12.354,0,0,0-.722,2.4,14.428,14.428,0,0,0-.262,2.79,13.972,13.972,0,0,0,.262,2.76,11.434,11.434,0,0,0,.722,2.35,5.5,5.5,0,0,0,1.079,1.65,1.937,1.937,0,0,0,1.382.62,1.9,1.9,0,0,0,1.344-.62,5.514,5.514,0,0,0,1.079-1.65,11.139,11.139,0,0,0,.717-2.35,13.82,13.82,0,0,0,.267-2.76A14.271,14.271,0,0,0,918.351,1388.85Zm-3.071-45.84h3.374v1.2H915.28v-1.2Zm-5.782,0h3.372v1.2H909.5v-1.2Zm-5.787,0h3.375v1.2h-3.375v-1.2Zm2.11,49.88a11.43,11.43,0,0,1-.625,3.82,9.839,9.839,0,0,1-1.723,3.1,8.364,8.364,0,0,1-2.574,2.11,7.034,7.034,0,0,1-6.4,0,8.4,8.4,0,0,1-2.573-2.11,9.815,9.815,0,0,1-1.721-3.1,11.456,11.456,0,0,1-.627-3.82,11.677,11.677,0,0,1,.627-3.85,10.135,10.135,0,0,1,1.721-3.14,8.429,8.429,0,0,1,2.573-2.12,6.954,6.954,0,0,1,6.4,0,8.4,8.4,0,0,1,2.574,2.12,10.16,10.16,0,0,1,1.723,3.14A11.65,11.65,0,0,1,905.821,1392.89Zm-4.772-3.37a13.132,13.132,0,0,0-.681-2.79,5.522,5.522,0,0,0-1.135-1.89,2.138,2.138,0,0,0-1.551-.7,2.075,2.075,0,0,0-1.534.7,5.713,5.713,0,0,0-1.117,1.89,13.01,13.01,0,0,0-.682,2.79,23.951,23.951,0,0,0-.227,3.4,23.605,23.605,0,0,0,.227,3.39,12.473,12.473,0,0,0,.682,2.75,5.206,5.206,0,0,0,1.117,1.83,2.079,2.079,0,0,0,1.534.67,2.143,2.143,0,0,0,1.551-.67,5.044,5.044,0,0,0,1.135-1.83,12.589,12.589,0,0,0,.681-2.75,23.456,23.456,0,0,0,.228-3.39A23.8,23.8,0,0,0,901.049,1389.52Zm-3.118-46.51H901.3v1.2h-3.372v-1.2Zm-5.782,0h3.372v1.2h-3.372v-1.2Zm-5.782,0h3.372v1.2h-3.372v-1.2Zm-5.784,0h3.372v1.2h-3.372v-1.2Zm-5.785,0h3.372v1.2H874.8v-1.2Zm14.214,46.28h-0.494l-2.309-4.58h-1.816a1.681,1.681,0,0,0-.947.19,1.168,1.168,0,0,0-.266.94v13.82a2.174,2.174,0,0,0,.322,1.24,3.2,3.2,0,0,0,1.57.88v0.53h-7.949v-0.53a3.223,3.223,0,0,0,1.572-.88,2.2,2.2,0,0,0,.322-1.24v-13.82a1.165,1.165,0,0,0-.265-0.94,1.689,1.689,0,0,0-.949-0.19h-1.816l-2.311,4.58h-0.49v-5.91h15.826v5.91Zm-15.1,29.97h1.643v-1.62h0.79v3.83h-0.79v-1.5h-1.643v1.5h-0.787v-3.83h0.787v1.62Zm-4.895-76.25h3.374v1.2h-3.374v-1.2Zm3.22,103.99h-3.372v-1.2h3.372v1.2ZM862,1443.28h1.2v2.52H866v1.2h-4v-3.72Zm1.2-96.56H862V1343H866v1.2H863.2v2.52Zm-1.2,2.64h1.2v3.39H862v-3.39Zm0,5.84h1.2v3.39H862v-3.39Zm0,5.84h1.2v3.39H862v-3.39Zm0,5.84h1.2v3.39H862v-3.39Zm0,5.84h1.205v3.39H862v-3.39Zm0,5.84h1.205v3.39H862v-3.39Zm0,5.84h1.205v3.39H862v-3.39Zm0,5.84h1.205v3.39H862v-3.39Zm0,5.83h1.205v3.4H862v-3.4Zm0,5.84h1.205v3.4H862v-3.4Zm0,5.84h1.205v3.4H862v-3.4Zm0,5.84h1.205v3.4H862v-3.4Zm0,5.85h1.2v3.39H862v-3.39Zm0,5.83h1.2v3.4H862v-3.4Zm1.2,15.08H862v-3.4h1.2v3.4Zm-1.2-9.24h1.2v3.4H862v-3.4ZM878.018,1447h-3.372v-1.2h3.372v1.2Zm5.785,0h-3.375v-1.2H883.8v1.2Zm5.779,0H886.21v-1.2h3.372v1.2Zm5.785,0h-3.375v-1.2h3.375v1.2Zm2.921-18.79H896.54v0.88h1.541v0.67H896.54v0.9h1.827v0.69h-2.615v-3.84h2.536v0.7Zm2.861,18.79h-3.372v-1.2h3.372v1.2Zm-0.7-16.45,0.642-.38a0.854,0.854,0,0,0,.777.48,0.453,0.453,0,0,0,.537-0.39,0.663,0.663,0,0,0-.577-0.52l-0.2-.08a1.249,1.249,0,0,1-.947-1.19,1.055,1.055,0,0,1,1.157-1.04,1.158,1.158,0,0,1,1.119.63l-0.614.39a0.543,0.543,0,0,0-.5-0.34,0.347,0.347,0,0,0-.38.34,0.557,0.557,0,0,0,.485.48l0.2,0.08a1.306,1.306,0,0,1,1.048,1.24,1.139,1.139,0,0,1-1.306,1.1A1.521,1.521,0,0,1,900.452,1430.55Zm6.481,16.45h-3.374v-1.2h3.374v1.2Zm-0.522-15.65v-3.14h-1.092v-0.69h2.975v0.69h-1.1v3.14h-0.788Zm6.307,15.65h-3.373v-1.2h3.373v1.2Zm5.784,0h-3.374v-1.21H918.5V1447Zm2.34-19.53a1.383,1.383,0,0,1,1.48,1.33,1.94,1.94,0,0,1-.377,1.06l-1.008,1.49h-0.872l0.58-.86a2.972,2.972,0,0,1,.349-0.43,0.936,0.936,0,0,1-.36.07,1.238,1.238,0,0,1-1.273-1.29A1.391,1.391,0,0,1,920.842,1427.47Zm0,2.05a0.655,0.655,0,0,0,.67-0.68,0.645,0.645,0,0,0-.67-0.66,0.637,0.637,0,0,0-.672.66A0.647,0.647,0,0,0,920.842,1429.52Zm3.442,17.48h-3.372v-1.21h3.372V1447Zm5.78,0h-3.372v-1.21h3.372V1447Zm-0.779-16.98a1.94,1.94,0,0,1,.377-1.06l1.008-1.49h0.89l-0.563.83a2.65,2.65,0,0,1-.424.47,1.314,1.314,0,0,1,.391-0.07,1.248,1.248,0,0,1,1.282,1.28A1.487,1.487,0,0,1,929.285,1430.02Zm1.476,0.62a0.665,0.665,0,1,0,0-1.33A0.665,0.665,0,1,0,930.761,1430.64Zm5.087,16.36h-3.372v-1.21h3.372V1447Zm5.785,0h-3.372v-1.21h3.372V1447Zm5.782,0h-3.372v-1.21h3.372V1447Zm5.785,0h-3.375v-1.21H953.2V1447Zm-26.053-16.34v0.69h-2.888v-0.07l1.575-1.64a1.386,1.386,0,0,0,.53-0.94,0.472,0.472,0,0,0-.512-0.5,0.743,0.743,0,0,0-.68.63l-0.8-.15a1.448,1.448,0,0,1,1.487-1.2,1.2,1.2,0,0,1,1.311,1.22,1.84,1.84,0,0,1-.642,1.27l-0.472.49a2.071,2.071,0,0,1-.272.22s0.177-.02.316-0.02h1.048Zm-10.876.69v-3.12h-0.688v-0.71h1.481v3.83h-0.793Zm-5.708-.48a0.476,0.476,0,1,1-.473-0.47A0.472,0.472,0,0,1,910.563,1430.87ZM878.81,1419.5a1.985,1.985,0,1,1,1.983,1.97A1.936,1.936,0,0,1,878.81,1419.5Zm3.158,0a1.177,1.177,0,1,0-1.175,1.27A1.18,1.18,0,0,0,881.968,1419.5Zm6.38-1.91v2.44a1.555,1.555,0,0,1-3.1,0v-2.44h0.788v2.4a0.762,0.762,0,1,0,1.523,0v-2.4h0.79Zm3.7,1.46,0.2,0.08a1.308,1.308,0,0,1,1.05,1.24,1.141,1.141,0,0,1-1.308,1.1,1.524,1.524,0,0,1-1.439-.8l0.645-.38a0.849,0.849,0,0,0,.776.48,0.453,0.453,0,0,0,.537-0.39,0.663,0.663,0,0,0-.576-0.52l-0.2-.09a1.23,1.23,0,0,1-.949-1.19,1.055,1.055,0,0,1,1.156-1.04,1.183,1.183,0,0,1,1.124.63l-0.618.4a0.524,0.524,0,0,0-.506-0.34,0.341,0.341,0,0,0-.379.34A0.566,0.566,0,0,0,892.05,1419.05Zm6.331,1.73v0.69h-2.615v-3.83H898.3v0.69h-1.748v0.88h1.541v0.68h-1.541v0.89h1.828Zm5.395-1.28a1.984,1.984,0,1,1,1.983,1.97A1.936,1.936,0,0,1,903.776,1419.5Zm3.155,0a1.175,1.175,0,1,0-1.172,1.27A1.177,1.177,0,0,0,906.931,1419.5Zm3.281,1.97v-3.83h2.47v0.69H911v1h1.529v0.7H911v1.44h-0.788Zm8.854,0v-3.14h-1.093v-0.69h2.977v0.69h-1.094v3.14h-0.79Zm6.879-.69v0.69h-2.617v-3.83h2.537v0.69h-1.748v0.88h1.539v0.68h-1.539v0.89h1.828Zm4.7,0.69-0.6-1.02a4.109,4.109,0,0,1-.263-0.54,4.605,4.605,0,0,1-.238.54l-0.592,1.02h-0.83l1.251-2.11-1.041-1.72h0.9l0.388,0.66c0.107,0.18.239,0.49,0.254,0.52a2.934,2.934,0,0,1,.221-0.52l0.373-.66H931.3l-1.026,1.73,1.274,2.1h-0.9Zm4.142,0v-3.14h-1.1v-0.69h2.979v0.69h-1.1v3.14h-0.787Zm5.068-3.83v3.83h-0.79v-3.83h0.79Zm3.256,0v3.14h1.739v0.69H942.32v-3.83h0.788Zm14.324,7.13H870.568v-0.68h86.864v0.68Zm-7.5-3.99v0.69h-2.617v-3.83h2.538v0.69H948.1v0.88h1.54v0.68H948.1v0.89h1.829Zm9.05,26.22h-3.373v-1.21h3.373V1447Z" transform="translate(-862 -1343)"/>
</svg>
