<svg xmlns="http://www.w3.org/2000/svg" width="36" height="26" viewBox="0 0 36 26">
  <defs>
    <style>
      .cls-1 {
        fill-rule: evenodd;
      }
    </style>
  </defs>
  <path id="Rounded_Rectangle_18_copy_4" data-name="Rounded Rectangle 18 copy 4" class="cls-1" d="M256,2292H226a3,3,0,0,1-3-3v-20a3,3,0,0,1,3-3h30a3,3,0,0,1,3,3v20A3,3,0,0,1,256,2292Zm1-23a1,1,0,0,0-1-1H226a1,1,0,0,0-1,1v20a1,1,0,0,0,1,1h30a1,1,0,0,0,1-1v-20Zm-10.911,15c-2.861,0-4.743-2.71-4.743-2.71l1.338-1.19s1.453,2,3.356,2a3.151,3.151,0,0,0,0-6.3c-3.282.06-5.866,8.2-10.129,8.2a5,5,0,0,1,0-10c2.636,0,4.795,2.57,4.795,2.57l-1.342,1.19s-1.753-1.96-3.4-1.96a3.151,3.151,0,0,0,0,6.3c2.812,0,6.065-8.05,10.129-8.1A5,5,0,0,1,246.089,2284Z" transform="translate(-223 -2266)"/>
</svg>
