<svg xmlns="http://www.w3.org/2000/svg" width="29" height="24" viewBox="0 0 29 24">
	<defs>
		<style type="text/css">
			.st0{fill:#1b2139;}
		</style>
	</defs>
	<path id="Forma_1" class="st0" d="M27,10.2h-0.2V8.7c0-1.7-1.3-3.2-3.1-3.4V3.5c0-1.9-1.6-3.5-3.6-3.5H3.8C1.7,0,0.1,1.6,0,3.6v17
		C0,22.5,1.6,24,3.6,24h19.7c1.9,0,3.5-1.5,3.6-3.5v-1.7H27c1.1,0,2-0.8,2-1.9c0,0,0,0,0,0v-4.8C29,11.1,28.1,10.2,27,10.2
		C27,10.2,27,10.2,27,10.2z M2,3.5C2.1,2.6,2.8,2,3.7,2h16.9C21.3,2,22,2.5,22,3.3c0,0,0,0,0,0V5H3.7C2.8,5,2.1,4.4,2,3.5z M27,17
		h-5.5c-1.4,0-2.5-1.1-2.5-2.5s1.1-2.5,2.5-2.5H27V17z M21.5,13c0.8,0,1.5,0.7,1.5,1.5c0,0.8-0.7,1.5-1.5,1.5S20,15.3,20,14.5
		c0,0,0,0,0,0C20,13.7,20.7,13,21.5,13L21.5,13z"/>
</svg>
