<svg xmlns="http://www.w3.org/2000/svg" width="50" height="50" viewBox="0 0 50 50">
  <defs>
    <style>
      .cls-1 {
        fill: #ffd753;
      }

      .cls-2 {
        fill: #fff;
        fill-rule: evenodd;
      }
    </style>
  </defs>
  <circle id="Ellipse_1_copy" data-name="Ellipse 1 copy" class="cls-1" cx="25" cy="25" r="25"/>
  <path id="Forma_1" data-name="Forma 1" class="cls-2" d="M1844.99,391.2h-0.15v-1.5a3.5,3.5,0,0,0-3.08-3.42v-1.83a3.524,3.524,0,0,0-3.55-3.45h-16.45a3.718,3.718,0,0,0-3.76,3.6v16.95a3.518,3.518,0,0,0,3.55,3.45h19.74a3.518,3.518,0,0,0,3.55-3.45V399.9h0.15a1.972,1.972,0,0,0,2.01-1.95v-4.8A1.972,1.972,0,0,0,1844.99,391.2ZM1820,384.489a1.591,1.591,0,0,1,1.66-1.483h16.91a1.353,1.353,0,0,1,1.43,1.283V386h-18.34A1.613,1.613,0,0,1,1820,384.489Zm25,13.5h-5.5a2.5,2.5,0,0,1,0-5h5.5v5Zm-5.51-3.98a1.5,1.5,0,1,1-1.49,1.5A1.5,1.5,0,0,1,1839.49,394.006Z" transform="translate(-1806 -368)"/>
</svg>
