<svg xmlns="http://www.w3.org/2000/svg" width="108" height="46" viewBox="0 0 108 46">
  <defs>
    <style>
      .cls-1 {
        fill: #fff;
        fill-rule: evenodd;
      }
    </style>
  </defs>
  <path class="cls-1" d="M810.633,2483.66h0l-3.954.65-0.361.06,0-.36c0-.16-0.009-0.33-0.02-0.49a3.246,3.246,0,0,0-.21-1.05,0.3,0.3,0,0,0-.168-0.2h0a0.284,0.284,0,0,0-.173.09,0.706,0.706,0,0,0-.15.28,1.265,1.265,0,0,0-.044.46,2.225,2.225,0,0,0,.727,1.4c0.29,0.28.6,0.57,0.906,0.85,1.9,1.75,3.77,3.48,3.823,6.51a5.184,5.184,0,0,1-.4,1.96,5.978,5.978,0,0,1-1.1,1.8,3.951,3.951,0,0,1-1.574,1.01,6.482,6.482,0,0,1-2.144.37,4.657,4.657,0,0,1-2.982-.93l0.125,0.31,0.178,0.43h-5.279l-0.081-.19-1.468-3.54,0,3.42v0.31h-8.656l-0.071-.22-1.277-3.97-0.009,3.87v0.32H777.6l-0.042-.27-0.572-3.6H776.42l-0.689,3.62-0.049.25h-8.776v-0.31l0.016-9.09h-2.647l-0.008.88h2.138v0.32l-0.009,3.08v0.32h-2.124l-0.01,4.48v0.32h-3.735v-1.71a3.615,3.615,0,0,1-.533.69,3.481,3.481,0,0,1-4.924,0,3.529,3.529,0,0,1-1.02-2.4,5.449,5.449,0,0,1-1.228,1.94,4.572,4.572,0,0,1-3.181,1.48H732.247l-0.06-.24-1.175-4.66L731,2496.49v0.32h-4.716v-0.32l0-2.13a4.974,4.974,0,0,1-.84,1.12,4.993,4.993,0,0,1-7.076,0,5.024,5.024,0,0,1-1.466-3.56v-4.26l-1.388,8.88-0.043.27h-4.275l-0.037-.27-0.344-2.61-0.344,2.61-0.036.27h-4.273l-0.044-.26-3.065-18.2-0.061-.36h4.8l0.042,0.26,0.331,2.07,0.256-2.06,0.035-.27h4.5l0.035,0.27,0.256,2.06,0.331-2.07,0.042-.26h4.8l-0.057.36-0.167,1.07a4.97,4.97,0,0,1,7.255-.19,5.171,5.171,0,0,1,.869,1.17l0-2.1v-0.31h5.45a4.832,4.832,0,0,1,2.932,1.07,4.2,4.2,0,0,1,1.308,1.82l0.007-2.58v-0.31h4.658v0.31l-0.025,13.68h3.548l0.028-13.68v-0.31h5.439a4.466,4.466,0,0,1,3.274,1.58,5.186,5.186,0,0,1,1.364,3.38h0l0,2.86a3.547,3.547,0,0,1,.76-1.15,3.413,3.413,0,0,1,2.463-1.02,3.472,3.472,0,0,1,2.462,1.02,3.64,3.64,0,0,1,.541.7v-1.72h6.393v-0.97h-2.573v-0.31l-0.008-4.06v-0.31h15.009l0.043,0.26,2.041,12.63,0.011-12.58v-0.31h4.73l0.068,0.22,1.283,4.26v-4.48h8.759v0.31l-0.007,1.99,1.13-2.13,0.089-.17h5.29l-0.23.46-0.4.8a4.442,4.442,0,0,1,.833-0.71,4.749,4.749,0,0,1,2.725-.74,5.1,5.1,0,0,1,3.784,1.55,5.67,5.67,0,0,1,1.394,4l0,0.27Zm-96.47-5.04-0.638,3.99-0.35,2.19-0.274-2.2-0.5-3.98h-3.383l-0.5,3.98-0.274,2.2-0.349-2.19-0.638-3.99h-3.52l2.957,17.56h3.189l0.62-4.68,0.312-2.36,0.312,2.36,0.619,4.68h3.188l2.744-17.56h-3.525Zm12.125,4.17h0a4.372,4.372,0,0,0-8.319-1.9,9.066,9.066,0,0,0-.427,2.73v8.31a4.373,4.373,0,1,0,8.746,0v-9.14h0Zm9.594,5.02a3.625,3.625,0,0,1-.768.95l0.88,3.21,0.009-4.39C735.966,2487.66,735.925,2487.73,735.882,2487.81Zm0.63,8.37-2.061-7.47-0.061-.22,0.2-.13a2.5,2.5,0,0,0,.747-0.86,2.181,2.181,0,0,0,.317-1.01l0.012-3.95v-0.02h0a3.683,3.683,0,0,0-1.352-2.97,4.145,4.145,0,0,0-2.535-.93h-4.823l-0.036,17.56h3.458l0.01-6.61v-0.32h0.6l0.061,0.24,1.688,6.69h3.776Zm3.517-3.56v-0.32l0.024-13.68h-3.413l-0.036,17.56H744.2l0.008-3.56h-4.176Zm13.655-9.67a4.582,4.582,0,0,0-1.2-2.96,3.867,3.867,0,0,0-2.807-1.37h-4.812l-0.027,13.36h0v0.32l0.008,3.88h4.793a3.977,3.977,0,0,0,2.732-1.29,4.31,4.31,0,0,0,1.3-2.85l0.012-9.09h0Zm6.7,10.36h0v-6.17h0a2.877,2.877,0,0,0-.836-2.03,2.839,2.839,0,0,0-4.032,0,2.882,2.882,0,0,0-.836,2.03v6.17a2.878,2.878,0,0,0,.836,2.03,2.839,2.839,0,0,0,4.032,0,2.877,2.877,0,0,0,.836-2.03h0Zm6.182-9.04h-5.4l-0.01,11.91h2.479l0.011-4.48v-0.32h2.124l0.007-2.45h-2.14l0-.32,0.012-1.52,0-.31h2.917Zm6.976-5.65h-8.565l0.008,3.42h2.575v0.32h0l-0.025,13.82h3.386l0.066-13.82,0-.32h2.561Zm-1.976,13.94,1.668-9.89h-1.62Zm7.256-13.94h-4.266l-2.962,17.56h3.568l0.689-3.61,0.049-.26h1.625l0.042,0.27,0.572,3.6h3.521Zm9.342,0v8.14l-0.618-2.05-1.831-6.09h-3.635l-0.015,17.56h3.57l0.013-5.55,0-1.99,0.609,1.9,1.815,5.64h3.5l0.015-17.56h-3.432Zm9.716,0-1.636,3.08-0.6,1.13,0-1.28,0.009-2.93h-3.426l-0.015,17.56h3.427l0-4.67,0-1.57,0.6,1.45,1.99,4.79h3.921l-4.066-10.01-0.054-.13,0.065-.13,3.657-7.29h-3.891ZM805,2490.13a5.062,5.062,0,0,0,.129,1.25,2.143,2.143,0,0,0,.36.81,0.447,0.447,0,0,0,.329.22,0.117,0.117,0,0,0,.058-0.01,0.323,0.323,0,0,0,.157-0.09,0.758,0.758,0,0,0,.182-0.34,1.208,1.208,0,0,0-.013-0.58,2.78,2.78,0,0,0-.749-1.22c-0.369-.38-0.774-0.74-1.188-1.1a19.435,19.435,0,0,1-1.613-1.55c-0.165-.18-0.326-0.37-0.482-0.56-0.118-.14-0.229-0.29-0.332-0.44a6.522,6.522,0,0,1-1.037-3.64,6.187,6.187,0,0,1,.137-1.2l-2.2,4.38,1.671,4.12h0l-0.009-.14,0.321-.01,3.949-.22,0.334-.02Zm4.041-10.35a4.452,4.452,0,0,0-3.336-1.35,3.921,3.921,0,0,0-3.765,2.25,5.237,5.237,0,0,0-.511,2.21,5.847,5.847,0,0,0,.937,3.28,4.393,4.393,0,0,0,.293.39c0.144,0.18.313,0.38,0.46,0.54a18.8,18.8,0,0,0,1.563,1.49c0.416,0.37.824,0.73,1.222,1.14a3.325,3.325,0,0,1,.909,1.51,1.826,1.826,0,0,1,.013.88,1.374,1.374,0,0,1-.355.64,1.077,1.077,0,0,1-.444.26,1.52,1.52,0,0,1-.214.02,1.064,1.064,0,0,1-.816-0.45,2.8,2.8,0,0,1-.479-1.06,5.355,5.355,0,0,1-.141-1.07l-3.3.18a8.126,8.126,0,0,0,1.42,4.25,3.951,3.951,0,0,0,3.285,1.48,5.938,5.938,0,0,0,1.932-.34,3.3,3.3,0,0,0,1.328-.84,5.365,5.365,0,0,0,.971-1.6,4.609,4.609,0,0,0,.357-1.72c-0.048-2.76-1.819-4.4-3.621-6.06-0.309-.28-0.614-0.57-0.916-0.86a2.838,2.838,0,0,1-.92-1.81,1.9,1.9,0,0,1,.069-0.68,1.3,1.3,0,0,1,.3-0.54,0.894,0.894,0,0,1,.582-0.29h0.041a0.838,0.838,0,0,1,.748.58,3.828,3.828,0,0,1,.266,1.27c0,0.05.006,0.1,0.009,0.15l3.336-.55A4.945,4.945,0,0,0,809.043,2479.78Zm-32.355,6.61,0.325,2.47h-0.66Zm-18.628,7.39a0.75,0.75,0,0,1-1.061,0h0a0.786,0.786,0,0,1-.22-0.54v-6.03h0a0.753,0.753,0,0,1,.748-0.76h0a0.774,0.774,0,0,1,.53.22h0a0.772,0.772,0,0,1,.22.54v6.03a0.772,0.772,0,0,1-.22.54h0Zm-8.28-1.28a1.913,1.913,0,0,1-1.106.24h-0.315v-0.32l0.012-9.98v-0.31h1.072a0.748,0.748,0,0,1,.66.31,1.065,1.065,0,0,1,.17.64l-0.029,8.37A1.135,1.135,0,0,1,749.78,2492.5Zm-0.188-9.7a0.211,0.211,0,0,0-.147-0.04H749l-0.011,9.34a0.983,0.983,0,0,0,.445-0.12,0.592,0.592,0,0,0,.183-0.53l0.029-8.37A0.526,0.526,0,0,0,749.592,2482.8Zm-17.736,3.39h0a2,2,0,0,1-1.164.2h-0.315l0-.31,0.022-3.63,0-.32h0.312a0.238,0.238,0,0,0,.147,0c0.757,0,1.441-.01,1.442.94l0,1.9a1.3,1.3,0,0,1-.45,1.22h0Zm-0.181-3.12c0-.27-0.292-0.3-0.648-0.3l-0.018,2.99h0a1,1,0,0,0,.5-0.1,0.8,0.8,0,0,0,.17-0.69Zm-8.8,8.79a0.963,0.963,0,0,1-.279.64h0v0.01a0.963,0.963,0,0,1-1.353,0h0v-0.01h0a0.957,0.957,0,0,1-.28-0.67v-8.95a0.968,0.968,0,0,1,.28-0.67,0.04,0.04,0,0,1,.022-0.02,0.957,0.957,0,0,1,.657-0.27,0.943,0.943,0,0,1,.678.29h0a0.942,0.942,0,0,1,.281.67v8.95h0A0.153,0.153,0,0,1,722.871,2491.86Zm-0.629-8.97a0.314,0.314,0,0,0-.1-0.23v-0.01h0a0.33,0.33,0,0,0-.232-0.09,0.35,0.35,0,0,0-.221.08,0.2,0.2,0,0,0-.011.02,0.31,0.31,0,0,0-.1.23v8.93a0.353,0.353,0,0,0,.094.24h0a0.33,0.33,0,0,0,.232.09,0.317,0.317,0,0,0,.232-0.09h0a0.354,0.354,0,0,0,.095-0.24v-8.93Zm35.143-2.33-0.385.38-0.386-.38-10.331-10.2-0.166-.16v-13.4l0.164-.16h0l5.45-5.48,0.162-.16h10.214l0.161,0.16,5.451,5.48,0.163,0.16v13.4l-0.165.16Zm9.394-23.3-5.125-5.15h-9.308l-5.125,5.15v12.48l9.779,9.65,9.779-9.65v-12.48Zm-11.838.09h-6.33l1.978-2.02,2.069-2.11h8.684l2.124,2.11,1.978,2.02h-6.33l-2.086-2.02,2.086,2.02v18.24l-2.086,2.07-2.087-2.07v-18.24Zm6.461,1.97h4.049v9.92l-3.185,3.16-1.48-1.44-1.465-1.43,2.081-2.07v-8.14Zm-8.748,8.14,2.079,2.07-1.464,1.43-1.479,1.44-3.186-3.16v-9.92h4.05v8.14Z" transform="translate(-703 -2451)"/>
</svg>
