<svg xmlns="http://www.w3.org/2000/svg" width="110" height="32" viewBox="0 0 110 32">
  <defs>
    <style>
      .cls-1 {
        fill: #ff1046;
      }

      .cls-1, .cls-2 {
        fill-rule: evenodd;
      }

      .cls-2 {
        fill: #004b4b;
      }
    </style>
  </defs>
  <path id="Shape_13_copy" data-name="Shape 13 copy" class="cls-1" d="M810.772,2330.03a1.122,1.122,0,0,1-.823-0.16,5.57,5.57,0,0,1-3.757,4.67,20.312,20.312,0,0,1-10.91-.13,7.907,7.907,0,0,1-5.374-4.82q4.837,0.18,9.68.12c2.153-.02,4.316.03,5.15-2.26a12.579,12.579,0,0,0,.21-5.27c-0.09-1.12-.086-2.66-0.827-3.59-0.836-1.05-2.431-1.09-3.8-1.02q-4.842.21-9.686,0.44l-0.06.08c0.121-3,1.314-5.26,4.279-6.4a18.4,18.4,0,0,1,4.388-1.08,2.839,2.839,0,0,0-1.844-2.38,12.3,12.3,0,0,1-1.483-.47,1.042,1.042,0,0,1-.634-1.22,1.33,1.33,0,0,1,1.3-.57,4.117,4.117,0,0,1,2.623.95,2.788,2.788,0,0,1,.979,2.46,1.507,1.507,0,0,1-.263.69l-0.613.54a13.95,13.95,0,0,1,4.232.15,6.518,6.518,0,0,1,2.266-4.58,2.479,2.479,0,0,1,1.493-.69,1.154,1.154,0,0,1,1.218.91,1.658,1.658,0,0,1-.949,1.36c-1.325.91-2.836,1.7-3.644,3.06a11.909,11.909,0,0,1,1.545.47c3.659,1.44,4.346,6.16,4.519,9.44a70.4,70.4,0,0,1,.136,7.13c1.029-.42,1.4-1.67,2.343-2.01A2.912,2.912,0,0,1,810.772,2330.03Z" transform="translate(-703 -2305)"/>
  <path class="cls-2" d="M793.523,2325.16a0.876,0.876,0,0,1-.851-0.14,0.462,0.462,0,0,1-.1-0.31,0.776,0.776,0,0,1,.212-0.5,3.338,3.338,0,0,1,.514-0.42,8.2,8.2,0,0,1,1.221-.7c-0.163-.18-0.53-0.42-0.707-0.59a2.6,2.6,0,0,1-.46-0.6,0.905,0.905,0,0,1-.036-1.03,0.79,0.79,0,0,1,.684-0.18c1.108,0.14,1.512,1.22,1.994,2.05l0.358-.68c0.029-.04.059-0.09,0.088-0.14a0.634,0.634,0,0,1,.163-0.18,0.406,0.406,0,0,1,.034-0.81,0.407,0.407,0,0,1,.269.73,0.6,0.6,0,0,1,.379.15l0-.03a0.568,0.568,0,0,1,.142-0.24,0.836,0.836,0,0,1,.112-0.08,0.551,0.551,0,0,1,.279-0.08h0.039a0.389,0.389,0,0,1,.212.05,0.418,0.418,0,0,1,.178.11,0.408,0.408,0,0,1,.114.18,0.366,0.366,0,0,1,.048.2l-0.02.15a0.558,0.558,0,0,1-.142.24c-0.037.03-.074,0.05-0.112,0.08a0.55,0.55,0,0,1-.278.08h-0.039a0.513,0.513,0,0,1-.213-0.05,0.45,0.45,0,0,1-.154-0.09,0.563,0.563,0,0,1-.06.14c-0.033.05-.066,0.1-0.1,0.16a5.988,5.988,0,0,1-.407.45,4.357,4.357,0,0,1,1.833.01,2.729,2.729,0,0,1,.633.13,0.874,0.874,0,0,1,.422.29c0.332,0.47-.174.92-0.574,1.11a2.018,2.018,0,0,1-1.446.16,3.3,3.3,0,0,1-.538-0.24c-0.126-.07-0.284-0.15-0.425-0.22,0.031,0.08.12,0.47,0.13,0.53a4.932,4.932,0,0,1,.12,1.13c-0.015.36-.263,0.97-0.744,0.81a0.753,0.753,0,0,1-.405-0.46,9.008,9.008,0,0,1-.293-1.34c-0.023.05-.081,0.22-0.093,0.26-0.027.1-.048,0.2-0.076,0.29a0.974,0.974,0,0,1-.284.52,0.554,0.554,0,0,1-.725,0,0.488,0.488,0,0,1-.144-0.56,3.221,3.221,0,0,1,.343-0.58l0.144-.24a3,3,0,0,0-.4.15C794.089,2324.94,793.81,2325.07,793.523,2325.16Zm18.5,4.57a2.374,2.374,0,0,1-1.868.79,6.107,6.107,0,0,1-3.006,4.1,8.27,8.27,0,0,1-1.9.65c0.081,0.34.167,0.67,0.268,1.01,0.172,0.56-.8.8-0.977,0.24-0.106-.35-0.2-0.71-0.282-1.06-0.083.01-.166,0.03-0.249,0.04-0.066.01-.132,0.01-0.2,0.02V2337H802.72v-1.36a21.993,21.993,0,0,1-2.3.06,21.059,21.059,0,0,1-2.241-.18V2337h-0.959v-1.62l-0.343-.06-0.266-.06c-0.079.37-.159,0.73-0.239,1.09a0.521,0.521,0,0,1-.619.32,0.46,0.46,0,0,1-.352-0.55c0.08-.37.159-0.73,0.238-1.09a12.507,12.507,0,0,1-1.886-.68,7.918,7.918,0,0,1-4.328-4.62,0.472,0.472,0,0,1,.457-0.59c0.362,0.02.724,0.03,1.087,0.04,2.9,0.09,5.808.11,8.713,0.08,0.487-.01.976-0.01,1.463-0.04,0.119-.01.238-0.02,0.358-0.04,0.018,0,.1-0.01.114-0.01,0.043-.01.086-0.01,0.129-0.02a4.948,4.948,0,0,0,.659-0.15,2,2,0,0,0,.233-0.08,2.8,2.8,0,0,0,.389-0.18,3.173,3.173,0,0,0,.268-0.17,0.621,0.621,0,0,0,.1-0.08,2,2,0,0,0,.255-0.25,0.889,0.889,0,0,0,.073-0.08c0.029-.04.056-0.08,0.083-0.12a2.045,2.045,0,0,0,.215-0.37,5.335,5.335,0,0,0,.268-0.69,4.638,4.638,0,0,0,.172-0.79c0.036-.28.056-0.55,0.068-0.82s0.015-.55.007-0.82-0.025-.55-0.044-0.82c-0.042-.61-0.106-1.22-0.148-1.83-0.017-.26-0.032-0.51-0.053-0.77s-0.052-.55-0.086-0.75c-0.01-.06-0.022-0.13-0.034-0.19a2.421,2.421,0,0,0-1.167-1.84,4.2,4.2,0,0,0-1.754-.35c-0.612-.02-1.225.03-1.835,0.05q-4.3.21-8.6,0.4a0.45,0.45,0,0,1-.393.07,0.463,0.463,0,0,1-.348-0.44c0.01-.25.027-0.49,0.053-0.74a7.072,7.072,0,0,1,2.392-4.89,9.067,9.067,0,0,1,2.876-1.49,18.408,18.408,0,0,1,3.279-.78c-0.034-.1-0.062-0.2-0.107-0.3a2.376,2.376,0,0,0-.884-1c-0.657-.41-1.5-0.37-2.147-0.8a1.565,1.565,0,0,1-.8-1.36,1.337,1.337,0,0,1,1.043-1.14,3.647,3.647,0,0,1,1.577-.02,4.164,4.164,0,0,1,2.774,1.67,3.289,3.289,0,0,1,.563,1.49,2.466,2.466,0,0,1-.177,1.3,14.8,14.8,0,0,1,2.4.13c0.067,0.01.134,0.03,0.2,0.04a6.92,6.92,0,0,1,1.094-2.92,6.69,6.69,0,0,1,1.111-1.3,3.66,3.66,0,0,1,1.554-.92,1.922,1.922,0,0,1,1.682.39,1.371,1.371,0,0,1,.335,1.63,3.07,3.07,0,0,1-1.183,1.18c-0.444.29-.9,0.58-1.341,0.87a8.028,8.028,0,0,0-1.662,1.42,7.078,7.078,0,0,1,1.555.65,7.413,7.413,0,0,1,3.212,4.3,19.956,19.956,0,0,1,.855,5.23c0.017,0.34.036,0.68,0.053,1.02,0.073,1.41.139,2.81,0.14,4.22,0,0.31-.012.62-0.016,0.93a3.535,3.535,0,0,0,.248-0.3,4.475,4.475,0,0,1,.933-0.89,0.638,0.638,0,0,1,.9.02,2.2,2.2,0,0,1,.428,1.51A3.614,3.614,0,0,1,812.02,2329.73ZM799.7,2308.57a2.5,2.5,0,0,0-.67-1.2,3.074,3.074,0,0,0-1.066-.69,3.306,3.306,0,0,0-.684-0.2c-0.451-.1-1.255-0.28-1.555.19a0.416,0.416,0,0,0,.1.45h0a1.65,1.65,0,0,0,.633.37c0.25,0.07.508,0.13,0.76,0.2a3.538,3.538,0,0,1,1.306.66,3.208,3.208,0,0,1,1.037,1.46A1.634,1.634,0,0,0,799.7,2308.57Zm6.075-.18c0.334-.23.671-0.45,1.008-0.67a8.559,8.559,0,0,0,.916-0.62,0.672,0.672,0,0,0,.331-0.84,1.034,1.034,0,0,0-1.278-.17,4.015,4.015,0,0,0-1.138.91,6.151,6.151,0,0,0-1.4,2.45c-0.029.1-.055,0.2-0.077,0.29A9.867,9.867,0,0,1,805.777,2308.39Zm2.516,6.59C808.226,2314.82,808.276,2314.94,808.293,2314.98Zm1.158,7.17c-0.017-.32-0.033-0.65-0.05-0.98a27.163,27.163,0,0,0-.343-3.41c-0.09-.5-0.2-1-0.338-1.49a8.811,8.811,0,0,0-1.19-2.65,5.23,5.23,0,0,0-1.329-1.37,6.784,6.784,0,0,0-2.083-.9,0.5,0.5,0,0,1-.552.05,0.367,0.367,0,0,1-.128-0.11,0.524,0.524,0,0,1-.288-0.16,11.661,11.661,0,0,0-1.192-.16c-0.357-.03-0.715-0.04-1.073-0.04-0.427,0-.853.03-1.278,0.07a0.494,0.494,0,0,1-.343.14,0.439,0.439,0,0,1-.255-0.08,17.6,17.6,0,0,0-1.766.33q-0.467.105-.927,0.24a9.059,9.059,0,0,0-3.03,1.4,5.364,5.364,0,0,0-1.572,1.93c-0.027.06-.052,0.11-0.077,0.17-0.007.01-.014,0.03-0.021,0.04s0,0.01,0,.01c-0.039.1-.076,0.19-0.111,0.29a7.852,7.852,0,0,0-.428,1.87c0,0.05-.01.1-0.014,0.16l0.013,0.01h0.063c3.065-.14,6.13-0.29,9.2-0.42a5.852,5.852,0,0,1,3.356.58,3.863,3.863,0,0,1,1.513,3.07c0.061,0.56.083,1.11,0.129,1.66,0.057,0.68.122,1.35,0.146,2.03a7.185,7.185,0,0,1-.736,3.9,3.643,3.643,0,0,1-2.419,1.65,15.642,15.642,0,0,1-3.208.21c-2.849.03-5.7-.01-8.546-0.1,0,0.01.01,0.02,0.016,0.03a5.611,5.611,0,0,0,.349.65,6.8,6.8,0,0,0,1.457,1.63,7.98,7.98,0,0,0,1.408.93,11.353,11.353,0,0,0,2.842,1,18.583,18.583,0,0,0,2.97.41c0.58,0.04,1.161.05,1.742,0.04a16.983,16.983,0,0,0,3.1-.29c0.357-.07.714-0.15,1.063-0.25a5.933,5.933,0,0,0,1.707-.76,4.427,4.427,0,0,0,1.333-1.46,6.577,6.577,0,0,0,.445-0.95,7.923,7.923,0,0,0,.271-0.99,1.372,1.372,0,0,1-.225-0.35,0.451,0.451,0,0,1,.327-0.56c0.016-.01.029,0,0.044-0.01,0.013-.11.036-0.22,0.047-0.33,0.014-.15.016-0.31,0.026-0.47a0.441,0.441,0,0,1-.188-0.25,0.456,0.456,0,0,1,.231-0.51c0-.08.011-0.16,0.014-0.24C809.606,2325.63,809.539,2323.89,809.451,2322.15Zm1.334,7.41h0c-0.09.03-.1,0.03-0.082,0.03Zm1.272-2.62-0.011-.08a1.312,1.312,0,0,0-.066-0.24,8.605,8.605,0,0,0-1.01,1.13,3.4,3.4,0,0,1-.511.41c-0.029.49-.074,0.98-0.145,1.47a1.431,1.431,0,0,0,.386-0.08,3.063,3.063,0,0,0,.313-0.16,2.644,2.644,0,0,0,1.061-2.14c0-.02,0-0.05,0-0.07a1.342,1.342,0,0,0-.021-0.26C812.055,2326.93,812.056,2326.93,812.057,2326.94ZM797.3,2314.2a2.028,2.028,0,0,1-.047-0.95,0.474,0.474,0,0,1,.572-0.32,0.468,0.468,0,0,1,.325.56,0.214,0.214,0,0,1-.006.08c0,0.05,0,.11,0,0.16a0.3,0.3,0,0,1,0,.04,0.129,0.129,0,0,1,.011.04q0.017,0.075.039,0.15a0.465,0.465,0,0,1-.325.56A0.478,0.478,0,0,1,797.3,2314.2Zm-1.744.34a0.5,0.5,0,0,1-.5-0.48v-0.66a0.5,0.5,0,0,1,1,0v0.66A0.5,0.5,0,0,1,795.559,2314.54ZM784.1,2325.37a11.1,11.1,0,0,1-2.633.17H781.4v0.07c0,1.89.014,3.49,0.032,5.02a1.806,1.806,0,0,1-1.8,1.76,1.737,1.737,0,0,1-1.233-.46,1.808,1.808,0,0,1-.6-1.29c-0.053-4.44-.035-8.94-0.017-13.29v-0.07c0.006-1.57.013-3.19,0.016-4.78a1.7,1.7,0,0,1,.54-1.24,1.962,1.962,0,0,1,1.257-.51h0.07a1.677,1.677,0,0,1,.5.07l0.016,0.01,0.017-.01a10.96,10.96,0,0,1,3.09-.22,5.5,5.5,0,0,1,3.034,1.16c1.575,1.27,1.829,3.46,1.873,5.23,0,0.16.009,0.33,0.014,0.49v0.01a12.126,12.126,0,0,1-.528,4.94A4.809,4.809,0,0,1,784.1,2325.37Zm0.5-7.23c0-.4-0.013-0.8-0.027-1.27,0-.15-0.011-0.3-0.019-0.45,0-.09-0.012-0.19-0.021-0.28a4.611,4.611,0,0,0-.272-1.3,1.076,1.076,0,0,0-.687-0.66,3.58,3.58,0,0,0-1.039-.11,8.621,8.621,0,0,0-1.052.08l-0.054.01v0.05c0,0.89-.007,1.78-0.01,2.66l0,0.55c-0.006,1.5-.012,3.04-0.016,4.56v0.06l0.062,0.01c0.183,0,.348.01,0.5,0.01h0.185c0.225,0,.457,0,0.681-0.02,0.135-.02.237-0.03,0.33-0.05a1.875,1.875,0,0,0,.831-0.32,1.506,1.506,0,0,0,.427-0.84,5.286,5.286,0,0,0,.145-0.84c0.026-.3.03-0.6,0.034-0.87,0-.2,0-0.41,0-0.61C784.605,2318.39,784.605,2318.27,784.6,2318.14Zm-8.8,11.3a4.13,4.13,0,0,1-3.141,2.81,12.37,12.37,0,0,1-2.264.14h-0.13c-0.593,0-1.184-.01-1.758-0.04H768.5l-0.015.01a2.023,2.023,0,0,1-.761.19,1.716,1.716,0,0,1-1.224-.46,1.819,1.819,0,0,1-.6-1.3l-0.257-18.46a1.793,1.793,0,0,1,1.787-1.76H767.5a1.641,1.641,0,0,1,.8.21l0.018,0.01,0.067-.01a7.976,7.976,0,0,1,4.474.32,4.684,4.684,0,0,1,2.491,3.78,7.2,7.2,0,0,1-.317,4.5,4.171,4.171,0,0,1-.821,1.18l-0.045.05,0.049,0.04a5.606,5.606,0,0,1,1.824,4.07c0.057,0.88.078,1.6,0.067,2.25A8.71,8.71,0,0,1,775.8,2329.44Zm-3.656-13.43a6.936,6.936,0,0,0-.244-1.22,1.34,1.34,0,0,0-.432-0.69,1.531,1.531,0,0,0-.875-0.25c-0.239,0-.481.01-0.715,0.02l-0.079.01c-0.033,0-.216.02-0.393,0.03-0.393.04-.4,0.04-0.4,0.11l0.068,4.91v0.06h0.294a9.719,9.719,0,0,0,1.08-.06,2.536,2.536,0,0,0,1.039-.36,1.625,1.625,0,0,0,.69-1.23c0-.04.006-0.07,0.009-0.11A6.861,6.861,0,0,0,772.148,2316.01Zm0.559,8.69a2.825,2.825,0,0,0-.27-1.09,1.891,1.891,0,0,0-.448-0.54,2.162,2.162,0,0,0-.355-0.25,3.029,3.029,0,0,0-2.269-.31l-0.1.03a0.263,0.263,0,0,0-.085.02l-0.048.01,0.091,6.55h0.061c0.351,0.01.681,0.01,1,.01h0.708a1.628,1.628,0,0,1,.221-0.01,4.564,4.564,0,0,0,.522-0.02,1.025,1.025,0,0,0,.7-0.28,1.515,1.515,0,0,0,.29-0.91l0-.01c0-.12.01-0.24,0.021-0.36,0.008-.1.016-0.19,0.019-0.29A23.139,23.139,0,0,0,772.707,2324.7Zm-10.087,7.85a1.92,1.92,0,0,1-.926-0.24,1.785,1.785,0,0,1-.9-1.11c-0.351-1.43-.729-2.86-1.054-4.07a0.107,0.107,0,0,0-.1-0.07h-0.006c-1.2.05-2.446,0.1-3.692,0.14a0.111,0.111,0,0,0-.1.08c-0.339,1.42-.657,2.67-0.971,3.84a1.762,1.762,0,0,1-.9,1.1,2.107,2.107,0,0,1-1.4.18,1.755,1.755,0,0,1-1.1-.78,1.846,1.846,0,0,1-.233-1.45c0.889-3.3,1.644-6.7,2.374-9.99,0.6-2.7,1.219-5.49,1.91-8.21a0.515,0.515,0,0,1,.017-0.07,1.769,1.769,0,0,1,.81-0.99,2.562,2.562,0,0,1,2.265-.14,1.925,1.925,0,0,1,.973,1.13c0.676,2.17,1.228,4.41,1.763,6.57l0,0.02c0.207,0.84.423,1.71,0.642,2.57,0.333,1.3.686,2.6,1.027,3.87l0,0.01c0.47,1.74.956,3.54,1.393,5.33a1.822,1.822,0,0,1-1.3,2.2A1.712,1.712,0,0,1,762.62,2332.55Zm-4.013-9.95,0-.01c-0.042-.21-0.085-0.43-0.124-0.64-0.022-.12-0.046-0.25-0.066-0.38l-0.063-.4c-0.16-1.01-.325-2.06-0.455-3.09l-0.075-.59a0.108,0.108,0,0,0-.213,0c-0.043.3-.087,0.62-0.131,0.94l-0.028.21c-0.077.55-.17,1.12-0.26,1.66-0.111.67-.225,1.37-0.312,2.06-0.044.35-.089,0.72-0.154,1.07a0.113,0.113,0,0,0,.025.09,0.107,0.107,0,0,0,.083.03c0.6-.02,1.213-0.04,1.821-0.07a0.106,0.106,0,0,0,.1-0.12C758.7,2323.08,758.654,2322.84,758.607,2322.6Zm-10.461,9.01a4.728,4.728,0,0,1-2.628.93,2.269,2.269,0,0,1-.26.01,4.975,4.975,0,0,1-2.457-.64,5.146,5.146,0,0,1-.933-0.68,5.7,5.7,0,0,1-1.753-3.55,1.7,1.7,0,0,1,.977-1.74,2,2,0,0,1,.862-0.2,1.719,1.719,0,0,1,.556.09,1.666,1.666,0,0,1,.818.64,2.5,2.5,0,0,1,.356.92,4.756,4.756,0,0,0,.154.54,1.623,1.623,0,0,0,1.205,1.09,1.1,1.1,0,0,0,.876-0.18,2.78,2.78,0,0,0,.791-1.92,13.989,13.989,0,0,0,.038-1.66c0-.14,0-0.28-0.007-0.42s0-.29,0-0.43a8.676,8.676,0,0,0-.045-1.22,0.6,0.6,0,0,0-.687-0.4h-0.066a3.8,3.8,0,0,1-1.21-.07,1.764,1.764,0,0,1-1.306-1.94,1.8,1.8,0,0,1,1.765-1.52h0.524l0.02-.03a1.359,1.359,0,0,0,.149-0.31,5.374,5.374,0,0,0,.3-1.72,10.653,10.653,0,0,0-.038-1.8,1.409,1.409,0,0,0-.661-1.22,1.093,1.093,0,0,0-.95-0.03,2.275,2.275,0,0,0-1.126,1.42,1.841,1.841,0,0,1-2.2,1.24,1.674,1.674,0,0,1-1.058-.77,1.791,1.791,0,0,1-.215-1.4,5.8,5.8,0,0,1,1.241-2.29,5.481,5.481,0,0,1,2.173-1.5,4.873,4.873,0,0,1,4.2.46,5.156,5.156,0,0,1,2.194,4.26,9.921,9.921,0,0,1-.567,4.72c-0.018.04-.038,0.08-0.058,0.13l-0.018.03,0.031,0.03a3.556,3.556,0,0,1,.944,1.64l0.013,0.04a10.054,10.054,0,0,1,.23,2.23l0.006,0.2c0,0.08,0,.17.007,0.25a18.588,18.588,0,0,1-.056,2.29A5.99,5.99,0,0,1,748.146,2331.61Zm-10.628-1.75a4.7,4.7,0,0,1-1.605,1.7,5.531,5.531,0,0,1-2.222.79c-0.215.02-.434,0.04-0.649,0.04a5.088,5.088,0,0,1-4.284-2.4,10.113,10.113,0,0,1-1.147-5.33v-0.01c-0.053-1.72-.031-3.53.067-5.53,0.042-.86.1-1.73,0.168-2.67,0.014-.19.026-0.39,0.037-0.58a9.869,9.869,0,0,1,.324-2.32,4.148,4.148,0,0,1,1.885-2.42,3.641,3.641,0,0,1,1.807-.48,3.545,3.545,0,0,1,1.569.37l0.037,0.02,0.032-.02a2.3,2.3,0,0,1,1.129-.44,2.576,2.576,0,0,1,1.778.51,3.768,3.768,0,0,1,1.169,1.31,8.328,8.328,0,0,1,.813,3.07,52.636,52.636,0,0,1,.459,5.89,35.526,35.526,0,0,1-.334,4.71A10.046,10.046,0,0,1,737.518,2329.86Zm-2.373-10.8c-0.063-.85-0.143-1.71-0.238-2.55-0.047-.43-0.1-0.86-0.154-1.28l0-.02c-0.024-.18-0.048-0.37-0.083-0.55l-0.006-.03a0.584,0.584,0,0,0-.212-0.5c-0.032-.01-0.1-0.02-0.141-0.03h-0.042a1.057,1.057,0,0,1-.395-0.15l-0.039-.02-0.036.03c-0.018.01-.036,0.03-0.055,0.04a1.992,1.992,0,0,1-1.74.2c-0.029-.01-0.056-0.01-0.083-0.02l-0.051-.02-0.027.04a0.639,0.639,0,0,0-.068.12,6.194,6.194,0,0,0-.256,1.71c-0.007.12-.014,0.25-0.023,0.37-0.107,1.54-.225,3.34-0.261,5.09l0,0.22a33.682,33.682,0,0,0,.13,4.82,3.891,3.891,0,0,0,.546,1.71,1.392,1.392,0,0,0,1.17.66h0.035c1.269,0,1.528-1.37,1.7-2.29l0-.01c0.108-.58.192-1.19,0.274-2.01,0.089-.88.14-1.71,0.156-2.51C735.242,2320.9,735.212,2319.95,735.145,2319.06Zm-9.19,5.99a14.413,14.413,0,0,1-.2,1.99,6.9,6.9,0,0,1-1.8,3.78,5.574,5.574,0,0,1-3.594,1.56c-0.089,0-.18.01-0.27,0.01a5.1,5.1,0,0,1-4.642-3.09,10.489,10.489,0,0,1-.51-2.3l0-.02a29.792,29.792,0,0,1-.278-3.1c-0.069-1.88-.028-3.8.009-5.49a15.62,15.62,0,0,1,.246-2.68,7.62,7.62,0,0,1,.953-2.58,5.645,5.645,0,0,1,1.858-1.88,4.65,4.65,0,0,1,2.415-.68h0.2a2,2,0,0,1,.343.05h0.006a0.185,0.185,0,0,1,.076.01,5.163,5.163,0,0,1,2.386,1.04,5.663,5.663,0,0,1,1.605,1.98,14.019,14.019,0,0,1,1.131,4.88,31.23,31.23,0,0,1,.122,5.71C725.986,2324.5,725.971,2324.76,725.955,2325.05Zm-3.483-3.47-0.012-.45a26.47,26.47,0,0,0-.4-4.25,7.017,7.017,0,0,0-.283-1.07c-0.132-.37-0.638-1.57-1.558-1.69a1.206,1.206,0,0,0-1.014.45,3.929,3.929,0,0,0-.814,2.16c-0.064.73-.093,1.47-0.113,2.09-0.04,1.27-.033,2.55-0.027,3.78,0.006,1,.06,2.05.161,3.11a6.275,6.275,0,0,0,.377,1.84,1.781,1.781,0,0,0,.71.86,1.615,1.615,0,0,0,.815.2,1.8,1.8,0,0,0,1.4-.62,3.242,3.242,0,0,0,.557-1.39,13.667,13.667,0,0,0,.192-2.03c0-.12.011-0.25,0.017-0.37C722.522,2323.33,722.5,2322.44,722.472,2321.58Zm-12.233,10.19a4.444,4.444,0,0,1-.593.26,5.052,5.052,0,0,1-4.319-.26,4.912,4.912,0,0,1-1.866-2.09,4.844,4.844,0,0,1-.469-1.85,2.109,2.109,0,0,1,.554-1.78,1.937,1.937,0,0,1,1.274-.45,2.144,2.144,0,0,1,.438.04,1.674,1.674,0,0,1,1.29,1.42c0.009,0.1.015,0.19,0.02,0.29a2.116,2.116,0,0,0,.214.96,1.212,1.212,0,0,0,.534.53,1.421,1.421,0,0,0,1.468-.28,2.17,2.17,0,0,0,.512-1.1,6.916,6.916,0,0,0,.165-1.18,15.22,15.22,0,0,0,0-1.98,2.85,2.85,0,0,0-.681-1.84l-0.017-.02H708.74a0.254,0.254,0,0,0-.09-0.01,0.347,0.347,0,0,1-.1-0.01H708.54a3.414,3.414,0,0,1-.766-0.17,1.743,1.743,0,0,1-1.243-2.11,1.666,1.666,0,0,1,.837-1.05,1.909,1.909,0,0,1,1.334-.2l0.055,0.02,0.021-.05a2.735,2.735,0,0,0,.087-0.26,8.8,8.8,0,0,0,.209-0.87,8.665,8.665,0,0,0,.12-1.59,5.609,5.609,0,0,0-.119-1.41,1.3,1.3,0,0,0-1.446-.71,0.936,0.936,0,0,0-.779.58,3.082,3.082,0,0,0-.252.97,1.822,1.822,0,0,1-1.788,1.7,1.887,1.887,0,0,1-1.373-.59,2.416,2.416,0,0,1-.244-2.4l0-.02a4.919,4.919,0,0,1,.843-1.89,4.571,4.571,0,0,1,3.4-1.78,5.226,5.226,0,0,1,3.106.68,4.488,4.488,0,0,1,1.387,1.26,6.855,6.855,0,0,1,.851,4.38,8.416,8.416,0,0,1-.863,3.7l-0.019.04,0.023,0.03a5.8,5.8,0,0,1,.957,2.15,13.232,13.232,0,0,1,.034,4.86A5.278,5.278,0,0,1,710.239,2331.77Z" transform="translate(-703 -2305)"/>
</svg>
