<svg xmlns="http://www.w3.org/2000/svg" width="22" height="36.031" viewBox="0 0 22 36.031">
  <defs>
    <style>
      .cls-1 {
        fill: #f1f1f1;
        fill-rule: evenodd;
      }
    </style>
  </defs>
  <path id="Fast_copy_2" data-name="Fast copy 2" class="cls-1" d="M810.927,604.858a23.292,23.292,0,0,0,2.487.619q1.316,0.257,2.571.389A20.581,20.581,0,0,0,818.1,606a22.775,22.775,0,0,0,4.9-.51,12.514,12.514,0,0,0,4.1-1.653,8.554,8.554,0,0,0,2.833-2.965,8.807,8.807,0,0,0,1.052-4.471,8.362,8.362,0,0,0-.705-3.512,10.151,10.151,0,0,0-1.913-2.807,16.046,16.046,0,0,0-2.8-2.309q-1.59-1.044-3.384-1.993-1.745-.777-3.072-1.446a14.155,14.155,0,0,1-2.248-1.373,5.163,5.163,0,0,1-1.4-1.555,4.047,4.047,0,0,1-.478-2.017,3.557,3.557,0,0,1,.621-2.114,4.9,4.9,0,0,1,1.614-1.434,7.415,7.415,0,0,1,2.248-.8A13.248,13.248,0,0,1,822,574.8a12.387,12.387,0,0,1,7.509,2.138v-5.711q-2.463-1.239-7.844-1.239a18.946,18.946,0,0,0-4.639.571,13.032,13.032,0,0,0-4.053,1.75,9.277,9.277,0,0,0-2.87,2.989,8.126,8.126,0,0,0-1.088,4.265,8.777,8.777,0,0,0,.634,3.475,8.969,8.969,0,0,0,1.746,2.661,14.03,14.03,0,0,0,2.618,2.151q1.508,0.972,3.252,1.92,1.626,0.753,3.049,1.446a17.142,17.142,0,0,1,2.475,1.446,6.185,6.185,0,0,1,1.638,1.665,3.883,3.883,0,0,1,.586,2.15A4.018,4.018,0,0,1,823.255,600a9.466,9.466,0,0,1-5.345,1.215,12.776,12.776,0,0,1-2.248-.218,18.022,18.022,0,0,1-2.439-.62,14.365,14.365,0,0,1-2.308-.984,9.062,9.062,0,0,1-1.877-1.313v5.955A7.856,7.856,0,0,0,810.927,604.858Z" transform="translate(-809 -569.969)"/>
</svg>
